%TF.GenerationSoftware,KiCad,Pcbnew,10.0.0*%
%TF.CreationDate,2026-09-30T06:09:51-07:00*%
%TF.ProjectId,headphone_amp,68656164-7068-46f6-9e65-5f616d702e6b,rev?*%
%TF.SameCoordinates,Original*%
%TF.FileFunction,Copper,L2,Inr*%
%TF.FilePolarity,Positive*%
%FSLAX46Y46*%
G04 Gerber Fmt 4.6, Leading zero omitted, Abs format (unit mm)*
G04 Created by KiCad (PCBNEW 10.0.0) date 2026-09-30 06:09:51*
%MOMM*%
%LPD*%
G01*
G04 APERTURE LIST*
G04 Aperture macros list*
%AMRoundRect*
0 Rectangle with rounded corners*
0 $1 Rounding radius*
0 $2 $3 $4 $5 $6 $7 $8 $9 X,Y pos of 4 corners*
0 Add a 4 corners polygon primitive as box body*
4,1,4,$2,$3,$4,$5,$6,$7,$8,$9,$2,$3,0*
0 Add four circle primitives for the rounded corners*
1,1,$1+$1,$2,$3*
1,1,$1+$1,$4,$5*
1,1,$1+$1,$6,$7*
1,1,$1+$1,$8,$9*
0 Add four rect primitives between the rounded corners*
20,1,$1+$1,$2,$3,$4,$5,0*
20,1,$1+$1,$4,$5,$6,$7,0*
20,1,$1+$1,$6,$7,$8,$9,0*
20,1,$1+$1,$8,$9,$2,$3,0*%
G04 Aperture macros list end*
%TA.AperFunction,ComponentPad*%
%ADD10R,1.700000X1.700000*%
%TD*%
%TA.AperFunction,ComponentPad*%
%ADD11C,1.700000*%
%TD*%
%TA.AperFunction,ComponentPad*%
%ADD12C,5.600000*%
%TD*%
%TA.AperFunction,ComponentPad*%
%ADD13C,0.609600*%
%TD*%
%TA.AperFunction,ComponentPad*%
%ADD14C,0.660400*%
%TD*%
%TA.AperFunction,ComponentPad*%
%ADD15C,0.558800*%
%TD*%
%TA.AperFunction,ComponentPad*%
%ADD16C,0.700000*%
%TD*%
%TA.AperFunction,ComponentPad*%
%ADD17O,2.400000X0.900000*%
%TD*%
%TA.AperFunction,ComponentPad*%
%ADD18O,1.700000X0.900000*%
%TD*%
%TA.AperFunction,ComponentPad*%
%ADD19RoundRect,0.250000X-0.350000X-0.625000X0.350000X-0.625000X0.350000X0.625000X-0.350000X0.625000X0*%
%TD*%
%TA.AperFunction,ComponentPad*%
%ADD20O,1.200000X1.750000*%
%TD*%
%TA.AperFunction,ViaPad*%
%ADD21C,0.660400*%
%TD*%
G04 APERTURE END LIST*
D10*
%TO.N,GND*%
%TO.C,J5*%
X48800000Y-48400000D03*
D11*
%TO.N,/Audio Input/JACK_IN*%
X48800000Y-45860000D03*
%TD*%
D12*
%TO.N,GND*%
%TO.C,H2*%
X101625400Y-33680400D03*
%TD*%
D10*
%TO.N,/Audio Input/FIRST_STAGE_FB*%
%TO.C,J7*%
X62707400Y-39283800D03*
D11*
%TO.N,Net-(J7-Pin_2)*%
X65247400Y-39283800D03*
X62707400Y-36743800D03*
%TO.N,/Audio Input/FIRST_STAGE_OUT*%
X65247400Y-36743800D03*
X62707400Y-34203800D03*
%TO.N,Net-(J7-Pin_6)*%
X65247400Y-34203800D03*
X62707400Y-31663800D03*
%TO.N,/Audio Input/FIRST_STAGE_FB*%
X65247400Y-31663800D03*
%TD*%
D12*
%TO.N,GND*%
%TO.C,H4*%
X101625400Y-85217000D03*
%TD*%
D13*
%TO.N,GND*%
%TO.C,U1*%
X60189237Y-73899499D03*
D14*
X60189237Y-74686899D03*
D13*
X60976637Y-73899499D03*
X60976637Y-74686899D03*
%TD*%
D15*
%TO.N,GND*%
%TO.C,U5*%
X77740800Y-65614600D03*
%TD*%
D12*
%TO.N,GND*%
%TO.C,H1*%
X50139600Y-33680400D03*
%TD*%
%TO.N,GND*%
%TO.C,H3*%
X50139600Y-85217000D03*
%TD*%
D16*
%TO.N,GND*%
%TO.C,J1*%
X51680200Y-63580000D03*
%TO.N,/Power Input/VBUS_CONN*%
X51680200Y-64430000D03*
%TO.N,/Power Input/CC1*%
X51680200Y-65280000D03*
%TO.N,/Power Input/USB_D+*%
X51680200Y-66130000D03*
%TO.N,/Power Input/USB_D-*%
X51680200Y-66980000D03*
%TO.N,unconnected-(J1-SBU1-PadA8)*%
X51680200Y-67830000D03*
%TO.N,/Power Input/VBUS_CONN*%
X51680200Y-68680000D03*
%TO.N,GND*%
X51680200Y-69530000D03*
X50330200Y-69530000D03*
%TO.N,/Power Input/VBUS_CONN*%
X50330200Y-68680000D03*
%TO.N,/Power Input/CC2*%
X50330200Y-67830000D03*
%TO.N,/Power Input/USB_D+*%
X50330200Y-66980000D03*
%TO.N,/Power Input/USB_D-*%
X50330200Y-66130000D03*
%TO.N,unconnected-(J1-SBU2-PadB8)*%
X50330200Y-65280000D03*
%TO.N,/Power Input/VBUS_CONN*%
X50330200Y-64430000D03*
%TO.N,GND*%
X50330200Y-63580000D03*
D17*
X50700200Y-62230000D03*
D18*
X47320200Y-62230000D03*
D17*
X50700200Y-70880000D03*
D18*
X47320200Y-70880000D03*
%TD*%
D15*
%TO.N,GND*%
%TO.C,U2*%
X62107401Y-44693799D03*
X62107401Y-46093799D03*
X62407404Y-45393799D03*
X62707401Y-44693799D03*
X62707401Y-46093799D03*
%TD*%
D19*
%TO.N,GND*%
%TO.C,J2*%
X70711000Y-81709000D03*
D20*
%TO.N,/Battery/BATT_IN*%
X72711000Y-81709000D03*
%TD*%
D21*
%TO.N,/V_{SYS}*%
X90601800Y-82778600D03*
X69062600Y-71399400D03*
X86809236Y-79010114D03*
X91617800Y-86614000D03*
%TO.N,GND*%
X105156000Y-52144901D03*
X46812200Y-80193230D03*
X78725660Y-30175200D03*
X98196400Y-85902800D03*
X105156000Y-56983212D03*
X105010210Y-32350000D03*
X64131901Y-30175200D03*
X105156000Y-58595982D03*
X82984898Y-88468200D03*
X48514000Y-36982400D03*
X105156000Y-63434292D03*
X105156000Y-74723683D03*
X93319419Y-30175200D03*
X50038000Y-81838800D03*
X105156000Y-53757672D03*
X53416200Y-35864800D03*
X101574600Y-37388800D03*
X65753430Y-30175200D03*
X103000000Y-88310210D03*
X103558979Y-30600000D03*
X68996488Y-30175200D03*
X94940948Y-30175200D03*
X46812200Y-40065610D03*
X105156000Y-50532131D03*
X63881000Y-50114200D03*
X105156000Y-69885373D03*
X83590246Y-30175200D03*
X104750000Y-86858979D03*
X71450200Y-47142400D03*
X46812200Y-72167706D03*
X49428400Y-69900800D03*
X83896200Y-75768200D03*
X46800000Y-33555105D03*
X98653600Y-87147400D03*
X74877255Y-88468200D03*
X98184005Y-30175200D03*
X46800000Y-35160210D03*
X105156000Y-66659833D03*
X94429236Y-74200414D03*
X95957128Y-88468200D03*
X81968718Y-30175200D03*
X54402729Y-30175200D03*
X77343000Y-59004200D03*
X46812200Y-78588126D03*
X105130600Y-83355800D03*
X55418910Y-88468200D03*
X52044600Y-82219800D03*
X53162200Y-87122000D03*
X67513200Y-40335200D03*
X46812200Y-38460505D03*
X105156000Y-44081051D03*
X100558600Y-81940400D03*
X91697890Y-30175200D03*
X46812200Y-57721763D03*
X46812200Y-43275819D03*
X47200000Y-31801231D03*
X47000000Y-86400000D03*
X105156000Y-65047062D03*
X58661967Y-88468200D03*
X92714071Y-88468200D03*
X46812200Y-81798335D03*
X46812200Y-56116658D03*
X88454833Y-30175200D03*
X105156000Y-37629970D03*
X99805534Y-30175200D03*
X46812200Y-54511553D03*
X105156000Y-68272603D03*
X93014800Y-36499800D03*
X73861074Y-30175200D03*
X75482603Y-30175200D03*
X101805105Y-30200000D03*
X101955600Y-81762600D03*
X66769611Y-88468200D03*
X87020400Y-72821800D03*
X61905025Y-88468200D03*
X79741841Y-88468200D03*
X46812200Y-76983021D03*
X105156000Y-81174764D03*
X60888844Y-30175200D03*
X87849485Y-88468200D03*
X94335600Y-88468200D03*
X50495200Y-37414200D03*
X97578657Y-88468200D03*
X101000000Y-88510210D03*
X105156000Y-77949224D03*
X50950000Y-30150000D03*
X68391140Y-88468200D03*
X105156000Y-42468281D03*
X52175852Y-88468200D03*
X84683600Y-63728600D03*
X77104131Y-30175200D03*
X88010000Y-70980000D03*
X103378000Y-82092800D03*
X52781200Y-30175200D03*
X105156000Y-48919361D03*
X80347189Y-30175200D03*
X89471013Y-88468200D03*
X105156000Y-45693821D03*
X46812200Y-46486029D03*
X85211775Y-30175200D03*
X78120312Y-88468200D03*
X46812200Y-44880924D03*
X99568000Y-37007800D03*
X46812200Y-68957497D03*
X57040438Y-88468200D03*
X48550000Y-88150000D03*
X84955036Y-85461714D03*
X81864200Y-60502800D03*
X80543400Y-80949800D03*
X105156000Y-76336453D03*
X105150000Y-34350000D03*
X62839600Y-40995600D03*
X46812200Y-75377916D03*
X98450400Y-32105600D03*
X53289200Y-31851600D03*
X98018600Y-34086800D03*
X105156000Y-61821522D03*
X98247200Y-84480400D03*
X46812200Y-65747287D03*
X46812200Y-51301343D03*
X105156000Y-60208752D03*
X46812200Y-49696239D03*
X71634197Y-88468200D03*
X46812200Y-59326868D03*
X95250000Y-70840600D03*
X105156000Y-73110913D03*
X48950000Y-30350000D03*
X98653600Y-83312000D03*
X46812200Y-73772811D03*
X86227956Y-88468200D03*
X46812200Y-60931972D03*
X105156000Y-47306591D03*
X67374959Y-30175200D03*
X105150000Y-85105105D03*
X63526553Y-88468200D03*
X46812200Y-36855400D03*
X52273200Y-37058600D03*
X99200186Y-88468200D03*
X70012668Y-88468200D03*
X86833304Y-30175200D03*
X46850000Y-84700000D03*
X105156000Y-71498143D03*
X61722000Y-42951400D03*
X59267315Y-30175200D03*
X46812200Y-48091134D03*
X50303874Y-88550000D03*
X96562476Y-30175200D03*
X46812200Y-67352392D03*
X46812200Y-52906448D03*
X53797381Y-88468200D03*
X46812200Y-64142182D03*
X99966436Y-71390114D03*
X81363370Y-88468200D03*
X56024258Y-30175200D03*
X90076361Y-30175200D03*
X57645786Y-30175200D03*
X46812200Y-41670714D03*
X73255726Y-88468200D03*
X103581200Y-36880800D03*
X60283496Y-88468200D03*
X62510373Y-30175200D03*
X46812200Y-83403440D03*
X53594000Y-85140800D03*
X53797200Y-33858200D03*
X105156000Y-55370442D03*
X72239545Y-30175200D03*
X105156000Y-40855510D03*
X91092542Y-88468200D03*
X76498783Y-88468200D03*
X105156000Y-39242740D03*
X105156000Y-36017200D03*
X53238400Y-83362800D03*
X98374200Y-35864800D03*
X70618016Y-30175200D03*
X65148082Y-88468200D03*
X105156000Y-79561994D03*
X84606427Y-88468200D03*
X61320000Y-47160000D03*
%TO.N,/Audio Input/FIRST_STAGE_OUT*%
X59835400Y-43282000D03*
X59302000Y-41707200D03*
%TO.N,/Watchdog/AUDIO_DETECT*%
X93607736Y-76315914D03*
X89188136Y-76290514D03*
%TO.N,/Boost/Vin*%
X74701400Y-64516000D03*
X75641200Y-69570600D03*
X76454000Y-61061600D03*
X81534000Y-63703200D03*
%TO.N,/Battery Charger/TS+*%
X57607200Y-71577200D03*
X65151000Y-77978000D03*
%TO.N,/V_{MID}*%
X71221600Y-43459400D03*
X87122000Y-39547800D03*
X72898000Y-48133000D03*
X92075000Y-37205000D03*
%TO.N,/V+*%
X91109800Y-46659800D03*
X92684600Y-38506400D03*
X83083400Y-46659800D03*
X67411600Y-41910000D03*
%TO.N,/Battery Charger/OUT*%
X59131200Y-76403200D03*
X63195200Y-74472800D03*
X63195200Y-73736200D03*
X49098200Y-73914000D03*
X49250600Y-79095600D03*
%TO.N,/V_{BAT}*%
X63830200Y-76276200D03*
X58166000Y-74295000D03*
%TO.N,/Audio Input/SECOND_STAGE_OUT*%
X76682600Y-72745600D03*
X65633600Y-51282600D03*
%TO.N,/Boost/SHUTDOWN*%
X78003400Y-56743600D03*
X90534336Y-79440114D03*
%TD*%
%TA.AperFunction,Conductor*%
%TO.N,GND*%
G36*
X102041708Y-29812549D02*
G01*
X102051985Y-29812834D01*
X102165035Y-29815973D01*
X102172490Y-29816402D01*
X102388679Y-29835316D01*
X102396578Y-29836261D01*
X102609906Y-29868662D01*
X102617754Y-29870111D01*
X102828609Y-29915980D01*
X102836365Y-29917926D01*
X103043878Y-29977073D01*
X103051483Y-29979505D01*
X103254812Y-30051690D01*
X103262218Y-30054586D01*
X103460597Y-30139537D01*
X103467829Y-30142909D01*
X103660410Y-30240266D01*
X103667414Y-30244091D01*
X103716246Y-30272803D01*
X103853399Y-30353445D01*
X103860160Y-30357714D01*
X104038848Y-30478654D01*
X104045324Y-30483343D01*
X104215981Y-30615371D01*
X104222146Y-30620462D01*
X104344797Y-30728455D01*
X104382440Y-30761600D01*
X104384093Y-30763055D01*
X104389923Y-30768527D01*
X104542476Y-30921080D01*
X104547948Y-30926910D01*
X104690535Y-31088850D01*
X104695622Y-31095012D01*
X104827654Y-31265674D01*
X104827657Y-31265678D01*
X104832346Y-31272153D01*
X104953284Y-31450838D01*
X104957553Y-31457599D01*
X105066906Y-31643582D01*
X105070738Y-31650599D01*
X105168085Y-31843161D01*
X105171464Y-31850407D01*
X105256404Y-32048760D01*
X105259316Y-32056206D01*
X105331497Y-32259525D01*
X105333932Y-32267141D01*
X105393074Y-32474637D01*
X105395021Y-32482393D01*
X105440887Y-32693242D01*
X105442337Y-32701103D01*
X105474734Y-32914399D01*
X105475684Y-32922338D01*
X105494596Y-33138503D01*
X105495026Y-33145987D01*
X105498450Y-33269272D01*
X105498499Y-33272770D01*
X105498499Y-85401211D01*
X105498450Y-85404709D01*
X105495025Y-85528022D01*
X105494595Y-85535506D01*
X105475684Y-85751660D01*
X105474734Y-85759599D01*
X105442337Y-85972895D01*
X105440887Y-85980756D01*
X105395021Y-86191605D01*
X105393074Y-86199361D01*
X105333932Y-86406857D01*
X105331497Y-86414473D01*
X105259316Y-86617792D01*
X105256404Y-86625238D01*
X105171464Y-86823591D01*
X105168085Y-86830837D01*
X105070738Y-87023399D01*
X105066906Y-87030416D01*
X104957553Y-87216399D01*
X104953284Y-87223160D01*
X104832346Y-87401845D01*
X104827657Y-87408320D01*
X104695626Y-87578982D01*
X104690535Y-87585148D01*
X104547948Y-87747088D01*
X104542476Y-87752918D01*
X104389923Y-87905471D01*
X104384093Y-87910943D01*
X104222146Y-88053536D01*
X104215981Y-88058627D01*
X104045324Y-88190655D01*
X104038848Y-88195344D01*
X103860160Y-88316284D01*
X103853399Y-88320553D01*
X103667421Y-88429903D01*
X103660404Y-88433735D01*
X103467836Y-88531085D01*
X103460590Y-88534464D01*
X103262238Y-88619404D01*
X103254792Y-88622316D01*
X103051489Y-88694491D01*
X103043873Y-88696926D01*
X102836364Y-88756072D01*
X102828609Y-88758018D01*
X102617754Y-88803887D01*
X102609892Y-88805338D01*
X102396600Y-88837734D01*
X102388661Y-88838684D01*
X102172495Y-88857596D01*
X102165011Y-88858026D01*
X102041727Y-88861450D01*
X102038229Y-88861499D01*
X49909788Y-88861499D01*
X49906290Y-88861450D01*
X49782976Y-88858025D01*
X49775492Y-88857595D01*
X49559338Y-88838684D01*
X49551399Y-88837734D01*
X49338103Y-88805337D01*
X49330242Y-88803887D01*
X49119393Y-88758021D01*
X49111637Y-88756074D01*
X48904141Y-88696932D01*
X48896525Y-88694497D01*
X48693206Y-88622316D01*
X48685760Y-88619404D01*
X48682257Y-88617904D01*
X48583674Y-88575688D01*
X48487407Y-88534464D01*
X48480161Y-88531085D01*
X48287599Y-88433738D01*
X48280582Y-88429906D01*
X48094599Y-88320553D01*
X48087838Y-88316284D01*
X47909153Y-88195346D01*
X47902678Y-88190657D01*
X47732012Y-88058622D01*
X47725850Y-88053535D01*
X47623274Y-87963218D01*
X47563910Y-87910948D01*
X47558080Y-87905476D01*
X47405527Y-87752923D01*
X47400055Y-87747093D01*
X47257462Y-87585146D01*
X47252371Y-87578981D01*
X47120343Y-87408324D01*
X47115654Y-87401848D01*
X46994714Y-87223160D01*
X46990445Y-87216399D01*
X46971572Y-87184301D01*
X46881091Y-87030414D01*
X46877263Y-87023404D01*
X46877260Y-87023399D01*
X46779909Y-86830829D01*
X46776537Y-86823597D01*
X46691586Y-86625218D01*
X46688694Y-86617823D01*
X46671000Y-86567983D01*
X91033100Y-86567983D01*
X91033100Y-86660017D01*
X91047497Y-86750918D01*
X91047498Y-86750921D01*
X91072303Y-86827265D01*
X91075937Y-86838447D01*
X91117720Y-86920450D01*
X91171816Y-86994906D01*
X91171818Y-86994908D01*
X91171821Y-86994912D01*
X91236887Y-87059978D01*
X91236890Y-87059980D01*
X91236894Y-87059984D01*
X91311350Y-87114080D01*
X91393353Y-87155863D01*
X91480882Y-87184303D01*
X91571783Y-87198700D01*
X91571786Y-87198700D01*
X91663814Y-87198700D01*
X91663817Y-87198700D01*
X91754718Y-87184303D01*
X91842247Y-87155863D01*
X91924250Y-87114080D01*
X91998706Y-87059984D01*
X92063784Y-86994906D01*
X92117880Y-86920450D01*
X92159663Y-86838447D01*
X92188103Y-86750918D01*
X92202500Y-86660017D01*
X92202500Y-86567983D01*
X92188103Y-86477082D01*
X92159663Y-86389553D01*
X92117880Y-86307550D01*
X92063784Y-86233094D01*
X92063780Y-86233090D01*
X92063778Y-86233087D01*
X91998712Y-86168021D01*
X91998708Y-86168018D01*
X91998706Y-86168016D01*
X91924250Y-86113920D01*
X91842247Y-86072137D01*
X91842246Y-86072136D01*
X91842245Y-86072136D01*
X91754721Y-86043698D01*
X91754718Y-86043697D01*
X91663817Y-86029300D01*
X91571783Y-86029300D01*
X91480882Y-86043697D01*
X91480879Y-86043697D01*
X91480878Y-86043698D01*
X91393354Y-86072136D01*
X91311350Y-86113920D01*
X91236887Y-86168021D01*
X91171821Y-86233087D01*
X91117720Y-86307550D01*
X91075936Y-86389554D01*
X91052042Y-86463093D01*
X91047497Y-86477082D01*
X91033100Y-86567983D01*
X46671000Y-86567983D01*
X46616502Y-86414473D01*
X46614072Y-86406873D01*
X46614067Y-86406857D01*
X46554925Y-86199361D01*
X46552980Y-86191609D01*
X46507111Y-85980754D01*
X46505660Y-85972892D01*
X46495430Y-85905537D01*
X46473261Y-85759578D01*
X46472316Y-85751679D01*
X46453401Y-85535479D01*
X46452972Y-85528010D01*
X46449549Y-85404725D01*
X46449500Y-85401228D01*
X46449500Y-81052672D01*
X69611000Y-81052672D01*
X69611000Y-81459000D01*
X70430671Y-81459000D01*
X70419719Y-81469952D01*
X70378680Y-81531371D01*
X70350411Y-81599617D01*
X70336000Y-81672066D01*
X70336000Y-81745934D01*
X70350411Y-81818383D01*
X70378680Y-81886629D01*
X70419719Y-81948048D01*
X70430671Y-81959000D01*
X69611001Y-81959000D01*
X69611001Y-82365327D01*
X69615132Y-82429889D01*
X69637042Y-82537465D01*
X69637043Y-82537470D01*
X69674377Y-82640694D01*
X69674386Y-82640715D01*
X69726356Y-82737410D01*
X69791856Y-82825517D01*
X69869482Y-82903143D01*
X69957589Y-82968643D01*
X70054284Y-83020613D01*
X70054305Y-83020622D01*
X70157529Y-83057956D01*
X70157534Y-83057957D01*
X70265110Y-83079867D01*
X70265108Y-83079867D01*
X70329672Y-83083999D01*
X70461000Y-83083999D01*
X70461000Y-81989329D01*
X70471952Y-82000281D01*
X70533371Y-82041320D01*
X70601617Y-82069589D01*
X70674066Y-82084000D01*
X70747934Y-82084000D01*
X70820383Y-82069589D01*
X70888629Y-82041320D01*
X70950048Y-82000281D01*
X70961000Y-81989329D01*
X70961000Y-83083999D01*
X71092327Y-83083999D01*
X71156889Y-83079867D01*
X71264465Y-83057957D01*
X71264470Y-83057956D01*
X71367694Y-83020622D01*
X71367715Y-83020613D01*
X71464410Y-82968643D01*
X71552517Y-82903143D01*
X71630143Y-82825517D01*
X71695643Y-82737410D01*
X71747613Y-82640715D01*
X71747622Y-82640694D01*
X71784955Y-82537471D01*
X71787194Y-82526481D01*
X71803239Y-82485770D01*
X71832241Y-82453001D01*
X71870701Y-82432128D01*
X71913981Y-82425668D01*
X71956860Y-82434400D01*
X71994167Y-82457271D01*
X72010622Y-82474920D01*
X72050187Y-82526481D01*
X72067175Y-82548620D01*
X72067178Y-82548623D01*
X72067184Y-82548630D01*
X72146369Y-82627815D01*
X72146374Y-82627819D01*
X72146380Y-82627825D01*
X72235247Y-82696015D01*
X72332254Y-82752022D01*
X72435741Y-82794888D01*
X72543938Y-82823879D01*
X72543942Y-82823879D01*
X72543944Y-82823880D01*
X72572562Y-82827647D01*
X72654993Y-82838500D01*
X72655000Y-82838500D01*
X72767000Y-82838500D01*
X72767007Y-82838500D01*
X72867372Y-82825286D01*
X72878055Y-82823880D01*
X72878055Y-82823879D01*
X72878062Y-82823879D01*
X72986259Y-82794888D01*
X73089746Y-82752022D01*
X73123415Y-82732583D01*
X90017100Y-82732583D01*
X90017100Y-82824617D01*
X90031497Y-82915518D01*
X90059937Y-83003047D01*
X90101720Y-83085050D01*
X90155816Y-83159506D01*
X90155818Y-83159508D01*
X90155821Y-83159512D01*
X90220887Y-83224578D01*
X90220890Y-83224580D01*
X90220894Y-83224584D01*
X90295350Y-83278680D01*
X90377353Y-83320463D01*
X90464882Y-83348903D01*
X90555783Y-83363300D01*
X90555786Y-83363300D01*
X90647814Y-83363300D01*
X90647817Y-83363300D01*
X90738718Y-83348903D01*
X90826247Y-83320463D01*
X90908250Y-83278680D01*
X90982706Y-83224584D01*
X91047784Y-83159506D01*
X91101880Y-83085050D01*
X91143663Y-83003047D01*
X91172103Y-82915518D01*
X91186500Y-82824617D01*
X91186500Y-82732583D01*
X91172103Y-82641682D01*
X91143663Y-82554153D01*
X91101880Y-82472150D01*
X91047784Y-82397694D01*
X91047780Y-82397690D01*
X91047778Y-82397687D01*
X90982712Y-82332621D01*
X90982708Y-82332618D01*
X90982706Y-82332616D01*
X90908250Y-82278520D01*
X90826247Y-82236737D01*
X90826246Y-82236736D01*
X90826245Y-82236736D01*
X90738721Y-82208298D01*
X90738718Y-82208297D01*
X90647817Y-82193900D01*
X90555783Y-82193900D01*
X90464882Y-82208297D01*
X90464879Y-82208297D01*
X90464878Y-82208298D01*
X90377354Y-82236736D01*
X90295350Y-82278520D01*
X90220887Y-82332621D01*
X90155821Y-82397687D01*
X90101720Y-82472150D01*
X90059936Y-82554154D01*
X90031818Y-82640694D01*
X90031497Y-82641682D01*
X90017100Y-82732583D01*
X73123415Y-82732583D01*
X73186753Y-82696015D01*
X73275620Y-82627825D01*
X73354825Y-82548620D01*
X73423015Y-82459753D01*
X73479022Y-82362746D01*
X73521888Y-82259259D01*
X73550879Y-82151062D01*
X73565500Y-82040007D01*
X73565500Y-81377993D01*
X73550879Y-81266938D01*
X73521888Y-81158741D01*
X73479022Y-81055254D01*
X73423015Y-80958247D01*
X73354825Y-80869380D01*
X73354819Y-80869374D01*
X73354815Y-80869369D01*
X73275630Y-80790184D01*
X73275624Y-80790179D01*
X73275620Y-80790175D01*
X73186753Y-80721985D01*
X73186748Y-80721982D01*
X73089757Y-80665984D01*
X73089752Y-80665981D01*
X73089746Y-80665978D01*
X72986259Y-80623112D01*
X72878062Y-80594121D01*
X72878055Y-80594119D01*
X72767009Y-80579500D01*
X72767007Y-80579500D01*
X72654993Y-80579500D01*
X72654990Y-80579500D01*
X72543944Y-80594119D01*
X72435741Y-80623112D01*
X72332252Y-80665979D01*
X72332242Y-80665984D01*
X72235251Y-80721982D01*
X72146380Y-80790175D01*
X72146369Y-80790184D01*
X72067184Y-80869369D01*
X72067167Y-80869389D01*
X72010622Y-80943080D01*
X71978359Y-80972643D01*
X71937931Y-80989389D01*
X71894213Y-80991298D01*
X71852479Y-80978139D01*
X71817763Y-80951500D01*
X71794251Y-80914594D01*
X71787194Y-80891519D01*
X71784955Y-80880528D01*
X71747622Y-80777305D01*
X71747613Y-80777284D01*
X71695643Y-80680589D01*
X71630143Y-80592482D01*
X71552517Y-80514856D01*
X71464410Y-80449356D01*
X71367715Y-80397386D01*
X71367694Y-80397377D01*
X71264470Y-80360043D01*
X71264465Y-80360042D01*
X71156889Y-80338132D01*
X71156891Y-80338132D01*
X71092328Y-80334000D01*
X70961000Y-80334000D01*
X70961000Y-81428671D01*
X70950048Y-81417719D01*
X70888629Y-81376680D01*
X70820383Y-81348411D01*
X70747934Y-81334000D01*
X70674066Y-81334000D01*
X70601617Y-81348411D01*
X70533371Y-81376680D01*
X70471952Y-81417719D01*
X70461000Y-81428671D01*
X70461000Y-80334000D01*
X70329672Y-80334000D01*
X70265110Y-80338132D01*
X70157534Y-80360042D01*
X70157529Y-80360043D01*
X70054305Y-80397377D01*
X70054284Y-80397386D01*
X69957589Y-80449356D01*
X69869482Y-80514856D01*
X69791856Y-80592482D01*
X69726356Y-80680589D01*
X69674386Y-80777284D01*
X69674377Y-80777305D01*
X69637043Y-80880529D01*
X69637042Y-80880534D01*
X69615132Y-80988109D01*
X69611000Y-81052672D01*
X46449500Y-81052672D01*
X46449500Y-79049583D01*
X48665900Y-79049583D01*
X48665900Y-79141617D01*
X48680297Y-79232518D01*
X48680298Y-79232521D01*
X48703261Y-79303196D01*
X48708737Y-79320047D01*
X48750520Y-79402050D01*
X48804616Y-79476506D01*
X48804618Y-79476508D01*
X48804621Y-79476512D01*
X48869687Y-79541578D01*
X48869690Y-79541580D01*
X48869694Y-79541584D01*
X48944150Y-79595680D01*
X49026153Y-79637463D01*
X49113682Y-79665903D01*
X49204583Y-79680300D01*
X49204586Y-79680300D01*
X49296614Y-79680300D01*
X49296617Y-79680300D01*
X49387518Y-79665903D01*
X49475047Y-79637463D01*
X49557050Y-79595680D01*
X49631506Y-79541584D01*
X49696584Y-79476506D01*
X49750680Y-79402050D01*
X49792463Y-79320047D01*
X49820903Y-79232518D01*
X49835300Y-79141617D01*
X49835300Y-79049583D01*
X49821761Y-78964097D01*
X86224536Y-78964097D01*
X86224536Y-79056131D01*
X86238933Y-79147032D01*
X86267373Y-79234561D01*
X86309156Y-79316564D01*
X86363252Y-79391020D01*
X86363254Y-79391022D01*
X86363257Y-79391026D01*
X86428323Y-79456092D01*
X86428326Y-79456094D01*
X86428330Y-79456098D01*
X86502786Y-79510194D01*
X86584789Y-79551977D01*
X86672318Y-79580417D01*
X86763219Y-79594814D01*
X86763222Y-79594814D01*
X86855250Y-79594814D01*
X86855253Y-79594814D01*
X86946154Y-79580417D01*
X87033683Y-79551977D01*
X87115686Y-79510194D01*
X87190142Y-79456098D01*
X87252143Y-79394097D01*
X89949636Y-79394097D01*
X89949636Y-79486131D01*
X89964033Y-79577032D01*
X89992473Y-79664561D01*
X90034256Y-79746564D01*
X90088352Y-79821020D01*
X90088354Y-79821022D01*
X90088357Y-79821026D01*
X90153423Y-79886092D01*
X90153426Y-79886094D01*
X90153430Y-79886098D01*
X90227886Y-79940194D01*
X90309889Y-79981977D01*
X90397418Y-80010417D01*
X90488319Y-80024814D01*
X90488322Y-80024814D01*
X90580350Y-80024814D01*
X90580353Y-80024814D01*
X90671254Y-80010417D01*
X90758783Y-79981977D01*
X90840786Y-79940194D01*
X90915242Y-79886098D01*
X90980320Y-79821020D01*
X91034416Y-79746564D01*
X91076199Y-79664561D01*
X91104639Y-79577032D01*
X91119036Y-79486131D01*
X91119036Y-79394097D01*
X91104639Y-79303196D01*
X91076199Y-79215667D01*
X91034416Y-79133664D01*
X90980320Y-79059208D01*
X90980316Y-79059204D01*
X90980314Y-79059201D01*
X90915248Y-78994135D01*
X90915244Y-78994132D01*
X90915242Y-78994130D01*
X90840786Y-78940034D01*
X90758783Y-78898251D01*
X90758782Y-78898250D01*
X90758781Y-78898250D01*
X90671257Y-78869812D01*
X90671254Y-78869811D01*
X90580353Y-78855414D01*
X90488319Y-78855414D01*
X90397418Y-78869811D01*
X90397415Y-78869811D01*
X90397414Y-78869812D01*
X90309890Y-78898250D01*
X90227886Y-78940034D01*
X90153423Y-78994135D01*
X90088357Y-79059201D01*
X90034256Y-79133664D01*
X89992472Y-79215668D01*
X89964034Y-79303192D01*
X89964033Y-79303196D01*
X89949636Y-79394097D01*
X87252143Y-79394097D01*
X87255220Y-79391020D01*
X87309316Y-79316564D01*
X87351099Y-79234561D01*
X87379539Y-79147032D01*
X87393936Y-79056131D01*
X87393936Y-78964097D01*
X87379539Y-78873196D01*
X87351099Y-78785667D01*
X87309316Y-78703664D01*
X87255220Y-78629208D01*
X87255216Y-78629204D01*
X87255214Y-78629201D01*
X87190148Y-78564135D01*
X87190144Y-78564132D01*
X87190142Y-78564130D01*
X87115686Y-78510034D01*
X87033683Y-78468251D01*
X87033682Y-78468250D01*
X87033681Y-78468250D01*
X86946157Y-78439812D01*
X86946154Y-78439811D01*
X86855253Y-78425414D01*
X86763219Y-78425414D01*
X86672318Y-78439811D01*
X86672315Y-78439811D01*
X86672314Y-78439812D01*
X86584790Y-78468250D01*
X86502786Y-78510034D01*
X86428323Y-78564135D01*
X86363257Y-78629201D01*
X86309156Y-78703664D01*
X86267372Y-78785668D01*
X86239597Y-78871153D01*
X86238933Y-78873196D01*
X86224536Y-78964097D01*
X49821761Y-78964097D01*
X49820903Y-78958682D01*
X49792463Y-78871153D01*
X49750680Y-78789150D01*
X49696584Y-78714694D01*
X49696580Y-78714690D01*
X49696578Y-78714687D01*
X49631512Y-78649621D01*
X49631508Y-78649618D01*
X49631506Y-78649616D01*
X49557050Y-78595520D01*
X49475047Y-78553737D01*
X49475046Y-78553736D01*
X49475045Y-78553736D01*
X49387521Y-78525298D01*
X49387518Y-78525297D01*
X49296617Y-78510900D01*
X49204583Y-78510900D01*
X49113682Y-78525297D01*
X49113679Y-78525297D01*
X49113678Y-78525298D01*
X49026154Y-78553736D01*
X48944150Y-78595520D01*
X48869687Y-78649621D01*
X48804621Y-78714687D01*
X48750520Y-78789150D01*
X48708736Y-78871154D01*
X48699932Y-78898251D01*
X48680297Y-78958682D01*
X48665900Y-79049583D01*
X46449500Y-79049583D01*
X46449500Y-77931983D01*
X64566300Y-77931983D01*
X64566300Y-78024017D01*
X64580697Y-78114918D01*
X64609137Y-78202447D01*
X64650920Y-78284450D01*
X64705016Y-78358906D01*
X64705018Y-78358908D01*
X64705021Y-78358912D01*
X64770087Y-78423978D01*
X64770090Y-78423980D01*
X64770094Y-78423984D01*
X64844550Y-78478080D01*
X64926553Y-78519863D01*
X65014082Y-78548303D01*
X65104983Y-78562700D01*
X65104986Y-78562700D01*
X65197014Y-78562700D01*
X65197017Y-78562700D01*
X65287918Y-78548303D01*
X65375447Y-78519863D01*
X65457450Y-78478080D01*
X65531906Y-78423984D01*
X65596984Y-78358906D01*
X65651080Y-78284450D01*
X65692863Y-78202447D01*
X65721303Y-78114918D01*
X65735700Y-78024017D01*
X65735700Y-77931983D01*
X65721303Y-77841082D01*
X65692863Y-77753553D01*
X65651080Y-77671550D01*
X65596984Y-77597094D01*
X65596980Y-77597090D01*
X65596978Y-77597087D01*
X65531912Y-77532021D01*
X65531908Y-77532018D01*
X65531906Y-77532016D01*
X65457450Y-77477920D01*
X65375447Y-77436137D01*
X65375446Y-77436136D01*
X65375445Y-77436136D01*
X65287921Y-77407698D01*
X65287918Y-77407697D01*
X65197017Y-77393300D01*
X65104983Y-77393300D01*
X65014082Y-77407697D01*
X65014079Y-77407697D01*
X65014078Y-77407698D01*
X64926554Y-77436136D01*
X64844550Y-77477920D01*
X64770087Y-77532021D01*
X64705021Y-77597087D01*
X64650920Y-77671550D01*
X64609136Y-77753554D01*
X64580698Y-77841078D01*
X64580697Y-77841082D01*
X64566300Y-77931983D01*
X46449500Y-77931983D01*
X46449500Y-76357183D01*
X58546500Y-76357183D01*
X58546500Y-76449217D01*
X58560897Y-76540118D01*
X58560898Y-76540121D01*
X58574716Y-76582650D01*
X58589337Y-76627647D01*
X58631120Y-76709650D01*
X58685216Y-76784106D01*
X58685218Y-76784108D01*
X58685221Y-76784112D01*
X58750287Y-76849178D01*
X58750290Y-76849180D01*
X58750294Y-76849184D01*
X58824750Y-76903280D01*
X58906753Y-76945063D01*
X58994282Y-76973503D01*
X59085183Y-76987900D01*
X59085186Y-76987900D01*
X59177214Y-76987900D01*
X59177217Y-76987900D01*
X59268118Y-76973503D01*
X59355647Y-76945063D01*
X59437650Y-76903280D01*
X59512106Y-76849184D01*
X59577184Y-76784106D01*
X59631280Y-76709650D01*
X59673063Y-76627647D01*
X59701503Y-76540118D01*
X59715900Y-76449217D01*
X59715900Y-76357183D01*
X59701503Y-76266282D01*
X59689774Y-76230183D01*
X63245500Y-76230183D01*
X63245500Y-76322217D01*
X63259897Y-76413118D01*
X63288337Y-76500647D01*
X63330120Y-76582650D01*
X63384216Y-76657106D01*
X63384218Y-76657108D01*
X63384221Y-76657112D01*
X63449287Y-76722178D01*
X63449290Y-76722180D01*
X63449294Y-76722184D01*
X63523750Y-76776280D01*
X63605753Y-76818063D01*
X63693282Y-76846503D01*
X63784183Y-76860900D01*
X63784186Y-76860900D01*
X63876214Y-76860900D01*
X63876217Y-76860900D01*
X63967118Y-76846503D01*
X64054647Y-76818063D01*
X64136650Y-76776280D01*
X64211106Y-76722184D01*
X64276184Y-76657106D01*
X64330280Y-76582650D01*
X64372063Y-76500647D01*
X64400503Y-76413118D01*
X64414900Y-76322217D01*
X64414900Y-76244497D01*
X88603436Y-76244497D01*
X88603436Y-76336531D01*
X88617833Y-76427432D01*
X88646273Y-76514961D01*
X88688056Y-76596964D01*
X88742152Y-76671420D01*
X88742154Y-76671422D01*
X88742157Y-76671426D01*
X88807223Y-76736492D01*
X88807226Y-76736494D01*
X88807230Y-76736498D01*
X88881686Y-76790594D01*
X88963689Y-76832377D01*
X89051218Y-76860817D01*
X89142119Y-76875214D01*
X89142122Y-76875214D01*
X89234150Y-76875214D01*
X89234153Y-76875214D01*
X89325054Y-76860817D01*
X89412583Y-76832377D01*
X89494586Y-76790594D01*
X89569042Y-76736498D01*
X89634120Y-76671420D01*
X89688216Y-76596964D01*
X89729999Y-76514961D01*
X89758439Y-76427432D01*
X89772836Y-76336531D01*
X89772836Y-76269897D01*
X93023036Y-76269897D01*
X93023036Y-76361931D01*
X93037433Y-76452832D01*
X93065873Y-76540361D01*
X93107656Y-76622364D01*
X93161752Y-76696820D01*
X93161754Y-76696822D01*
X93161757Y-76696826D01*
X93226823Y-76761892D01*
X93226826Y-76761894D01*
X93226830Y-76761898D01*
X93301286Y-76815994D01*
X93383289Y-76857777D01*
X93470818Y-76886217D01*
X93561719Y-76900614D01*
X93561722Y-76900614D01*
X93653750Y-76900614D01*
X93653753Y-76900614D01*
X93744654Y-76886217D01*
X93832183Y-76857777D01*
X93914186Y-76815994D01*
X93988642Y-76761898D01*
X94053720Y-76696820D01*
X94107816Y-76622364D01*
X94149599Y-76540361D01*
X94178039Y-76452832D01*
X94192436Y-76361931D01*
X94192436Y-76269897D01*
X94178039Y-76178996D01*
X94149599Y-76091467D01*
X94107816Y-76009464D01*
X94053720Y-75935008D01*
X94053716Y-75935004D01*
X94053714Y-75935001D01*
X93988648Y-75869935D01*
X93988644Y-75869932D01*
X93988642Y-75869930D01*
X93914186Y-75815834D01*
X93832183Y-75774051D01*
X93832182Y-75774050D01*
X93832181Y-75774050D01*
X93744657Y-75745612D01*
X93744654Y-75745611D01*
X93653753Y-75731214D01*
X93561719Y-75731214D01*
X93470818Y-75745611D01*
X93470815Y-75745611D01*
X93470814Y-75745612D01*
X93383290Y-75774050D01*
X93301286Y-75815834D01*
X93226823Y-75869935D01*
X93161757Y-75935001D01*
X93107656Y-76009464D01*
X93065872Y-76091468D01*
X93037434Y-76178992D01*
X93037433Y-76178996D01*
X93023036Y-76269897D01*
X89772836Y-76269897D01*
X89772836Y-76244497D01*
X89758439Y-76153596D01*
X89729999Y-76066067D01*
X89688216Y-75984064D01*
X89634120Y-75909608D01*
X89634116Y-75909604D01*
X89634114Y-75909601D01*
X89569048Y-75844535D01*
X89569044Y-75844532D01*
X89569042Y-75844530D01*
X89494586Y-75790434D01*
X89412583Y-75748651D01*
X89412582Y-75748650D01*
X89412581Y-75748650D01*
X89325057Y-75720212D01*
X89325054Y-75720211D01*
X89234153Y-75705814D01*
X89142119Y-75705814D01*
X89051218Y-75720211D01*
X89051215Y-75720211D01*
X89051214Y-75720212D01*
X88963690Y-75748650D01*
X88881686Y-75790434D01*
X88807223Y-75844535D01*
X88742157Y-75909601D01*
X88688056Y-75984064D01*
X88646272Y-76066068D01*
X88636303Y-76096750D01*
X88617833Y-76153596D01*
X88603436Y-76244497D01*
X64414900Y-76244497D01*
X64414900Y-76230183D01*
X64400503Y-76139282D01*
X64372063Y-76051753D01*
X64330280Y-75969750D01*
X64276184Y-75895294D01*
X64276180Y-75895290D01*
X64276178Y-75895287D01*
X64211112Y-75830221D01*
X64211108Y-75830218D01*
X64211106Y-75830216D01*
X64136650Y-75776120D01*
X64054647Y-75734337D01*
X64054646Y-75734336D01*
X64054645Y-75734336D01*
X63967121Y-75705898D01*
X63967118Y-75705897D01*
X63876217Y-75691500D01*
X63784183Y-75691500D01*
X63693282Y-75705897D01*
X63693279Y-75705897D01*
X63693278Y-75705898D01*
X63605754Y-75734336D01*
X63523750Y-75776120D01*
X63449287Y-75830221D01*
X63384221Y-75895287D01*
X63330120Y-75969750D01*
X63288336Y-76051754D01*
X63259898Y-76139278D01*
X63259897Y-76139282D01*
X63245500Y-76230183D01*
X59689774Y-76230183D01*
X59673063Y-76178753D01*
X59631280Y-76096750D01*
X59577184Y-76022294D01*
X59577180Y-76022290D01*
X59577178Y-76022287D01*
X59512112Y-75957221D01*
X59512108Y-75957218D01*
X59512106Y-75957216D01*
X59437650Y-75903120D01*
X59355647Y-75861337D01*
X59355646Y-75861336D01*
X59355645Y-75861336D01*
X59268121Y-75832898D01*
X59268118Y-75832897D01*
X59177217Y-75818500D01*
X59085183Y-75818500D01*
X58994282Y-75832897D01*
X58994279Y-75832897D01*
X58994278Y-75832898D01*
X58906754Y-75861336D01*
X58824750Y-75903120D01*
X58750287Y-75957221D01*
X58685221Y-76022287D01*
X58631120Y-76096750D01*
X58589336Y-76178754D01*
X58572626Y-76230183D01*
X58560897Y-76266282D01*
X58546500Y-76357183D01*
X46449500Y-76357183D01*
X46449500Y-75424056D01*
X59805632Y-75424056D01*
X59821259Y-75433078D01*
X59821264Y-75433081D01*
X59921805Y-75474726D01*
X60026932Y-75502895D01*
X60134820Y-75517098D01*
X60134830Y-75517099D01*
X60243644Y-75517099D01*
X60243653Y-75517098D01*
X60351541Y-75502895D01*
X60456668Y-75474726D01*
X60557214Y-75433079D01*
X60559788Y-75431810D01*
X60601798Y-75419562D01*
X60645464Y-75422421D01*
X60663743Y-75428403D01*
X60717389Y-75450624D01*
X60819295Y-75477929D01*
X60819300Y-75477930D01*
X60923883Y-75491698D01*
X60923896Y-75491699D01*
X61029378Y-75491699D01*
X61029390Y-75491698D01*
X61133973Y-75477930D01*
X61133978Y-75477929D01*
X61235887Y-75450623D01*
X61333351Y-75410252D01*
X61341646Y-75405462D01*
X60799860Y-74863677D01*
X60799857Y-74863673D01*
X60603020Y-74666835D01*
X60824237Y-74666835D01*
X60824237Y-74706963D01*
X60834623Y-74745723D01*
X60854687Y-74780475D01*
X60883061Y-74808849D01*
X60917813Y-74828913D01*
X60956573Y-74839299D01*
X60996701Y-74839299D01*
X61035461Y-74828913D01*
X61070213Y-74808849D01*
X61098587Y-74780475D01*
X61118651Y-74745723D01*
X61129037Y-74706963D01*
X61129037Y-74666835D01*
X61118651Y-74628075D01*
X61098587Y-74593323D01*
X61070213Y-74564949D01*
X61035461Y-74544885D01*
X60996701Y-74534499D01*
X60956573Y-74534499D01*
X60917813Y-74544885D01*
X60883061Y-74564949D01*
X60854687Y-74593323D01*
X60834623Y-74628075D01*
X60824237Y-74666835D01*
X60603020Y-74666835D01*
X60582937Y-74646752D01*
X60366015Y-74863675D01*
X60366014Y-74863676D01*
X59805632Y-75424056D01*
X46449500Y-75424056D01*
X46449500Y-73867983D01*
X48513500Y-73867983D01*
X48513500Y-73960017D01*
X48527897Y-74050918D01*
X48527898Y-74050921D01*
X48553515Y-74129764D01*
X48556337Y-74138447D01*
X48598120Y-74220450D01*
X48652216Y-74294906D01*
X48652218Y-74294908D01*
X48652221Y-74294912D01*
X48717287Y-74359978D01*
X48717290Y-74359980D01*
X48717294Y-74359984D01*
X48791750Y-74414080D01*
X48873753Y-74455863D01*
X48961282Y-74484303D01*
X49052183Y-74498700D01*
X49052186Y-74498700D01*
X49144214Y-74498700D01*
X49144217Y-74498700D01*
X49235118Y-74484303D01*
X49322647Y-74455863D01*
X49404650Y-74414080D01*
X49479106Y-74359984D01*
X49544184Y-74294906D01*
X49577549Y-74248983D01*
X57581300Y-74248983D01*
X57581300Y-74341017D01*
X57595697Y-74431918D01*
X57595698Y-74431921D01*
X57621106Y-74510121D01*
X57624137Y-74519447D01*
X57665920Y-74601450D01*
X57720016Y-74675906D01*
X57720018Y-74675908D01*
X57720021Y-74675912D01*
X57785087Y-74740978D01*
X57785090Y-74740980D01*
X57785094Y-74740984D01*
X57859550Y-74795080D01*
X57941553Y-74836863D01*
X58029082Y-74865303D01*
X58119983Y-74879700D01*
X58119986Y-74879700D01*
X58212014Y-74879700D01*
X58212017Y-74879700D01*
X58302918Y-74865303D01*
X58390447Y-74836863D01*
X58472450Y-74795080D01*
X58546906Y-74740984D01*
X58611984Y-74675906D01*
X58643534Y-74632482D01*
X59359037Y-74632482D01*
X59359037Y-74741315D01*
X59373240Y-74849203D01*
X59401409Y-74954330D01*
X59443053Y-75054870D01*
X59443057Y-75054878D01*
X59452077Y-75070502D01*
X59452078Y-75070503D01*
X59855747Y-74666835D01*
X60036837Y-74666835D01*
X60036837Y-74706963D01*
X60047223Y-74745723D01*
X60067287Y-74780475D01*
X60095661Y-74808849D01*
X60130413Y-74828913D01*
X60169173Y-74839299D01*
X60209301Y-74839299D01*
X60248061Y-74828913D01*
X60282813Y-74808849D01*
X60311187Y-74780475D01*
X60331251Y-74745723D01*
X60341637Y-74706963D01*
X60341637Y-74666835D01*
X60331251Y-74628075D01*
X60311187Y-74593323D01*
X60282813Y-74564949D01*
X60248061Y-74544885D01*
X60209301Y-74534499D01*
X60169173Y-74534499D01*
X60130413Y-74544885D01*
X60095661Y-74564949D01*
X60067287Y-74593323D01*
X60047223Y-74628075D01*
X60036837Y-74666835D01*
X59855747Y-74666835D01*
X60012461Y-74510121D01*
X60201637Y-74320944D01*
X60964235Y-74320944D01*
X61153410Y-74510118D01*
X61153415Y-74510122D01*
X61695200Y-75051908D01*
X61699990Y-75043613D01*
X61740361Y-74946149D01*
X61767667Y-74844240D01*
X61767668Y-74844235D01*
X61781436Y-74739652D01*
X61781437Y-74739639D01*
X61781437Y-74634158D01*
X61781436Y-74634145D01*
X61767668Y-74529562D01*
X61767667Y-74529557D01*
X61740362Y-74427651D01*
X61704643Y-74341418D01*
X61695172Y-74298695D01*
X61700884Y-74255311D01*
X61704643Y-74244980D01*
X61740362Y-74158746D01*
X61767667Y-74056840D01*
X61767668Y-74056835D01*
X61781436Y-73952252D01*
X61781437Y-73952239D01*
X61781437Y-73846758D01*
X61781436Y-73846745D01*
X61767668Y-73742162D01*
X61767667Y-73742157D01*
X61761153Y-73717844D01*
X61753741Y-73690183D01*
X62610500Y-73690183D01*
X62610500Y-73782217D01*
X62624897Y-73873118D01*
X62624898Y-73873121D01*
X62646512Y-73939644D01*
X62653337Y-73960647D01*
X62684317Y-74021449D01*
X62697368Y-74047061D01*
X62696237Y-74047637D01*
X62708763Y-74079616D01*
X62709825Y-74123363D01*
X62696913Y-74161707D01*
X62697368Y-74161939D01*
X62653336Y-74248354D01*
X62624898Y-74335878D01*
X62624897Y-74335882D01*
X62610500Y-74426783D01*
X62610500Y-74518817D01*
X62624897Y-74609718D01*
X62624898Y-74609721D01*
X62643455Y-74666835D01*
X62653337Y-74697247D01*
X62695120Y-74779250D01*
X62749216Y-74853706D01*
X62749218Y-74853708D01*
X62749221Y-74853712D01*
X62814287Y-74918778D01*
X62814290Y-74918780D01*
X62814294Y-74918784D01*
X62888750Y-74972880D01*
X62970753Y-75014663D01*
X63058282Y-75043103D01*
X63149183Y-75057500D01*
X63149186Y-75057500D01*
X63241214Y-75057500D01*
X63241217Y-75057500D01*
X63332118Y-75043103D01*
X63419647Y-75014663D01*
X63501650Y-74972880D01*
X63576106Y-74918784D01*
X63641184Y-74853706D01*
X63695280Y-74779250D01*
X63737063Y-74697247D01*
X63765503Y-74609718D01*
X63779900Y-74518817D01*
X63779900Y-74426783D01*
X63765503Y-74335882D01*
X63737063Y-74248353D01*
X63695280Y-74166350D01*
X63695278Y-74166347D01*
X63693032Y-74161939D01*
X63694195Y-74161346D01*
X63681713Y-74129764D01*
X63680516Y-74086021D01*
X63693433Y-74047265D01*
X63693032Y-74047061D01*
X63695859Y-74041513D01*
X63737063Y-73960647D01*
X63765503Y-73873118D01*
X63779900Y-73782217D01*
X63779900Y-73690183D01*
X63765503Y-73599282D01*
X63737063Y-73511753D01*
X63695280Y-73429750D01*
X63641184Y-73355294D01*
X63641180Y-73355290D01*
X63641178Y-73355287D01*
X63576112Y-73290221D01*
X63576108Y-73290218D01*
X63576106Y-73290216D01*
X63501650Y-73236120D01*
X63419647Y-73194337D01*
X63419646Y-73194336D01*
X63419645Y-73194336D01*
X63332121Y-73165898D01*
X63332118Y-73165897D01*
X63241217Y-73151500D01*
X63149183Y-73151500D01*
X63058282Y-73165897D01*
X63058279Y-73165897D01*
X63058278Y-73165898D01*
X62970754Y-73194336D01*
X62888750Y-73236120D01*
X62814287Y-73290221D01*
X62749221Y-73355287D01*
X62695120Y-73429750D01*
X62653336Y-73511754D01*
X62624898Y-73599278D01*
X62624897Y-73599282D01*
X62610500Y-73690183D01*
X61753741Y-73690183D01*
X61740362Y-73640251D01*
X61699987Y-73542780D01*
X61695200Y-73534488D01*
X61153415Y-74076275D01*
X61153414Y-74076276D01*
X61021533Y-74208153D01*
X60964235Y-74320944D01*
X60201637Y-74320944D01*
X60229383Y-74293198D01*
X60012460Y-74076276D01*
X60013477Y-74075258D01*
X59992435Y-74050180D01*
X59977468Y-74009060D01*
X59977468Y-73965300D01*
X59992435Y-73924180D01*
X60012459Y-73898085D01*
X60038933Y-73871609D01*
X60036837Y-73879435D01*
X60036837Y-73919563D01*
X60047223Y-73958323D01*
X60067287Y-73993075D01*
X60095661Y-74021449D01*
X60130413Y-74041513D01*
X60169173Y-74051899D01*
X60209301Y-74051899D01*
X60248061Y-74041513D01*
X60282813Y-74021449D01*
X60311187Y-73993075D01*
X60331251Y-73958323D01*
X60341637Y-73919563D01*
X60341637Y-73879435D01*
X60331251Y-73840675D01*
X60311187Y-73805923D01*
X60282813Y-73777549D01*
X60248061Y-73757485D01*
X60209301Y-73747099D01*
X60169173Y-73747099D01*
X60130413Y-73757485D01*
X60095661Y-73777549D01*
X60067287Y-73805923D01*
X60051431Y-73833386D01*
X59491888Y-73531693D01*
X59470672Y-73534487D01*
X59465887Y-73542777D01*
X59425511Y-73640251D01*
X59398206Y-73742157D01*
X59398205Y-73742162D01*
X59384437Y-73846745D01*
X59384437Y-73952252D01*
X59398205Y-74056835D01*
X59398206Y-74056840D01*
X59425512Y-74158749D01*
X59447732Y-74212393D01*
X59457203Y-74255115D01*
X59451491Y-74298500D01*
X59444339Y-74316319D01*
X59443061Y-74318910D01*
X59401409Y-74419467D01*
X59373240Y-74524594D01*
X59359037Y-74632482D01*
X58643534Y-74632482D01*
X58666080Y-74601450D01*
X58707863Y-74519447D01*
X58736303Y-74431918D01*
X58750700Y-74341017D01*
X58750700Y-74248983D01*
X58736303Y-74158082D01*
X58707863Y-74070553D01*
X58666080Y-73988550D01*
X58611984Y-73914094D01*
X58611980Y-73914090D01*
X58611978Y-73914087D01*
X58546912Y-73849021D01*
X58546908Y-73849018D01*
X58546906Y-73849016D01*
X58472450Y-73794920D01*
X58390447Y-73753137D01*
X58390446Y-73753136D01*
X58390445Y-73753136D01*
X58302921Y-73724698D01*
X58302918Y-73724697D01*
X58212017Y-73710300D01*
X58119983Y-73710300D01*
X58029082Y-73724697D01*
X58029079Y-73724697D01*
X58029078Y-73724698D01*
X57941554Y-73753136D01*
X57859550Y-73794920D01*
X57785087Y-73849021D01*
X57720021Y-73914087D01*
X57665920Y-73988550D01*
X57624136Y-74070554D01*
X57595698Y-74158078D01*
X57595697Y-74158082D01*
X57581300Y-74248983D01*
X49577549Y-74248983D01*
X49598280Y-74220450D01*
X49640063Y-74138447D01*
X49668503Y-74050918D01*
X49682900Y-73960017D01*
X49682900Y-73867983D01*
X49668503Y-73777082D01*
X49640063Y-73689553D01*
X49598280Y-73607550D01*
X49544184Y-73533094D01*
X49544180Y-73533090D01*
X49544178Y-73533087D01*
X49479112Y-73468021D01*
X49479108Y-73468018D01*
X49479106Y-73468016D01*
X49404650Y-73413920D01*
X49322647Y-73372137D01*
X49322646Y-73372136D01*
X49322645Y-73372136D01*
X49241969Y-73345923D01*
X49241965Y-73345921D01*
X49235126Y-73343699D01*
X49235125Y-73343698D01*
X49218203Y-73341018D01*
X49144217Y-73329300D01*
X49052183Y-73329300D01*
X48961282Y-73343697D01*
X48961279Y-73343697D01*
X48961278Y-73343698D01*
X48873754Y-73372136D01*
X48791750Y-73413920D01*
X48717287Y-73468021D01*
X48652221Y-73533087D01*
X48598120Y-73607550D01*
X48556336Y-73689554D01*
X48535677Y-73753137D01*
X48527897Y-73777082D01*
X48513500Y-73867983D01*
X46449500Y-73867983D01*
X46449500Y-73180933D01*
X59824226Y-73180933D01*
X60366013Y-73722720D01*
X60366014Y-73722722D01*
X60582935Y-73939644D01*
X60643146Y-73879435D01*
X60824237Y-73879435D01*
X60824237Y-73919563D01*
X60834623Y-73958323D01*
X60854687Y-73993075D01*
X60883061Y-74021449D01*
X60917813Y-74041513D01*
X60956573Y-74051899D01*
X60996701Y-74051899D01*
X61035461Y-74041513D01*
X61070213Y-74021449D01*
X61098587Y-73993075D01*
X61118651Y-73958323D01*
X61129037Y-73919563D01*
X61129037Y-73879435D01*
X61118651Y-73840675D01*
X61098587Y-73805923D01*
X61070213Y-73777549D01*
X61035461Y-73757485D01*
X60996701Y-73747099D01*
X60956573Y-73747099D01*
X60917813Y-73757485D01*
X60883061Y-73777549D01*
X60854687Y-73805923D01*
X60834623Y-73840675D01*
X60824237Y-73879435D01*
X60643146Y-73879435D01*
X60690717Y-73831865D01*
X60799859Y-73722722D01*
X61341646Y-73180933D01*
X61333355Y-73176147D01*
X61333350Y-73176144D01*
X61235887Y-73135774D01*
X61133978Y-73108468D01*
X61133973Y-73108467D01*
X61029390Y-73094699D01*
X60923883Y-73094699D01*
X60819300Y-73108467D01*
X60819295Y-73108468D01*
X60717389Y-73135773D01*
X60631156Y-73171493D01*
X60588433Y-73180964D01*
X60545049Y-73175252D01*
X60534718Y-73171493D01*
X60448484Y-73135773D01*
X60346578Y-73108468D01*
X60346573Y-73108467D01*
X60241990Y-73094699D01*
X60136483Y-73094699D01*
X60031900Y-73108467D01*
X60031895Y-73108468D01*
X59929989Y-73135773D01*
X59832515Y-73176149D01*
X59824226Y-73180933D01*
X46449500Y-73180933D01*
X46449500Y-72699583D01*
X76097900Y-72699583D01*
X76097900Y-72791617D01*
X76112297Y-72882518D01*
X76140737Y-72970047D01*
X76182520Y-73052050D01*
X76236616Y-73126506D01*
X76236618Y-73126508D01*
X76236621Y-73126512D01*
X76301687Y-73191578D01*
X76301690Y-73191580D01*
X76301694Y-73191584D01*
X76376150Y-73245680D01*
X76458153Y-73287463D01*
X76545682Y-73315903D01*
X76636583Y-73330300D01*
X76636586Y-73330300D01*
X76728614Y-73330300D01*
X76728617Y-73330300D01*
X76819518Y-73315903D01*
X76907047Y-73287463D01*
X76989050Y-73245680D01*
X77063506Y-73191584D01*
X77128584Y-73126506D01*
X77182680Y-73052050D01*
X77224463Y-72970047D01*
X77252903Y-72882518D01*
X77267300Y-72791617D01*
X77267300Y-72699583D01*
X77252903Y-72608682D01*
X77224463Y-72521153D01*
X77182680Y-72439150D01*
X77128584Y-72364694D01*
X77128580Y-72364690D01*
X77128578Y-72364687D01*
X77063512Y-72299621D01*
X77063508Y-72299618D01*
X77063506Y-72299616D01*
X76989050Y-72245520D01*
X76907047Y-72203737D01*
X76907046Y-72203736D01*
X76907045Y-72203736D01*
X76819521Y-72175298D01*
X76819518Y-72175297D01*
X76728617Y-72160900D01*
X76636583Y-72160900D01*
X76545682Y-72175297D01*
X76545679Y-72175297D01*
X76545678Y-72175298D01*
X76458154Y-72203736D01*
X76376150Y-72245520D01*
X76301687Y-72299621D01*
X76236621Y-72364687D01*
X76182520Y-72439150D01*
X76140736Y-72521154D01*
X76112298Y-72608678D01*
X76112297Y-72608682D01*
X76097900Y-72699583D01*
X46449500Y-72699583D01*
X46449500Y-71901445D01*
X46457099Y-71858350D01*
X46478978Y-71820454D01*
X46512500Y-71792326D01*
X46553620Y-71777359D01*
X46597380Y-71777359D01*
X46610141Y-71780631D01*
X46610192Y-71780445D01*
X46734474Y-71813746D01*
X46857931Y-71829999D01*
X46857941Y-71830000D01*
X47070200Y-71830000D01*
X47070200Y-71180000D01*
X47570200Y-71180000D01*
X47570200Y-71830000D01*
X47782459Y-71830000D01*
X47782468Y-71829999D01*
X47905925Y-71813746D01*
X48026218Y-71781514D01*
X48026222Y-71781512D01*
X48141277Y-71733855D01*
X48141287Y-71733850D01*
X48249120Y-71671593D01*
X48249126Y-71671588D01*
X48347913Y-71595787D01*
X48347934Y-71595768D01*
X48435968Y-71507734D01*
X48435987Y-71507713D01*
X48511788Y-71408926D01*
X48511793Y-71408920D01*
X48574050Y-71301087D01*
X48574055Y-71301077D01*
X48621712Y-71186022D01*
X48621717Y-71186007D01*
X48636725Y-71130000D01*
X47886035Y-71130000D01*
X47911439Y-71113026D01*
X47953226Y-71071239D01*
X47986057Y-71022103D01*
X48008672Y-70967507D01*
X48020200Y-70909547D01*
X48020200Y-70850453D01*
X48008672Y-70792493D01*
X47986057Y-70737897D01*
X47953226Y-70688761D01*
X47911439Y-70646974D01*
X47886035Y-70630000D01*
X48636725Y-70630000D01*
X48636725Y-70629999D01*
X49033674Y-70629999D01*
X49033675Y-70630000D01*
X49784365Y-70630000D01*
X49758961Y-70646974D01*
X49717174Y-70688761D01*
X49684343Y-70737897D01*
X49661728Y-70792493D01*
X49650200Y-70850453D01*
X49650200Y-70909547D01*
X49661728Y-70967507D01*
X49684343Y-71022103D01*
X49717174Y-71071239D01*
X49758961Y-71113026D01*
X49784365Y-71130000D01*
X49033675Y-71130000D01*
X49048682Y-71186007D01*
X49048687Y-71186022D01*
X49096344Y-71301077D01*
X49096349Y-71301087D01*
X49158606Y-71408920D01*
X49158611Y-71408926D01*
X49234412Y-71507713D01*
X49234431Y-71507734D01*
X49322465Y-71595768D01*
X49322486Y-71595787D01*
X49421273Y-71671588D01*
X49421279Y-71671593D01*
X49529112Y-71733850D01*
X49529122Y-71733855D01*
X49644177Y-71781512D01*
X49644181Y-71781514D01*
X49764474Y-71813746D01*
X49887931Y-71829999D01*
X49887941Y-71830000D01*
X50450200Y-71830000D01*
X50450200Y-71180000D01*
X50950200Y-71180000D01*
X50950200Y-71830000D01*
X51512459Y-71830000D01*
X51512468Y-71829999D01*
X51635925Y-71813746D01*
X51756218Y-71781514D01*
X51756222Y-71781512D01*
X51871277Y-71733855D01*
X51871287Y-71733850D01*
X51979120Y-71671593D01*
X51979126Y-71671588D01*
X52077913Y-71595787D01*
X52077934Y-71595768D01*
X52142519Y-71531183D01*
X57022500Y-71531183D01*
X57022500Y-71623217D01*
X57036897Y-71714118D01*
X57036898Y-71714121D01*
X57058794Y-71781512D01*
X57065337Y-71801647D01*
X57107120Y-71883650D01*
X57161216Y-71958106D01*
X57161218Y-71958108D01*
X57161221Y-71958112D01*
X57226287Y-72023178D01*
X57226290Y-72023180D01*
X57226294Y-72023184D01*
X57300750Y-72077280D01*
X57382753Y-72119063D01*
X57470282Y-72147503D01*
X57561183Y-72161900D01*
X57561186Y-72161900D01*
X57653214Y-72161900D01*
X57653217Y-72161900D01*
X57744118Y-72147503D01*
X57831647Y-72119063D01*
X57913650Y-72077280D01*
X57988106Y-72023184D01*
X58053184Y-71958106D01*
X58107280Y-71883650D01*
X58149063Y-71801647D01*
X58177503Y-71714118D01*
X58191900Y-71623217D01*
X58191900Y-71531183D01*
X58177503Y-71440282D01*
X58149268Y-71353383D01*
X68477900Y-71353383D01*
X68477900Y-71445417D01*
X68492297Y-71536318D01*
X68492298Y-71536321D01*
X68511619Y-71595787D01*
X68520737Y-71623847D01*
X68562520Y-71705850D01*
X68616616Y-71780306D01*
X68616618Y-71780308D01*
X68616621Y-71780312D01*
X68681687Y-71845378D01*
X68681690Y-71845380D01*
X68681694Y-71845384D01*
X68756150Y-71899480D01*
X68838153Y-71941263D01*
X68925682Y-71969703D01*
X69016583Y-71984100D01*
X69016586Y-71984100D01*
X69108614Y-71984100D01*
X69108617Y-71984100D01*
X69199518Y-71969703D01*
X69287047Y-71941263D01*
X69369050Y-71899480D01*
X69443506Y-71845384D01*
X69508584Y-71780306D01*
X69562680Y-71705850D01*
X69604463Y-71623847D01*
X69632903Y-71536318D01*
X69647300Y-71445417D01*
X69647300Y-71353383D01*
X69632903Y-71262482D01*
X69604463Y-71174953D01*
X69562680Y-71092950D01*
X69508584Y-71018494D01*
X69508580Y-71018490D01*
X69508578Y-71018487D01*
X69443512Y-70953421D01*
X69443508Y-70953418D01*
X69443506Y-70953416D01*
X69369050Y-70899320D01*
X69287047Y-70857537D01*
X69287046Y-70857536D01*
X69287045Y-70857536D01*
X69199521Y-70829098D01*
X69199518Y-70829097D01*
X69108617Y-70814700D01*
X69016583Y-70814700D01*
X68925682Y-70829097D01*
X68925679Y-70829097D01*
X68925678Y-70829098D01*
X68838154Y-70857536D01*
X68756150Y-70899320D01*
X68681687Y-70953421D01*
X68616621Y-71018487D01*
X68562520Y-71092950D01*
X68520736Y-71174954D01*
X68492298Y-71262478D01*
X68492297Y-71262482D01*
X68477900Y-71353383D01*
X58149268Y-71353383D01*
X58149063Y-71352753D01*
X58107280Y-71270750D01*
X58053184Y-71196294D01*
X58053180Y-71196290D01*
X58053178Y-71196287D01*
X57988112Y-71131221D01*
X57988108Y-71131218D01*
X57988106Y-71131216D01*
X57913650Y-71077120D01*
X57831647Y-71035337D01*
X57831646Y-71035336D01*
X57831645Y-71035336D01*
X57744121Y-71006898D01*
X57744118Y-71006897D01*
X57653217Y-70992500D01*
X57561183Y-70992500D01*
X57470282Y-71006897D01*
X57470279Y-71006897D01*
X57470278Y-71006898D01*
X57382754Y-71035336D01*
X57300750Y-71077120D01*
X57226287Y-71131221D01*
X57161221Y-71196287D01*
X57107120Y-71270750D01*
X57065336Y-71352754D01*
X57047087Y-71408920D01*
X57036897Y-71440282D01*
X57022500Y-71531183D01*
X52142519Y-71531183D01*
X52165968Y-71507734D01*
X52165987Y-71507713D01*
X52210626Y-71449539D01*
X52210633Y-71449529D01*
X52241794Y-71408918D01*
X52304050Y-71301087D01*
X52304055Y-71301077D01*
X52351712Y-71186022D01*
X52351717Y-71186007D01*
X52366725Y-71130000D01*
X51616035Y-71130000D01*
X51641439Y-71113026D01*
X51683226Y-71071239D01*
X51716057Y-71022103D01*
X51738672Y-70967507D01*
X51750200Y-70909547D01*
X51750200Y-70850453D01*
X51738672Y-70792493D01*
X51716057Y-70737897D01*
X51683226Y-70688761D01*
X51641439Y-70646974D01*
X51616035Y-70630000D01*
X52366725Y-70630000D01*
X52366725Y-70629999D01*
X52351717Y-70573992D01*
X52351712Y-70573977D01*
X52304055Y-70458922D01*
X52304050Y-70458911D01*
X52242467Y-70352246D01*
X52180862Y-70344137D01*
X52180866Y-70344104D01*
X52163030Y-70342539D01*
X52123377Y-70324033D01*
X52106583Y-70309937D01*
X51680200Y-69883553D01*
X51680199Y-69883553D01*
X51253814Y-70309938D01*
X51217969Y-70335038D01*
X51175701Y-70346364D01*
X51132108Y-70342550D01*
X51092448Y-70324056D01*
X51075624Y-70309938D01*
X51005201Y-70239515D01*
X51005199Y-70239515D01*
X50934776Y-70309938D01*
X50898931Y-70335038D01*
X50856663Y-70346364D01*
X50813070Y-70342550D01*
X50773410Y-70324056D01*
X50756586Y-70309939D01*
X50153423Y-69706777D01*
X50153423Y-69706776D01*
X49950316Y-69503669D01*
X50130200Y-69503669D01*
X50130200Y-69556331D01*
X50143829Y-69607197D01*
X50170160Y-69652803D01*
X50207397Y-69690040D01*
X50253003Y-69716371D01*
X50303869Y-69730000D01*
X50356531Y-69730000D01*
X50407397Y-69716371D01*
X50453003Y-69690040D01*
X50490240Y-69652803D01*
X50516571Y-69607197D01*
X50530200Y-69556331D01*
X50530200Y-69503669D01*
X50516571Y-69452803D01*
X50490240Y-69407197D01*
X50453003Y-69369960D01*
X50407397Y-69343629D01*
X50356531Y-69330000D01*
X50303869Y-69330000D01*
X50253003Y-69343629D01*
X50207397Y-69369960D01*
X50170160Y-69407197D01*
X50143829Y-69452803D01*
X50130200Y-69503669D01*
X49950316Y-69503669D01*
X49793450Y-69346803D01*
X49793447Y-69346801D01*
X49578547Y-69131900D01*
X49566224Y-69153244D01*
X49566221Y-69153249D01*
X49523582Y-69256190D01*
X49494742Y-69363823D01*
X49480200Y-69474285D01*
X49480200Y-69585714D01*
X49494742Y-69696176D01*
X49523583Y-69803812D01*
X49556685Y-69883729D01*
X49566156Y-69926451D01*
X49560444Y-69969836D01*
X49540238Y-70008651D01*
X49507975Y-70038214D01*
X49503277Y-70041065D01*
X49421273Y-70088410D01*
X49421273Y-70088411D01*
X49322486Y-70164212D01*
X49322465Y-70164231D01*
X49234431Y-70252265D01*
X49234412Y-70252286D01*
X49158611Y-70351073D01*
X49158606Y-70351079D01*
X49096349Y-70458912D01*
X49096344Y-70458922D01*
X49048687Y-70573977D01*
X49048682Y-70573992D01*
X49033674Y-70629999D01*
X48636725Y-70629999D01*
X48621717Y-70573992D01*
X48621712Y-70573977D01*
X48574055Y-70458922D01*
X48574050Y-70458912D01*
X48511793Y-70351079D01*
X48511788Y-70351073D01*
X48435987Y-70252286D01*
X48435968Y-70252265D01*
X48347934Y-70164231D01*
X48347913Y-70164212D01*
X48249126Y-70088411D01*
X48249120Y-70088406D01*
X48141287Y-70026149D01*
X48141277Y-70026144D01*
X48026222Y-69978487D01*
X48026218Y-69978485D01*
X47905925Y-69946253D01*
X47782468Y-69930000D01*
X47570200Y-69930000D01*
X47570200Y-70580000D01*
X47070200Y-70580000D01*
X47070200Y-69930000D01*
X46857931Y-69930000D01*
X46734474Y-69946253D01*
X46610192Y-69979555D01*
X46609988Y-69978795D01*
X46572729Y-69984524D01*
X46529812Y-69975979D01*
X46492406Y-69953271D01*
X46465022Y-69919139D01*
X46450963Y-69877700D01*
X46449500Y-69858554D01*
X46449500Y-64382425D01*
X49725700Y-64382425D01*
X49725700Y-64477575D01*
X49734031Y-64530173D01*
X49740585Y-64571556D01*
X49746339Y-64589264D01*
X49767447Y-64654228D01*
X49769990Y-64662052D01*
X49813182Y-64746823D01*
X49813184Y-64746826D01*
X49837969Y-64780940D01*
X49857151Y-64820271D01*
X49861725Y-64863791D01*
X49851138Y-64906250D01*
X49837969Y-64929060D01*
X49813184Y-64963173D01*
X49813182Y-64963176D01*
X49769990Y-65047947D01*
X49740585Y-65138443D01*
X49740585Y-65138446D01*
X49725700Y-65232425D01*
X49725700Y-65327575D01*
X49731395Y-65363532D01*
X49740585Y-65421556D01*
X49769990Y-65512052D01*
X49813182Y-65596823D01*
X49813184Y-65596826D01*
X49837969Y-65630940D01*
X49857151Y-65670271D01*
X49861725Y-65713791D01*
X49851138Y-65756250D01*
X49837969Y-65779060D01*
X49813184Y-65813173D01*
X49813182Y-65813176D01*
X49769990Y-65897947D01*
X49740585Y-65988443D01*
X49740585Y-65988446D01*
X49725700Y-66082425D01*
X49725700Y-66177575D01*
X49735623Y-66240227D01*
X49740585Y-66271556D01*
X49769990Y-66362052D01*
X49813182Y-66446823D01*
X49813184Y-66446826D01*
X49837969Y-66480940D01*
X49857151Y-66520271D01*
X49861725Y-66563791D01*
X49851138Y-66606250D01*
X49837969Y-66629060D01*
X49813184Y-66663173D01*
X49813182Y-66663176D01*
X49769990Y-66747947D01*
X49740585Y-66838443D01*
X49740585Y-66838446D01*
X49725700Y-66932425D01*
X49725700Y-67027575D01*
X49735623Y-67090227D01*
X49740585Y-67121556D01*
X49769990Y-67212052D01*
X49813182Y-67296823D01*
X49813184Y-67296826D01*
X49837969Y-67330940D01*
X49857151Y-67370271D01*
X49861725Y-67413791D01*
X49851138Y-67456250D01*
X49837969Y-67479060D01*
X49813184Y-67513173D01*
X49813182Y-67513176D01*
X49769990Y-67597947D01*
X49740585Y-67688443D01*
X49740585Y-67688446D01*
X49725700Y-67782425D01*
X49725700Y-67877575D01*
X49735623Y-67940227D01*
X49740585Y-67971556D01*
X49769990Y-68062052D01*
X49813182Y-68146823D01*
X49813184Y-68146826D01*
X49837969Y-68180940D01*
X49857151Y-68220271D01*
X49861725Y-68263791D01*
X49851138Y-68306250D01*
X49837969Y-68329060D01*
X49813184Y-68363173D01*
X49813182Y-68363176D01*
X49769990Y-68447947D01*
X49740585Y-68538443D01*
X49740585Y-68538446D01*
X49725700Y-68632425D01*
X49725700Y-68727575D01*
X49735623Y-68790227D01*
X49740585Y-68821556D01*
X49769990Y-68912052D01*
X49807617Y-68985900D01*
X49813185Y-68996827D01*
X49869113Y-69073805D01*
X49936395Y-69141087D01*
X50013370Y-69197013D01*
X50013372Y-69197014D01*
X50013376Y-69197017D01*
X50098147Y-69240209D01*
X50098153Y-69240212D01*
X50188646Y-69269615D01*
X50282625Y-69284500D01*
X50282628Y-69284500D01*
X50377772Y-69284500D01*
X50377775Y-69284500D01*
X50471754Y-69269615D01*
X50562247Y-69240212D01*
X50647027Y-69197015D01*
X50703794Y-69155770D01*
X50743122Y-69136589D01*
X50786642Y-69132014D01*
X50829101Y-69142600D01*
X50865380Y-69167069D01*
X50891101Y-69202471D01*
X50903164Y-69244535D01*
X50900112Y-69288187D01*
X50882314Y-69328164D01*
X50866950Y-69346802D01*
X50683753Y-69529999D01*
X51005200Y-69851446D01*
X51005201Y-69851446D01*
X51326646Y-69530001D01*
X51326646Y-69529999D01*
X51300316Y-69503669D01*
X51480200Y-69503669D01*
X51480200Y-69556331D01*
X51493829Y-69607197D01*
X51520160Y-69652803D01*
X51557397Y-69690040D01*
X51603003Y-69716371D01*
X51653869Y-69730000D01*
X51706531Y-69730000D01*
X51757397Y-69716371D01*
X51803003Y-69690040D01*
X51840240Y-69652803D01*
X51866571Y-69607197D01*
X51880200Y-69556331D01*
X51880200Y-69529999D01*
X52033753Y-69529999D01*
X52033753Y-69530001D01*
X52431850Y-69928098D01*
X52431853Y-69928098D01*
X52444172Y-69906763D01*
X52444177Y-69906751D01*
X52486817Y-69803809D01*
X52515657Y-69696176D01*
X52530199Y-69585714D01*
X52530200Y-69585705D01*
X52530200Y-69524583D01*
X75056500Y-69524583D01*
X75056500Y-69616617D01*
X75070897Y-69707518D01*
X75099337Y-69795047D01*
X75141120Y-69877050D01*
X75195216Y-69951506D01*
X75195218Y-69951508D01*
X75195221Y-69951512D01*
X75260287Y-70016578D01*
X75260290Y-70016580D01*
X75260294Y-70016584D01*
X75334750Y-70070680D01*
X75416753Y-70112463D01*
X75504282Y-70140903D01*
X75595183Y-70155300D01*
X75595186Y-70155300D01*
X75687214Y-70155300D01*
X75687217Y-70155300D01*
X75778118Y-70140903D01*
X75865647Y-70112463D01*
X75947650Y-70070680D01*
X76022106Y-70016584D01*
X76087184Y-69951506D01*
X76141280Y-69877050D01*
X76183063Y-69795047D01*
X76211503Y-69707518D01*
X76225900Y-69616617D01*
X76225900Y-69524583D01*
X76211503Y-69433682D01*
X76183063Y-69346153D01*
X76141280Y-69264150D01*
X76087184Y-69189694D01*
X76087180Y-69189690D01*
X76087178Y-69189687D01*
X76022112Y-69124621D01*
X76022108Y-69124618D01*
X76022106Y-69124616D01*
X75947650Y-69070520D01*
X75865647Y-69028737D01*
X75865646Y-69028736D01*
X75865645Y-69028736D01*
X75778121Y-69000298D01*
X75778118Y-69000297D01*
X75687217Y-68985900D01*
X75595183Y-68985900D01*
X75504282Y-69000297D01*
X75504279Y-69000297D01*
X75504278Y-69000298D01*
X75416754Y-69028736D01*
X75334750Y-69070520D01*
X75260287Y-69124621D01*
X75195221Y-69189687D01*
X75141120Y-69264150D01*
X75099336Y-69346154D01*
X75070898Y-69433678D01*
X75070897Y-69433682D01*
X75056500Y-69524583D01*
X52530200Y-69524583D01*
X52530200Y-69474295D01*
X52530199Y-69474285D01*
X52515657Y-69363823D01*
X52486817Y-69256190D01*
X52444180Y-69153253D01*
X52444177Y-69153247D01*
X52431851Y-69131899D01*
X52347004Y-69216746D01*
X52347005Y-69216746D01*
X52033753Y-69529999D01*
X51880200Y-69529999D01*
X51880200Y-69503669D01*
X51866571Y-69452803D01*
X51840240Y-69407197D01*
X51803003Y-69369960D01*
X51757397Y-69343629D01*
X51706531Y-69330000D01*
X51653869Y-69330000D01*
X51603003Y-69343629D01*
X51557397Y-69369960D01*
X51520160Y-69407197D01*
X51493829Y-69452803D01*
X51480200Y-69503669D01*
X51300316Y-69503669D01*
X51143448Y-69346801D01*
X51118348Y-69310956D01*
X51107022Y-69268688D01*
X51110836Y-69225095D01*
X51129330Y-69185435D01*
X51160272Y-69154493D01*
X51199932Y-69135999D01*
X51243525Y-69132185D01*
X51285793Y-69143511D01*
X51306604Y-69155770D01*
X51363370Y-69197013D01*
X51363372Y-69197014D01*
X51363376Y-69197017D01*
X51448147Y-69240209D01*
X51448153Y-69240212D01*
X51538646Y-69269615D01*
X51632625Y-69284500D01*
X51632628Y-69284500D01*
X51727772Y-69284500D01*
X51727775Y-69284500D01*
X51821754Y-69269615D01*
X51912247Y-69240212D01*
X51997027Y-69197015D01*
X52074005Y-69141087D01*
X52141287Y-69073805D01*
X52197215Y-68996827D01*
X52240412Y-68912047D01*
X52269815Y-68821554D01*
X52284700Y-68727575D01*
X52284700Y-68632425D01*
X52269815Y-68538446D01*
X52240412Y-68447953D01*
X52197215Y-68363173D01*
X52172429Y-68329058D01*
X52153248Y-68289731D01*
X52148674Y-68246212D01*
X52159260Y-68203752D01*
X52172430Y-68180940D01*
X52197215Y-68146827D01*
X52240412Y-68062047D01*
X52269815Y-67971554D01*
X52284700Y-67877575D01*
X52284700Y-67782425D01*
X52269815Y-67688446D01*
X52240412Y-67597953D01*
X52197215Y-67513173D01*
X52172429Y-67479058D01*
X52153248Y-67439731D01*
X52148674Y-67396212D01*
X52159260Y-67353752D01*
X52172430Y-67330940D01*
X52197215Y-67296827D01*
X52240412Y-67212047D01*
X52269815Y-67121554D01*
X52284700Y-67027575D01*
X52284700Y-66932425D01*
X52269815Y-66838446D01*
X52240412Y-66747953D01*
X52197215Y-66663173D01*
X52172429Y-66629058D01*
X52153248Y-66589731D01*
X52148674Y-66546212D01*
X52159260Y-66503752D01*
X52172430Y-66480940D01*
X52197215Y-66446827D01*
X52240412Y-66362047D01*
X52255839Y-66314569D01*
X77394382Y-66314569D01*
X77395335Y-66315119D01*
X77489735Y-66354221D01*
X77588426Y-66380665D01*
X77689712Y-66393999D01*
X77689722Y-66394000D01*
X77791878Y-66394000D01*
X77791887Y-66393999D01*
X77893173Y-66380665D01*
X77991867Y-66354220D01*
X78086254Y-66315123D01*
X78086258Y-66315122D01*
X78087216Y-66314568D01*
X77740801Y-65968153D01*
X77740800Y-65968153D01*
X77394382Y-66314569D01*
X52255839Y-66314569D01*
X52269815Y-66271554D01*
X52271384Y-66261646D01*
X52273276Y-66249706D01*
X52273276Y-66249703D01*
X52284700Y-66177572D01*
X52284700Y-66082428D01*
X52284700Y-66082425D01*
X52269815Y-65988446D01*
X52240412Y-65897953D01*
X52197215Y-65813173D01*
X52172429Y-65779058D01*
X52153248Y-65739731D01*
X52148674Y-65696212D01*
X52159260Y-65653752D01*
X52164842Y-65642708D01*
X52168307Y-65636614D01*
X52197215Y-65596827D01*
X52214190Y-65563512D01*
X76961400Y-65563512D01*
X76961400Y-65665687D01*
X76974734Y-65766973D01*
X77001180Y-65865671D01*
X77040271Y-65960044D01*
X77040281Y-65960063D01*
X77040830Y-65961015D01*
X77040831Y-65961015D01*
X77387246Y-65614601D01*
X77387246Y-65614599D01*
X77367183Y-65594536D01*
X77588400Y-65594536D01*
X77588400Y-65634664D01*
X77598786Y-65673424D01*
X77618850Y-65708176D01*
X77647224Y-65736550D01*
X77681976Y-65756614D01*
X77720736Y-65767000D01*
X77760864Y-65767000D01*
X77799624Y-65756614D01*
X77834376Y-65736550D01*
X77862750Y-65708176D01*
X77882814Y-65673424D01*
X77893200Y-65634664D01*
X77893200Y-65614599D01*
X78094353Y-65614599D01*
X78094353Y-65614601D01*
X78440768Y-65961016D01*
X78441322Y-65960058D01*
X78441323Y-65960054D01*
X78480420Y-65865667D01*
X78506865Y-65766973D01*
X78520199Y-65665687D01*
X78520200Y-65665678D01*
X78520200Y-65563522D01*
X78520199Y-65563512D01*
X78506865Y-65462226D01*
X78480421Y-65363535D01*
X78441319Y-65269135D01*
X78440769Y-65268182D01*
X78094353Y-65614599D01*
X77893200Y-65614599D01*
X77893200Y-65594536D01*
X77882814Y-65555776D01*
X77862750Y-65521024D01*
X77834376Y-65492650D01*
X77799624Y-65472586D01*
X77760864Y-65462200D01*
X77720736Y-65462200D01*
X77681976Y-65472586D01*
X77647224Y-65492650D01*
X77618850Y-65521024D01*
X77598786Y-65555776D01*
X77588400Y-65594536D01*
X77367183Y-65594536D01*
X77040829Y-65268183D01*
X77040278Y-65269140D01*
X77040276Y-65269143D01*
X77001179Y-65363532D01*
X76974734Y-65462226D01*
X76961400Y-65563512D01*
X52214190Y-65563512D01*
X52240412Y-65512047D01*
X52269815Y-65421554D01*
X52284700Y-65327575D01*
X52284700Y-65232425D01*
X52269815Y-65138446D01*
X52240412Y-65047953D01*
X52197215Y-64963173D01*
X52172429Y-64929058D01*
X52153248Y-64889731D01*
X52148674Y-64846212D01*
X52159260Y-64803752D01*
X52172430Y-64780940D01*
X52197215Y-64746827D01*
X52240412Y-64662047D01*
X52269815Y-64571554D01*
X52284700Y-64477575D01*
X52284700Y-64469983D01*
X74116700Y-64469983D01*
X74116700Y-64562017D01*
X74131097Y-64652918D01*
X74159537Y-64740447D01*
X74201320Y-64822450D01*
X74255416Y-64896906D01*
X74255418Y-64896908D01*
X74255421Y-64896912D01*
X74320487Y-64961978D01*
X74320490Y-64961980D01*
X74320494Y-64961984D01*
X74394950Y-65016080D01*
X74476953Y-65057863D01*
X74564482Y-65086303D01*
X74655383Y-65100700D01*
X74655386Y-65100700D01*
X74747414Y-65100700D01*
X74747417Y-65100700D01*
X74838318Y-65086303D01*
X74925847Y-65057863D01*
X75007850Y-65016080D01*
X75082306Y-64961984D01*
X75129661Y-64914629D01*
X77394382Y-64914629D01*
X77740800Y-65261046D01*
X77740801Y-65261046D01*
X78087215Y-64914631D01*
X78087215Y-64914630D01*
X78086263Y-64914081D01*
X78086244Y-64914071D01*
X77991871Y-64874980D01*
X77893173Y-64848534D01*
X77791887Y-64835200D01*
X77689712Y-64835200D01*
X77588426Y-64848534D01*
X77489732Y-64874979D01*
X77395343Y-64914076D01*
X77395340Y-64914078D01*
X77394382Y-64914629D01*
X75129661Y-64914629D01*
X75147384Y-64896906D01*
X75201480Y-64822450D01*
X75243263Y-64740447D01*
X75271703Y-64652918D01*
X75286100Y-64562017D01*
X75286100Y-64530171D01*
X93684100Y-64530171D01*
X93684100Y-64654228D01*
X93697990Y-64777505D01*
X93725596Y-64898453D01*
X93766563Y-65015527D01*
X93766568Y-65015540D01*
X93817232Y-65120744D01*
X93820394Y-65127311D01*
X93886400Y-65232358D01*
X93963736Y-65329335D01*
X94051464Y-65417063D01*
X94148441Y-65494399D01*
X94148446Y-65494402D01*
X94148451Y-65494406D01*
X94253491Y-65560407D01*
X94365260Y-65614232D01*
X94366309Y-65614599D01*
X94482346Y-65655203D01*
X94482349Y-65655203D01*
X94482353Y-65655205D01*
X94603298Y-65682810D01*
X94705588Y-65694335D01*
X94726572Y-65696700D01*
X94726573Y-65696700D01*
X94850628Y-65696700D01*
X94868558Y-65694679D01*
X94973902Y-65682810D01*
X95094847Y-65655205D01*
X95099000Y-65653752D01*
X95153549Y-65634664D01*
X95211940Y-65614232D01*
X95323709Y-65560407D01*
X95428749Y-65494406D01*
X95437503Y-65487425D01*
X95525735Y-65417063D01*
X95613463Y-65329335D01*
X95690799Y-65232358D01*
X95690799Y-65232356D01*
X95690806Y-65232349D01*
X95756807Y-65127309D01*
X95810632Y-65015540D01*
X95851605Y-64898447D01*
X95879210Y-64777502D01*
X95892219Y-64662047D01*
X95893100Y-64654228D01*
X95893100Y-64530171D01*
X100684100Y-64530171D01*
X100684100Y-64654228D01*
X100697990Y-64777505D01*
X100725596Y-64898453D01*
X100766563Y-65015527D01*
X100766568Y-65015540D01*
X100817232Y-65120744D01*
X100820394Y-65127311D01*
X100886400Y-65232358D01*
X100963736Y-65329335D01*
X101051464Y-65417063D01*
X101148441Y-65494399D01*
X101148446Y-65494402D01*
X101148451Y-65494406D01*
X101253491Y-65560407D01*
X101365260Y-65614232D01*
X101366309Y-65614599D01*
X101482346Y-65655203D01*
X101482349Y-65655203D01*
X101482353Y-65655205D01*
X101603298Y-65682810D01*
X101705588Y-65694335D01*
X101726572Y-65696700D01*
X101726573Y-65696700D01*
X101850628Y-65696700D01*
X101868558Y-65694679D01*
X101973902Y-65682810D01*
X102094847Y-65655205D01*
X102099000Y-65653752D01*
X102153549Y-65634664D01*
X102211940Y-65614232D01*
X102323709Y-65560407D01*
X102428749Y-65494406D01*
X102437503Y-65487425D01*
X102525735Y-65417063D01*
X102613463Y-65329335D01*
X102690799Y-65232358D01*
X102690799Y-65232356D01*
X102690806Y-65232349D01*
X102756807Y-65127309D01*
X102810632Y-65015540D01*
X102851605Y-64898447D01*
X102879210Y-64777502D01*
X102892219Y-64662047D01*
X102893100Y-64654228D01*
X102893100Y-64530171D01*
X102889059Y-64494309D01*
X102879210Y-64406898D01*
X102851605Y-64285953D01*
X102810632Y-64168860D01*
X102756807Y-64057091D01*
X102690806Y-63952051D01*
X102690802Y-63952046D01*
X102690799Y-63952041D01*
X102613463Y-63855064D01*
X102525735Y-63767336D01*
X102428758Y-63690000D01*
X102428751Y-63689995D01*
X102428749Y-63689994D01*
X102342363Y-63635714D01*
X102323711Y-63623994D01*
X102211942Y-63570169D01*
X102211927Y-63570163D01*
X102094853Y-63529196D01*
X101973905Y-63501590D01*
X101850628Y-63487700D01*
X101850627Y-63487700D01*
X101726573Y-63487700D01*
X101726572Y-63487700D01*
X101603294Y-63501590D01*
X101482346Y-63529196D01*
X101365272Y-63570163D01*
X101365257Y-63570169D01*
X101253488Y-63623994D01*
X101148441Y-63690000D01*
X101051464Y-63767336D01*
X100963736Y-63855064D01*
X100886400Y-63952041D01*
X100820394Y-64057088D01*
X100766569Y-64168857D01*
X100766563Y-64168872D01*
X100725596Y-64285946D01*
X100697990Y-64406894D01*
X100684100Y-64530171D01*
X95893100Y-64530171D01*
X95889059Y-64494309D01*
X95879210Y-64406898D01*
X95851605Y-64285953D01*
X95810632Y-64168860D01*
X95756807Y-64057091D01*
X95690806Y-63952051D01*
X95690802Y-63952046D01*
X95690799Y-63952041D01*
X95613463Y-63855064D01*
X95525735Y-63767336D01*
X95428758Y-63690000D01*
X95428751Y-63689995D01*
X95428749Y-63689994D01*
X95342363Y-63635714D01*
X95323711Y-63623994D01*
X95211942Y-63570169D01*
X95211927Y-63570163D01*
X95094853Y-63529196D01*
X94973905Y-63501590D01*
X94850628Y-63487700D01*
X94850627Y-63487700D01*
X94726573Y-63487700D01*
X94726572Y-63487700D01*
X94603294Y-63501590D01*
X94482346Y-63529196D01*
X94365272Y-63570163D01*
X94365257Y-63570169D01*
X94253488Y-63623994D01*
X94148441Y-63690000D01*
X94051464Y-63767336D01*
X93963736Y-63855064D01*
X93886400Y-63952041D01*
X93820394Y-64057088D01*
X93766569Y-64168857D01*
X93766563Y-64168872D01*
X93725596Y-64285946D01*
X93697990Y-64406894D01*
X93684100Y-64530171D01*
X75286100Y-64530171D01*
X75286100Y-64469983D01*
X75271703Y-64379082D01*
X75243263Y-64291553D01*
X75201480Y-64209550D01*
X75147384Y-64135094D01*
X75147380Y-64135090D01*
X75147378Y-64135087D01*
X75082312Y-64070021D01*
X75082308Y-64070018D01*
X75082306Y-64070016D01*
X75007850Y-64015920D01*
X74925847Y-63974137D01*
X74925846Y-63974136D01*
X74925845Y-63974136D01*
X74838321Y-63945698D01*
X74838318Y-63945697D01*
X74747417Y-63931300D01*
X74655383Y-63931300D01*
X74564482Y-63945697D01*
X74564479Y-63945697D01*
X74564478Y-63945698D01*
X74476954Y-63974136D01*
X74394950Y-64015920D01*
X74320487Y-64070021D01*
X74255421Y-64135087D01*
X74201320Y-64209550D01*
X74159536Y-64291554D01*
X74131098Y-64379078D01*
X74131097Y-64379082D01*
X74116700Y-64469983D01*
X52284700Y-64469983D01*
X52284700Y-64382425D01*
X52269815Y-64288446D01*
X52240412Y-64197953D01*
X52197215Y-64113173D01*
X52141287Y-64036195D01*
X52074005Y-63968913D01*
X52042052Y-63945698D01*
X51997027Y-63912985D01*
X51997023Y-63912982D01*
X51912252Y-63869790D01*
X51912249Y-63869789D01*
X51912247Y-63869788D01*
X51879116Y-63859023D01*
X51821756Y-63840385D01*
X51784162Y-63834431D01*
X51727775Y-63825500D01*
X51632625Y-63825500D01*
X51585635Y-63832942D01*
X51538643Y-63840385D01*
X51448147Y-63869790D01*
X51363376Y-63912982D01*
X51363371Y-63912985D01*
X51306602Y-63954231D01*
X51267271Y-63973414D01*
X51223751Y-63977988D01*
X51181292Y-63967402D01*
X51145014Y-63942931D01*
X51119293Y-63907529D01*
X51107231Y-63865465D01*
X51110284Y-63821812D01*
X51128083Y-63781836D01*
X51143446Y-63763199D01*
X51326646Y-63579999D01*
X51300316Y-63553669D01*
X51480200Y-63553669D01*
X51480200Y-63606331D01*
X51493829Y-63657197D01*
X51520160Y-63702803D01*
X51557397Y-63740040D01*
X51603003Y-63766371D01*
X51653869Y-63780000D01*
X51706531Y-63780000D01*
X51757397Y-63766371D01*
X51803003Y-63740040D01*
X51840240Y-63702803D01*
X51866571Y-63657197D01*
X51880200Y-63606331D01*
X51880200Y-63579999D01*
X52033753Y-63579999D01*
X52033753Y-63580001D01*
X52431850Y-63978098D01*
X52431853Y-63978098D01*
X52444172Y-63956763D01*
X52444177Y-63956751D01*
X52486817Y-63853809D01*
X52515657Y-63746176D01*
X52527373Y-63657183D01*
X80949300Y-63657183D01*
X80949300Y-63749217D01*
X80963697Y-63840118D01*
X80963698Y-63840121D01*
X80991135Y-63924565D01*
X80992137Y-63927647D01*
X81033920Y-64009650D01*
X81088016Y-64084106D01*
X81088018Y-64084108D01*
X81088021Y-64084112D01*
X81153087Y-64149178D01*
X81153090Y-64149180D01*
X81153094Y-64149184D01*
X81227550Y-64203280D01*
X81309553Y-64245063D01*
X81397082Y-64273503D01*
X81487983Y-64287900D01*
X81487986Y-64287900D01*
X81580014Y-64287900D01*
X81580017Y-64287900D01*
X81670918Y-64273503D01*
X81758447Y-64245063D01*
X81840450Y-64203280D01*
X81914906Y-64149184D01*
X81979984Y-64084106D01*
X82034080Y-64009650D01*
X82075863Y-63927647D01*
X82104303Y-63840118D01*
X82118700Y-63749217D01*
X82118700Y-63657183D01*
X82104303Y-63566282D01*
X82075863Y-63478753D01*
X82034080Y-63396750D01*
X81979984Y-63322294D01*
X81979980Y-63322290D01*
X81979978Y-63322287D01*
X81914912Y-63257221D01*
X81914908Y-63257218D01*
X81914906Y-63257216D01*
X81840450Y-63203120D01*
X81758447Y-63161337D01*
X81758446Y-63161336D01*
X81758445Y-63161336D01*
X81670921Y-63132898D01*
X81670918Y-63132897D01*
X81580017Y-63118500D01*
X81487983Y-63118500D01*
X81397082Y-63132897D01*
X81397079Y-63132897D01*
X81397078Y-63132898D01*
X81309554Y-63161336D01*
X81227550Y-63203120D01*
X81153087Y-63257221D01*
X81088021Y-63322287D01*
X81033920Y-63396750D01*
X80992136Y-63478754D01*
X80977339Y-63524295D01*
X80963697Y-63566282D01*
X80949300Y-63657183D01*
X52527373Y-63657183D01*
X52530190Y-63635787D01*
X52530199Y-63635713D01*
X52530200Y-63635705D01*
X52530200Y-63524295D01*
X52530199Y-63524285D01*
X52515657Y-63413823D01*
X52486817Y-63306190D01*
X52444180Y-63203253D01*
X52444177Y-63203247D01*
X52431851Y-63181900D01*
X52033753Y-63579999D01*
X51880200Y-63579999D01*
X51880200Y-63553669D01*
X51866571Y-63502803D01*
X51840240Y-63457197D01*
X51803003Y-63419960D01*
X51757397Y-63393629D01*
X51706531Y-63380000D01*
X51653869Y-63380000D01*
X51603003Y-63393629D01*
X51557397Y-63419960D01*
X51520160Y-63457197D01*
X51493829Y-63502803D01*
X51480200Y-63553669D01*
X51300316Y-63553669D01*
X51005200Y-63258553D01*
X51005199Y-63258553D01*
X50683753Y-63579999D01*
X50683753Y-63580001D01*
X50866951Y-63763199D01*
X50892051Y-63799044D01*
X50903377Y-63841312D01*
X50899563Y-63884905D01*
X50881069Y-63924565D01*
X50850127Y-63955507D01*
X50810467Y-63974001D01*
X50766874Y-63977815D01*
X50724606Y-63966489D01*
X50703794Y-63954229D01*
X50700796Y-63952051D01*
X50686053Y-63941339D01*
X50647029Y-63912986D01*
X50647023Y-63912982D01*
X50562252Y-63869790D01*
X50562249Y-63869789D01*
X50562247Y-63869788D01*
X50529116Y-63859023D01*
X50471756Y-63840385D01*
X50434162Y-63834431D01*
X50377775Y-63825500D01*
X50282625Y-63825500D01*
X50235635Y-63832942D01*
X50188643Y-63840385D01*
X50098147Y-63869790D01*
X50013376Y-63912982D01*
X50013371Y-63912985D01*
X49966963Y-63946703D01*
X49966960Y-63946705D01*
X49936395Y-63968913D01*
X49869113Y-64036195D01*
X49813185Y-64113173D01*
X49810903Y-64117651D01*
X49810900Y-64117655D01*
X49769990Y-64197947D01*
X49740585Y-64288443D01*
X49733142Y-64335435D01*
X49725700Y-64382425D01*
X46449500Y-64382425D01*
X46449500Y-63251445D01*
X46457099Y-63208350D01*
X46478978Y-63170454D01*
X46512500Y-63142326D01*
X46553620Y-63127359D01*
X46597380Y-63127359D01*
X46610141Y-63130631D01*
X46610192Y-63130445D01*
X46734474Y-63163746D01*
X46857931Y-63179999D01*
X46857941Y-63180000D01*
X47070200Y-63180000D01*
X47070200Y-62530000D01*
X47570200Y-62530000D01*
X47570200Y-63180000D01*
X47782459Y-63180000D01*
X47782468Y-63179999D01*
X47905925Y-63163746D01*
X48026218Y-63131514D01*
X48026222Y-63131512D01*
X48141277Y-63083855D01*
X48141287Y-63083850D01*
X48249120Y-63021593D01*
X48249126Y-63021588D01*
X48347913Y-62945787D01*
X48347934Y-62945768D01*
X48435968Y-62857734D01*
X48435987Y-62857713D01*
X48511788Y-62758926D01*
X48511793Y-62758920D01*
X48574050Y-62651087D01*
X48574055Y-62651077D01*
X48621712Y-62536022D01*
X48621717Y-62536007D01*
X48636725Y-62480000D01*
X47886035Y-62480000D01*
X47911439Y-62463026D01*
X47953226Y-62421239D01*
X47986057Y-62372103D01*
X48008672Y-62317507D01*
X48020200Y-62259547D01*
X48020200Y-62200453D01*
X48008672Y-62142493D01*
X47986057Y-62087897D01*
X47953226Y-62038761D01*
X47911439Y-61996974D01*
X47886035Y-61980000D01*
X48636725Y-61980000D01*
X48636725Y-61979999D01*
X49033674Y-61979999D01*
X49033675Y-61980000D01*
X49784365Y-61980000D01*
X49758961Y-61996974D01*
X49717174Y-62038761D01*
X49684343Y-62087897D01*
X49661728Y-62142493D01*
X49650200Y-62200453D01*
X49650200Y-62259547D01*
X49661728Y-62317507D01*
X49684343Y-62372103D01*
X49717174Y-62421239D01*
X49758961Y-62463026D01*
X49784365Y-62480000D01*
X49033675Y-62480000D01*
X49048682Y-62536007D01*
X49048687Y-62536022D01*
X49096344Y-62651077D01*
X49096349Y-62651087D01*
X49158606Y-62758920D01*
X49158611Y-62758926D01*
X49234412Y-62857713D01*
X49234431Y-62857734D01*
X49322465Y-62945768D01*
X49322486Y-62945787D01*
X49421273Y-63021588D01*
X49421279Y-63021593D01*
X49503276Y-63068934D01*
X49536798Y-63097062D01*
X49558677Y-63134958D01*
X49566276Y-63178053D01*
X49558677Y-63221148D01*
X49556685Y-63226270D01*
X49523583Y-63306187D01*
X49494742Y-63413823D01*
X49480200Y-63524285D01*
X49480200Y-63635714D01*
X49494742Y-63746176D01*
X49523582Y-63853809D01*
X49566221Y-63956750D01*
X49566229Y-63956765D01*
X49578546Y-63978098D01*
X49663399Y-63893246D01*
X49663400Y-63893246D01*
X49793439Y-63763206D01*
X49793444Y-63763201D01*
X50002975Y-63553669D01*
X50130200Y-63553669D01*
X50130200Y-63606331D01*
X50143829Y-63657197D01*
X50170160Y-63702803D01*
X50207397Y-63740040D01*
X50253003Y-63766371D01*
X50303869Y-63780000D01*
X50356531Y-63780000D01*
X50407397Y-63766371D01*
X50453003Y-63740040D01*
X50490240Y-63702803D01*
X50516571Y-63657197D01*
X50530200Y-63606331D01*
X50530200Y-63553669D01*
X50516571Y-63502803D01*
X50490240Y-63457197D01*
X50453003Y-63419960D01*
X50407397Y-63393629D01*
X50356531Y-63380000D01*
X50303869Y-63380000D01*
X50253003Y-63393629D01*
X50207397Y-63419960D01*
X50170160Y-63457197D01*
X50143829Y-63502803D01*
X50130200Y-63553669D01*
X50002975Y-63553669D01*
X50153421Y-63403223D01*
X50153431Y-63403215D01*
X50756586Y-62800061D01*
X50792431Y-62774961D01*
X50834699Y-62763635D01*
X50878292Y-62767449D01*
X50917952Y-62785943D01*
X50934776Y-62800061D01*
X51005199Y-62870484D01*
X51005200Y-62870484D01*
X51075622Y-62800061D01*
X51111468Y-62774961D01*
X51153736Y-62763636D01*
X51197329Y-62767449D01*
X51236988Y-62785943D01*
X51253813Y-62800060D01*
X51680199Y-63226445D01*
X52106584Y-62800061D01*
X52142430Y-62774961D01*
X52184698Y-62763635D01*
X52192556Y-62764322D01*
X52242467Y-62757752D01*
X52304053Y-62651081D01*
X52304058Y-62651072D01*
X52351712Y-62536022D01*
X52351717Y-62536007D01*
X52366725Y-62480000D01*
X51616035Y-62480000D01*
X51641439Y-62463026D01*
X51683226Y-62421239D01*
X51716057Y-62372103D01*
X51738672Y-62317507D01*
X51750200Y-62259547D01*
X51750200Y-62200453D01*
X51738672Y-62142493D01*
X51716057Y-62087897D01*
X51683226Y-62038761D01*
X51641439Y-61996974D01*
X51616035Y-61980000D01*
X52366725Y-61980000D01*
X52366725Y-61979999D01*
X52351717Y-61923992D01*
X52351712Y-61923977D01*
X52304055Y-61808922D01*
X52304050Y-61808912D01*
X52241793Y-61701079D01*
X52241788Y-61701073D01*
X52165987Y-61602286D01*
X52165968Y-61602265D01*
X52077934Y-61514231D01*
X52077913Y-61514212D01*
X51979126Y-61438411D01*
X51979120Y-61438406D01*
X51871287Y-61376149D01*
X51871277Y-61376144D01*
X51756222Y-61328487D01*
X51756218Y-61328485D01*
X51635925Y-61296253D01*
X51512468Y-61280000D01*
X50950200Y-61280000D01*
X50950200Y-61930000D01*
X50450200Y-61930000D01*
X50450200Y-61280000D01*
X49887931Y-61280000D01*
X49764474Y-61296253D01*
X49644181Y-61328485D01*
X49644177Y-61328487D01*
X49529122Y-61376144D01*
X49529112Y-61376149D01*
X49421279Y-61438406D01*
X49421273Y-61438411D01*
X49322486Y-61514212D01*
X49322465Y-61514231D01*
X49234431Y-61602265D01*
X49234412Y-61602286D01*
X49158611Y-61701073D01*
X49158606Y-61701079D01*
X49096349Y-61808912D01*
X49096344Y-61808922D01*
X49048687Y-61923977D01*
X49048682Y-61923992D01*
X49033674Y-61979999D01*
X48636725Y-61979999D01*
X48621717Y-61923992D01*
X48621712Y-61923977D01*
X48574055Y-61808922D01*
X48574050Y-61808912D01*
X48511793Y-61701079D01*
X48511788Y-61701073D01*
X48435987Y-61602286D01*
X48435968Y-61602265D01*
X48347934Y-61514231D01*
X48347913Y-61514212D01*
X48249126Y-61438411D01*
X48249120Y-61438406D01*
X48141287Y-61376149D01*
X48141277Y-61376144D01*
X48026222Y-61328487D01*
X48026218Y-61328485D01*
X47905925Y-61296253D01*
X47782468Y-61280000D01*
X47570200Y-61280000D01*
X47570200Y-61930000D01*
X47070200Y-61930000D01*
X47070200Y-61280000D01*
X46857931Y-61280000D01*
X46734474Y-61296253D01*
X46610192Y-61329555D01*
X46609988Y-61328795D01*
X46572729Y-61334524D01*
X46529812Y-61325979D01*
X46492406Y-61303271D01*
X46465022Y-61269139D01*
X46450963Y-61227700D01*
X46449500Y-61208554D01*
X46449500Y-61015583D01*
X75869300Y-61015583D01*
X75869300Y-61107617D01*
X75883697Y-61198518D01*
X75912137Y-61286047D01*
X75953920Y-61368050D01*
X76008016Y-61442506D01*
X76008018Y-61442508D01*
X76008021Y-61442512D01*
X76073087Y-61507578D01*
X76073090Y-61507580D01*
X76073094Y-61507584D01*
X76147550Y-61561680D01*
X76229553Y-61603463D01*
X76317082Y-61631903D01*
X76407983Y-61646300D01*
X76407986Y-61646300D01*
X76500014Y-61646300D01*
X76500017Y-61646300D01*
X76590918Y-61631903D01*
X76678447Y-61603463D01*
X76760450Y-61561680D01*
X76834906Y-61507584D01*
X76899984Y-61442506D01*
X76954080Y-61368050D01*
X76995863Y-61286047D01*
X77024303Y-61198518D01*
X77038700Y-61107617D01*
X77038700Y-61015583D01*
X77024303Y-60924682D01*
X76995863Y-60837153D01*
X76954080Y-60755150D01*
X76899984Y-60680694D01*
X76899980Y-60680690D01*
X76899978Y-60680687D01*
X76834912Y-60615621D01*
X76834908Y-60615618D01*
X76834906Y-60615616D01*
X76760450Y-60561520D01*
X76678447Y-60519737D01*
X76678446Y-60519736D01*
X76678445Y-60519736D01*
X76590921Y-60491298D01*
X76590918Y-60491297D01*
X76500017Y-60476900D01*
X76407983Y-60476900D01*
X76317082Y-60491297D01*
X76317079Y-60491297D01*
X76317078Y-60491298D01*
X76229554Y-60519736D01*
X76147550Y-60561520D01*
X76073087Y-60615621D01*
X76008021Y-60680687D01*
X75953920Y-60755150D01*
X75912136Y-60837154D01*
X75883698Y-60924678D01*
X75883697Y-60924682D01*
X75869300Y-61015583D01*
X46449500Y-61015583D01*
X46449500Y-56697583D01*
X77418700Y-56697583D01*
X77418700Y-56789617D01*
X77433097Y-56880518D01*
X77461537Y-56968047D01*
X77503320Y-57050050D01*
X77557416Y-57124506D01*
X77557418Y-57124508D01*
X77557421Y-57124512D01*
X77622487Y-57189578D01*
X77622490Y-57189580D01*
X77622494Y-57189584D01*
X77696950Y-57243680D01*
X77778953Y-57285463D01*
X77866482Y-57313903D01*
X77957383Y-57328300D01*
X77957386Y-57328300D01*
X78049414Y-57328300D01*
X78049417Y-57328300D01*
X78140318Y-57313903D01*
X78227847Y-57285463D01*
X78309850Y-57243680D01*
X78384306Y-57189584D01*
X78449384Y-57124506D01*
X78503480Y-57050050D01*
X78545263Y-56968047D01*
X78573703Y-56880518D01*
X78588100Y-56789617D01*
X78588100Y-56697583D01*
X78573703Y-56606682D01*
X78545263Y-56519153D01*
X78503480Y-56437150D01*
X78449384Y-56362694D01*
X78449380Y-56362690D01*
X78449378Y-56362687D01*
X78384312Y-56297621D01*
X78384308Y-56297618D01*
X78384306Y-56297616D01*
X78309850Y-56243520D01*
X78227847Y-56201737D01*
X78227846Y-56201736D01*
X78227845Y-56201736D01*
X78140321Y-56173298D01*
X78140318Y-56173297D01*
X78049417Y-56158900D01*
X77957383Y-56158900D01*
X77866482Y-56173297D01*
X77866479Y-56173297D01*
X77866478Y-56173298D01*
X77778954Y-56201736D01*
X77696950Y-56243520D01*
X77622487Y-56297621D01*
X77557421Y-56362687D01*
X77503320Y-56437150D01*
X77461536Y-56519154D01*
X77433098Y-56606678D01*
X77433097Y-56606682D01*
X77418700Y-56697583D01*
X46449500Y-56697583D01*
X46449500Y-53577920D01*
X48889300Y-53577920D01*
X48889300Y-53702079D01*
X48903201Y-53825457D01*
X48930829Y-53946502D01*
X48971827Y-54063667D01*
X48971838Y-54063694D01*
X49025700Y-54175540D01*
X49025700Y-54175541D01*
X49091764Y-54280680D01*
X49169163Y-54377736D01*
X49256963Y-54465536D01*
X49354019Y-54542935D01*
X49354024Y-54542938D01*
X49354029Y-54542942D01*
X49444620Y-54599864D01*
X49459158Y-54608999D01*
X49543138Y-54649441D01*
X49571015Y-54662866D01*
X49571031Y-54662871D01*
X49571032Y-54662872D01*
X49688197Y-54703870D01*
X49688200Y-54703870D01*
X49688204Y-54703872D01*
X49777794Y-54724320D01*
X49809242Y-54731498D01*
X49809243Y-54731498D01*
X49809247Y-54731499D01*
X49907313Y-54742548D01*
X49932621Y-54745400D01*
X49932622Y-54745400D01*
X50056779Y-54745400D01*
X50077778Y-54743033D01*
X50180153Y-54731499D01*
X50301196Y-54703872D01*
X50418385Y-54662866D01*
X50530245Y-54608997D01*
X50635371Y-54542942D01*
X50635380Y-54542935D01*
X50732436Y-54465536D01*
X50820236Y-54377736D01*
X50897635Y-54280680D01*
X50897635Y-54280678D01*
X50897642Y-54280671D01*
X50963697Y-54175545D01*
X51017566Y-54063685D01*
X51058572Y-53946496D01*
X51086199Y-53825453D01*
X51100100Y-53702078D01*
X51100100Y-53577922D01*
X51100100Y-53577920D01*
X55889300Y-53577920D01*
X55889300Y-53702079D01*
X55903201Y-53825457D01*
X55930829Y-53946502D01*
X55971827Y-54063667D01*
X55971838Y-54063694D01*
X56025700Y-54175540D01*
X56025700Y-54175541D01*
X56091764Y-54280680D01*
X56169163Y-54377736D01*
X56256963Y-54465536D01*
X56354019Y-54542935D01*
X56354024Y-54542938D01*
X56354029Y-54542942D01*
X56444620Y-54599864D01*
X56459158Y-54608999D01*
X56543138Y-54649441D01*
X56571015Y-54662866D01*
X56571031Y-54662871D01*
X56571032Y-54662872D01*
X56688197Y-54703870D01*
X56688200Y-54703870D01*
X56688204Y-54703872D01*
X56777794Y-54724320D01*
X56809242Y-54731498D01*
X56809243Y-54731498D01*
X56809247Y-54731499D01*
X56907313Y-54742548D01*
X56932621Y-54745400D01*
X56932622Y-54745400D01*
X57056779Y-54745400D01*
X57077778Y-54743033D01*
X57180153Y-54731499D01*
X57301196Y-54703872D01*
X57418385Y-54662866D01*
X57530245Y-54608997D01*
X57635371Y-54542942D01*
X57635380Y-54542935D01*
X57732436Y-54465536D01*
X57820236Y-54377736D01*
X57897635Y-54280680D01*
X57897635Y-54280678D01*
X57897642Y-54280671D01*
X57963697Y-54175545D01*
X58017566Y-54063685D01*
X58058572Y-53946496D01*
X58086199Y-53825453D01*
X58100100Y-53702078D01*
X58100100Y-53577922D01*
X58086199Y-53454547D01*
X58058572Y-53333504D01*
X58017566Y-53216315D01*
X57963699Y-53104459D01*
X57963699Y-53104458D01*
X57954564Y-53089920D01*
X57897642Y-52999329D01*
X57897638Y-52999324D01*
X57897635Y-52999319D01*
X57820236Y-52902263D01*
X57732436Y-52814463D01*
X57635380Y-52737064D01*
X57635373Y-52737059D01*
X57635371Y-52737058D01*
X57591768Y-52709660D01*
X57530241Y-52671000D01*
X57418394Y-52617138D01*
X57418389Y-52617136D01*
X57418385Y-52617134D01*
X57418379Y-52617131D01*
X57418367Y-52617127D01*
X57301202Y-52576129D01*
X57180157Y-52548501D01*
X57056779Y-52534600D01*
X57056778Y-52534600D01*
X56932622Y-52534600D01*
X56932621Y-52534600D01*
X56809242Y-52548501D01*
X56688197Y-52576129D01*
X56571032Y-52617127D01*
X56571005Y-52617138D01*
X56459159Y-52671000D01*
X56459158Y-52671000D01*
X56354019Y-52737064D01*
X56256963Y-52814463D01*
X56169163Y-52902263D01*
X56091764Y-52999319D01*
X56025700Y-53104458D01*
X56025700Y-53104459D01*
X55971838Y-53216305D01*
X55971827Y-53216332D01*
X55930829Y-53333497D01*
X55903201Y-53454542D01*
X55889300Y-53577920D01*
X51100100Y-53577920D01*
X51086199Y-53454547D01*
X51058572Y-53333504D01*
X51017566Y-53216315D01*
X50963699Y-53104459D01*
X50963699Y-53104458D01*
X50954564Y-53089920D01*
X50897642Y-52999329D01*
X50897638Y-52999324D01*
X50897635Y-52999319D01*
X50820236Y-52902263D01*
X50732436Y-52814463D01*
X50635380Y-52737064D01*
X50635373Y-52737059D01*
X50635371Y-52737058D01*
X50591768Y-52709660D01*
X50530241Y-52671000D01*
X50418394Y-52617138D01*
X50418389Y-52617136D01*
X50418385Y-52617134D01*
X50418379Y-52617131D01*
X50418367Y-52617127D01*
X50301202Y-52576129D01*
X50180157Y-52548501D01*
X50056779Y-52534600D01*
X50056778Y-52534600D01*
X49932622Y-52534600D01*
X49932621Y-52534600D01*
X49809242Y-52548501D01*
X49688197Y-52576129D01*
X49571032Y-52617127D01*
X49571005Y-52617138D01*
X49459159Y-52671000D01*
X49459158Y-52671000D01*
X49354019Y-52737064D01*
X49256963Y-52814463D01*
X49169163Y-52902263D01*
X49091764Y-52999319D01*
X49025700Y-53104458D01*
X49025700Y-53104459D01*
X48971838Y-53216305D01*
X48971827Y-53216332D01*
X48930829Y-53333497D01*
X48903201Y-53454542D01*
X48889300Y-53577920D01*
X46449500Y-53577920D01*
X46449500Y-51236583D01*
X65048900Y-51236583D01*
X65048900Y-51328617D01*
X65063297Y-51419518D01*
X65091737Y-51507047D01*
X65133520Y-51589050D01*
X65187616Y-51663506D01*
X65187618Y-51663508D01*
X65187621Y-51663512D01*
X65252687Y-51728578D01*
X65252690Y-51728580D01*
X65252694Y-51728584D01*
X65327150Y-51782680D01*
X65409153Y-51824463D01*
X65496682Y-51852903D01*
X65587583Y-51867300D01*
X65587586Y-51867300D01*
X65679614Y-51867300D01*
X65679617Y-51867300D01*
X65770518Y-51852903D01*
X65858047Y-51824463D01*
X65940050Y-51782680D01*
X66014506Y-51728584D01*
X66079584Y-51663506D01*
X66133680Y-51589050D01*
X66175463Y-51507047D01*
X66203903Y-51419518D01*
X66218300Y-51328617D01*
X66218300Y-51236583D01*
X66203903Y-51145682D01*
X66175463Y-51058153D01*
X66133680Y-50976150D01*
X66079584Y-50901694D01*
X66079580Y-50901690D01*
X66079578Y-50901687D01*
X66014512Y-50836621D01*
X66014508Y-50836618D01*
X66014506Y-50836616D01*
X65940050Y-50782520D01*
X65858047Y-50740737D01*
X65858046Y-50740736D01*
X65858045Y-50740736D01*
X65770521Y-50712298D01*
X65770518Y-50712297D01*
X65679617Y-50697900D01*
X65587583Y-50697900D01*
X65496682Y-50712297D01*
X65496679Y-50712297D01*
X65496678Y-50712298D01*
X65409154Y-50740736D01*
X65327150Y-50782520D01*
X65252687Y-50836621D01*
X65187621Y-50901687D01*
X65133520Y-50976150D01*
X65091736Y-51058154D01*
X65063298Y-51145678D01*
X65063297Y-51145682D01*
X65048900Y-51236583D01*
X46449500Y-51236583D01*
X46449500Y-47524312D01*
X47450000Y-47524312D01*
X47450000Y-48150000D01*
X48366219Y-48150000D01*
X48336632Y-48208067D01*
X48312312Y-48282916D01*
X48300000Y-48360649D01*
X48300000Y-48439351D01*
X48312312Y-48517084D01*
X48336632Y-48591933D01*
X48366219Y-48650000D01*
X47450000Y-48650000D01*
X47450000Y-49275687D01*
X47454159Y-49328528D01*
X47454160Y-49328533D01*
X47476150Y-49415803D01*
X47476153Y-49415812D01*
X47513370Y-49497747D01*
X47513372Y-49497751D01*
X47564623Y-49571729D01*
X47564635Y-49571743D01*
X47628256Y-49635364D01*
X47628270Y-49635376D01*
X47702248Y-49686627D01*
X47702252Y-49686629D01*
X47784187Y-49723846D01*
X47784196Y-49723849D01*
X47871466Y-49745839D01*
X47871471Y-49745840D01*
X47924312Y-49749999D01*
X47924313Y-49750000D01*
X48550000Y-49750000D01*
X48550000Y-48833781D01*
X48608067Y-48863368D01*
X48682916Y-48887688D01*
X48760649Y-48900000D01*
X48839351Y-48900000D01*
X48917084Y-48887688D01*
X48991933Y-48863368D01*
X49050000Y-48833781D01*
X49050000Y-49750000D01*
X49675687Y-49750000D01*
X49675687Y-49749999D01*
X49728528Y-49745840D01*
X49728533Y-49745839D01*
X49815803Y-49723849D01*
X49815812Y-49723846D01*
X49897747Y-49686629D01*
X49897751Y-49686627D01*
X49971729Y-49635376D01*
X49971743Y-49635364D01*
X50035364Y-49571743D01*
X50035376Y-49571729D01*
X50086627Y-49497751D01*
X50086629Y-49497747D01*
X50123846Y-49415812D01*
X50123849Y-49415803D01*
X50145839Y-49328533D01*
X50145840Y-49328528D01*
X50149999Y-49275687D01*
X50150000Y-49275687D01*
X50150000Y-48650000D01*
X49233781Y-48650000D01*
X49263368Y-48591933D01*
X49287688Y-48517084D01*
X49300000Y-48439351D01*
X49300000Y-48360649D01*
X49287688Y-48282916D01*
X49263368Y-48208067D01*
X49233781Y-48150000D01*
X50150000Y-48150000D01*
X50150000Y-48086983D01*
X72313300Y-48086983D01*
X72313300Y-48179017D01*
X72327697Y-48269918D01*
X72356137Y-48357447D01*
X72397920Y-48439450D01*
X72452016Y-48513906D01*
X72452018Y-48513908D01*
X72452021Y-48513912D01*
X72517087Y-48578978D01*
X72517090Y-48578980D01*
X72517094Y-48578984D01*
X72591550Y-48633080D01*
X72673553Y-48674863D01*
X72761082Y-48703303D01*
X72851983Y-48717700D01*
X72851986Y-48717700D01*
X72944014Y-48717700D01*
X72944017Y-48717700D01*
X73034918Y-48703303D01*
X73122447Y-48674863D01*
X73204450Y-48633080D01*
X73278906Y-48578984D01*
X73343984Y-48513906D01*
X73398080Y-48439450D01*
X73439863Y-48357447D01*
X73468303Y-48269918D01*
X73482700Y-48179017D01*
X73482700Y-48086983D01*
X73468303Y-47996082D01*
X73439863Y-47908553D01*
X73398080Y-47826550D01*
X73343984Y-47752094D01*
X73343980Y-47752090D01*
X73343978Y-47752087D01*
X73278912Y-47687021D01*
X73278908Y-47687018D01*
X73278906Y-47687016D01*
X73204450Y-47632920D01*
X73122447Y-47591137D01*
X73122446Y-47591136D01*
X73122445Y-47591136D01*
X73034921Y-47562698D01*
X73034918Y-47562697D01*
X72944017Y-47548300D01*
X72851983Y-47548300D01*
X72761082Y-47562697D01*
X72761079Y-47562697D01*
X72761078Y-47562698D01*
X72673554Y-47591136D01*
X72591550Y-47632920D01*
X72517087Y-47687021D01*
X72452021Y-47752087D01*
X72397920Y-47826550D01*
X72356136Y-47908554D01*
X72335404Y-47972362D01*
X72327697Y-47996082D01*
X72313300Y-48086983D01*
X50150000Y-48086983D01*
X50150000Y-47524313D01*
X50149999Y-47524312D01*
X50145840Y-47471471D01*
X50145839Y-47471466D01*
X50123849Y-47384196D01*
X50123846Y-47384187D01*
X50086629Y-47302252D01*
X50086627Y-47302248D01*
X50035376Y-47228270D01*
X50035364Y-47228256D01*
X49971743Y-47164635D01*
X49971729Y-47164623D01*
X49897751Y-47113372D01*
X49897747Y-47113370D01*
X49815812Y-47076153D01*
X49815803Y-47076150D01*
X49728533Y-47054160D01*
X49728528Y-47054159D01*
X49675687Y-47050000D01*
X49419483Y-47050000D01*
X49376388Y-47042401D01*
X49338492Y-47020522D01*
X49310364Y-46987000D01*
X49295397Y-46945880D01*
X49295397Y-46902120D01*
X49310364Y-46861000D01*
X49338492Y-46827478D01*
X49352441Y-46817316D01*
X49440149Y-46762206D01*
X49510864Y-46705813D01*
X49537135Y-46684863D01*
X49624863Y-46597135D01*
X49702199Y-46500158D01*
X49702199Y-46500156D01*
X49702206Y-46500149D01*
X49768207Y-46395109D01*
X49822032Y-46283340D01*
X49863005Y-46166247D01*
X49890610Y-46045302D01*
X49890902Y-46042711D01*
X61328001Y-46042711D01*
X61328001Y-46144886D01*
X61341335Y-46246172D01*
X61367781Y-46344870D01*
X61406872Y-46439243D01*
X61406882Y-46439262D01*
X61407431Y-46440214D01*
X61407432Y-46440214D01*
X61753847Y-46093800D01*
X61753847Y-46093798D01*
X61407430Y-45747382D01*
X61406879Y-45748339D01*
X61406877Y-45748342D01*
X61367780Y-45842731D01*
X61341335Y-45941425D01*
X61328001Y-46042711D01*
X49890902Y-46042711D01*
X49901147Y-45951785D01*
X49904500Y-45922028D01*
X49904500Y-45797971D01*
X49898800Y-45747382D01*
X49890610Y-45674698D01*
X49863005Y-45553753D01*
X49856727Y-45535813D01*
X49822036Y-45436672D01*
X49822032Y-45436660D01*
X49801391Y-45393798D01*
X61760954Y-45393798D01*
X62195082Y-45827926D01*
X62220182Y-45863772D01*
X62231508Y-45906040D01*
X62227694Y-45949633D01*
X62212132Y-45983004D01*
X62200977Y-45971849D01*
X62166225Y-45951785D01*
X62127465Y-45941399D01*
X62087337Y-45941399D01*
X62048577Y-45951785D01*
X62013825Y-45971849D01*
X61985451Y-46000223D01*
X61965387Y-46034975D01*
X61955001Y-46073735D01*
X61955001Y-46113863D01*
X61965387Y-46152623D01*
X61985451Y-46187375D01*
X62013825Y-46215749D01*
X62048577Y-46235813D01*
X62087337Y-46246199D01*
X62127465Y-46246199D01*
X62166225Y-46235813D01*
X62200977Y-46215749D01*
X62211623Y-46205102D01*
X62220182Y-46217325D01*
X62231507Y-46259593D01*
X62227694Y-46303186D01*
X62209200Y-46342845D01*
X62195082Y-46359671D01*
X61760983Y-46793768D01*
X61761936Y-46794318D01*
X61856336Y-46833420D01*
X61955027Y-46859864D01*
X62056313Y-46873198D01*
X62056323Y-46873199D01*
X62158479Y-46873199D01*
X62158488Y-46873198D01*
X62259774Y-46859864D01*
X62358463Y-46833421D01*
X62359168Y-46833129D01*
X62359624Y-46833027D01*
X62362372Y-46832095D01*
X62362474Y-46832395D01*
X62401889Y-46823653D01*
X62445274Y-46829359D01*
X62455634Y-46833129D01*
X62456338Y-46833421D01*
X62555027Y-46859864D01*
X62656313Y-46873198D01*
X62656323Y-46873199D01*
X62758479Y-46873199D01*
X62758488Y-46873198D01*
X62859774Y-46859864D01*
X62958468Y-46833419D01*
X63052855Y-46794322D01*
X63052859Y-46794321D01*
X63053817Y-46793767D01*
X62957989Y-46697939D01*
X62957978Y-46697929D01*
X62873832Y-46613783D01*
X82498700Y-46613783D01*
X82498700Y-46705817D01*
X82513097Y-46796718D01*
X82513098Y-46796721D01*
X82533983Y-46861000D01*
X82541537Y-46884247D01*
X82583320Y-46966250D01*
X82637416Y-47040706D01*
X82637418Y-47040708D01*
X82637421Y-47040712D01*
X82702487Y-47105778D01*
X82702490Y-47105780D01*
X82702494Y-47105784D01*
X82776950Y-47159880D01*
X82858953Y-47201663D01*
X82946482Y-47230103D01*
X83037383Y-47244500D01*
X83037386Y-47244500D01*
X83129414Y-47244500D01*
X83129417Y-47244500D01*
X83220318Y-47230103D01*
X83307847Y-47201663D01*
X83389850Y-47159880D01*
X83464306Y-47105784D01*
X83529384Y-47040706D01*
X83583480Y-46966250D01*
X83625263Y-46884247D01*
X83653703Y-46796718D01*
X83668100Y-46705817D01*
X83668100Y-46613783D01*
X90525100Y-46613783D01*
X90525100Y-46705817D01*
X90539497Y-46796718D01*
X90539498Y-46796721D01*
X90560383Y-46861000D01*
X90567937Y-46884247D01*
X90609720Y-46966250D01*
X90663816Y-47040706D01*
X90663818Y-47040708D01*
X90663821Y-47040712D01*
X90728887Y-47105778D01*
X90728890Y-47105780D01*
X90728894Y-47105784D01*
X90803350Y-47159880D01*
X90885353Y-47201663D01*
X90972882Y-47230103D01*
X91063783Y-47244500D01*
X91063786Y-47244500D01*
X91155814Y-47244500D01*
X91155817Y-47244500D01*
X91246718Y-47230103D01*
X91334247Y-47201663D01*
X91416250Y-47159880D01*
X91490706Y-47105784D01*
X91555784Y-47040706D01*
X91609880Y-46966250D01*
X91651663Y-46884247D01*
X91680103Y-46796718D01*
X91694500Y-46705817D01*
X91694500Y-46613783D01*
X91680103Y-46522882D01*
X91651663Y-46435353D01*
X91609880Y-46353350D01*
X91555784Y-46278894D01*
X91555780Y-46278890D01*
X91555778Y-46278887D01*
X91490712Y-46213821D01*
X91490708Y-46213818D01*
X91490706Y-46213816D01*
X91416250Y-46159720D01*
X91334247Y-46117937D01*
X91334246Y-46117936D01*
X91334245Y-46117936D01*
X91246721Y-46089498D01*
X91246718Y-46089497D01*
X91155817Y-46075100D01*
X91063783Y-46075100D01*
X90972882Y-46089497D01*
X90972879Y-46089497D01*
X90972878Y-46089498D01*
X90885354Y-46117936D01*
X90803350Y-46159720D01*
X90728887Y-46213821D01*
X90663821Y-46278887D01*
X90609720Y-46353350D01*
X90567936Y-46435354D01*
X90539498Y-46522878D01*
X90539497Y-46522882D01*
X90525100Y-46613783D01*
X83668100Y-46613783D01*
X83653703Y-46522882D01*
X83625263Y-46435353D01*
X83583480Y-46353350D01*
X83529384Y-46278894D01*
X83529380Y-46278890D01*
X83529378Y-46278887D01*
X83464312Y-46213821D01*
X83464308Y-46213818D01*
X83464306Y-46213816D01*
X83389850Y-46159720D01*
X83307847Y-46117937D01*
X83307846Y-46117936D01*
X83307845Y-46117936D01*
X83220321Y-46089498D01*
X83220318Y-46089497D01*
X83129417Y-46075100D01*
X83037383Y-46075100D01*
X82946482Y-46089497D01*
X82946479Y-46089497D01*
X82946478Y-46089498D01*
X82858954Y-46117936D01*
X82776950Y-46159720D01*
X82702487Y-46213821D01*
X82637421Y-46278887D01*
X82583320Y-46353350D01*
X82541536Y-46435354D01*
X82513098Y-46522878D01*
X82513097Y-46522882D01*
X82498700Y-46613783D01*
X62873832Y-46613783D01*
X62619719Y-46359671D01*
X62594619Y-46323825D01*
X62583293Y-46281557D01*
X62587107Y-46237964D01*
X62602668Y-46204592D01*
X62613825Y-46215749D01*
X62648577Y-46235813D01*
X62687337Y-46246199D01*
X62727465Y-46246199D01*
X62766225Y-46235813D01*
X62800977Y-46215749D01*
X62829351Y-46187375D01*
X62849415Y-46152623D01*
X62859801Y-46113863D01*
X62859801Y-46093798D01*
X63060954Y-46093798D01*
X63060954Y-46093800D01*
X63407369Y-46440215D01*
X63407923Y-46439257D01*
X63407924Y-46439253D01*
X63447021Y-46344866D01*
X63473466Y-46246172D01*
X63486800Y-46144886D01*
X63486801Y-46144877D01*
X63486801Y-46042721D01*
X63486800Y-46042711D01*
X63473466Y-45941425D01*
X63447022Y-45842734D01*
X63407920Y-45748334D01*
X63407370Y-45747381D01*
X63060954Y-46093798D01*
X62859801Y-46093798D01*
X62859801Y-46073735D01*
X62849415Y-46034975D01*
X62829351Y-46000223D01*
X62800977Y-45971849D01*
X62766225Y-45951785D01*
X62727465Y-45941399D01*
X62687337Y-45941399D01*
X62648577Y-45951785D01*
X62613825Y-45971849D01*
X62603178Y-45982495D01*
X62594619Y-45970271D01*
X62583293Y-45928003D01*
X62587107Y-45884410D01*
X62605601Y-45844750D01*
X62619719Y-45827925D01*
X63053846Y-45393798D01*
X62619719Y-44959672D01*
X62594619Y-44923826D01*
X62583293Y-44881558D01*
X62587107Y-44837965D01*
X62602668Y-44804592D01*
X62613825Y-44815749D01*
X62648577Y-44835813D01*
X62687337Y-44846199D01*
X62727465Y-44846199D01*
X62766225Y-44835813D01*
X62800977Y-44815749D01*
X62829351Y-44787375D01*
X62849415Y-44752623D01*
X62859801Y-44713863D01*
X62859801Y-44693798D01*
X63060954Y-44693798D01*
X63060954Y-44693800D01*
X63407369Y-45040215D01*
X63407923Y-45039257D01*
X63407924Y-45039253D01*
X63447021Y-44944866D01*
X63473466Y-44846172D01*
X63486800Y-44744886D01*
X63486801Y-44744877D01*
X63486801Y-44642721D01*
X63486800Y-44642711D01*
X63473466Y-44541425D01*
X63447022Y-44442734D01*
X63407920Y-44348334D01*
X63407370Y-44347381D01*
X63060954Y-44693798D01*
X62859801Y-44693798D01*
X62859801Y-44673735D01*
X62849415Y-44634975D01*
X62829351Y-44600223D01*
X62800977Y-44571849D01*
X62766225Y-44551785D01*
X62727465Y-44541399D01*
X62687337Y-44541399D01*
X62648577Y-44551785D01*
X62613825Y-44571849D01*
X62603178Y-44582495D01*
X62594619Y-44570271D01*
X62583293Y-44528003D01*
X62587107Y-44484410D01*
X62605601Y-44444750D01*
X62619719Y-44427925D01*
X63053816Y-43993829D01*
X63052864Y-43993280D01*
X63052845Y-43993270D01*
X62958472Y-43954179D01*
X62859774Y-43927733D01*
X62758488Y-43914399D01*
X62656313Y-43914399D01*
X62555027Y-43927733D01*
X62456328Y-43954180D01*
X62455616Y-43954475D01*
X62455160Y-43954576D01*
X62452423Y-43955505D01*
X62452321Y-43955205D01*
X62412894Y-43963945D01*
X62369509Y-43958232D01*
X62359186Y-43954475D01*
X62358473Y-43954180D01*
X62259774Y-43927733D01*
X62158488Y-43914399D01*
X62056313Y-43914399D01*
X61955027Y-43927733D01*
X61856333Y-43954178D01*
X61761944Y-43993275D01*
X61761941Y-43993277D01*
X61760983Y-43993828D01*
X62195082Y-44427926D01*
X62220182Y-44463772D01*
X62231508Y-44506040D01*
X62227694Y-44549633D01*
X62212132Y-44583004D01*
X62200977Y-44571849D01*
X62166225Y-44551785D01*
X62127465Y-44541399D01*
X62087337Y-44541399D01*
X62048577Y-44551785D01*
X62013825Y-44571849D01*
X61985451Y-44600223D01*
X61965387Y-44634975D01*
X61955001Y-44673735D01*
X61955001Y-44713863D01*
X61965387Y-44752623D01*
X61985451Y-44787375D01*
X62013825Y-44815749D01*
X62048577Y-44835813D01*
X62087337Y-44846199D01*
X62127465Y-44846199D01*
X62166225Y-44835813D01*
X62200977Y-44815749D01*
X62211623Y-44805102D01*
X62220182Y-44817325D01*
X62231507Y-44859593D01*
X62227694Y-44903186D01*
X62209200Y-44942845D01*
X62195082Y-44959670D01*
X61760954Y-45393798D01*
X49801391Y-45393798D01*
X49768207Y-45324891D01*
X49702206Y-45219851D01*
X49702202Y-45219846D01*
X49702199Y-45219841D01*
X49624863Y-45122864D01*
X49537135Y-45035136D01*
X49440158Y-44957800D01*
X49440151Y-44957795D01*
X49440149Y-44957794D01*
X49335109Y-44891793D01*
X49223340Y-44837968D01*
X49223336Y-44837966D01*
X49223327Y-44837963D01*
X49106253Y-44796996D01*
X48985305Y-44769390D01*
X48944184Y-44764757D01*
X48907434Y-44760616D01*
X48862028Y-44755500D01*
X48862027Y-44755500D01*
X48737973Y-44755500D01*
X48737972Y-44755500D01*
X48614694Y-44769390D01*
X48493746Y-44796996D01*
X48376672Y-44837963D01*
X48376657Y-44837969D01*
X48264888Y-44891794D01*
X48159841Y-44957800D01*
X48062864Y-45035136D01*
X47975136Y-45122864D01*
X47897800Y-45219841D01*
X47831794Y-45324888D01*
X47777969Y-45436657D01*
X47777963Y-45436672D01*
X47736996Y-45553746D01*
X47709390Y-45674694D01*
X47695500Y-45797971D01*
X47695500Y-45922028D01*
X47709390Y-46045305D01*
X47736996Y-46166253D01*
X47777963Y-46283327D01*
X47777969Y-46283342D01*
X47831794Y-46395111D01*
X47897800Y-46500158D01*
X47975136Y-46597135D01*
X48062864Y-46684863D01*
X48159841Y-46762199D01*
X48159846Y-46762202D01*
X48159851Y-46762206D01*
X48247555Y-46817314D01*
X48280000Y-46846675D01*
X48300447Y-46885363D01*
X48306429Y-46928712D01*
X48297224Y-46971492D01*
X48273942Y-47008544D01*
X48239392Y-47035399D01*
X48197741Y-47048817D01*
X48180517Y-47050000D01*
X47924313Y-47050000D01*
X47871471Y-47054159D01*
X47871466Y-47054160D01*
X47784196Y-47076150D01*
X47784187Y-47076153D01*
X47702252Y-47113370D01*
X47702248Y-47113372D01*
X47628270Y-47164623D01*
X47628256Y-47164635D01*
X47564635Y-47228256D01*
X47564623Y-47228270D01*
X47513372Y-47302248D01*
X47513370Y-47302252D01*
X47476153Y-47384187D01*
X47476150Y-47384196D01*
X47454160Y-47471466D01*
X47454159Y-47471471D01*
X47450000Y-47524312D01*
X46449500Y-47524312D01*
X46449500Y-44642711D01*
X61328001Y-44642711D01*
X61328001Y-44744886D01*
X61341335Y-44846172D01*
X61367781Y-44944870D01*
X61406872Y-45039243D01*
X61406882Y-45039262D01*
X61407431Y-45040214D01*
X61407432Y-45040214D01*
X61753847Y-44693800D01*
X61753847Y-44693798D01*
X61407430Y-44347382D01*
X61406879Y-44348339D01*
X61406877Y-44348342D01*
X61367780Y-44442731D01*
X61341335Y-44541425D01*
X61328001Y-44642711D01*
X46449500Y-44642711D01*
X46449500Y-43235983D01*
X59250700Y-43235983D01*
X59250700Y-43328017D01*
X59265097Y-43418918D01*
X59293537Y-43506447D01*
X59335320Y-43588450D01*
X59389416Y-43662906D01*
X59389418Y-43662908D01*
X59389421Y-43662912D01*
X59454487Y-43727978D01*
X59454490Y-43727980D01*
X59454494Y-43727984D01*
X59528950Y-43782080D01*
X59610953Y-43823863D01*
X59698482Y-43852303D01*
X59789383Y-43866700D01*
X59789386Y-43866700D01*
X59881414Y-43866700D01*
X59881417Y-43866700D01*
X59972318Y-43852303D01*
X60059847Y-43823863D01*
X60141850Y-43782080D01*
X60216306Y-43727984D01*
X60281384Y-43662906D01*
X60335480Y-43588450D01*
X60377263Y-43506447D01*
X60405703Y-43418918D01*
X60406580Y-43413383D01*
X70636900Y-43413383D01*
X70636900Y-43505417D01*
X70651297Y-43596318D01*
X70679737Y-43683847D01*
X70721520Y-43765850D01*
X70775616Y-43840306D01*
X70775618Y-43840308D01*
X70775621Y-43840312D01*
X70840687Y-43905378D01*
X70840690Y-43905380D01*
X70840694Y-43905384D01*
X70915150Y-43959480D01*
X70997153Y-44001263D01*
X71084682Y-44029703D01*
X71175583Y-44044100D01*
X71175586Y-44044100D01*
X71267614Y-44044100D01*
X71267617Y-44044100D01*
X71358518Y-44029703D01*
X71446047Y-44001263D01*
X71528050Y-43959480D01*
X71602506Y-43905384D01*
X71667584Y-43840306D01*
X71721680Y-43765850D01*
X71763463Y-43683847D01*
X71791903Y-43596318D01*
X71806300Y-43505417D01*
X71806300Y-43413383D01*
X71791903Y-43322482D01*
X71763463Y-43234953D01*
X71721680Y-43152950D01*
X71667584Y-43078494D01*
X71667580Y-43078490D01*
X71667578Y-43078487D01*
X71602512Y-43013421D01*
X71602508Y-43013418D01*
X71602506Y-43013416D01*
X71528050Y-42959320D01*
X71446047Y-42917537D01*
X71446046Y-42917536D01*
X71446045Y-42917536D01*
X71358521Y-42889098D01*
X71358518Y-42889097D01*
X71267617Y-42874700D01*
X71175583Y-42874700D01*
X71084682Y-42889097D01*
X71084679Y-42889097D01*
X71084678Y-42889098D01*
X70997154Y-42917536D01*
X70915150Y-42959320D01*
X70840687Y-43013421D01*
X70775621Y-43078487D01*
X70721520Y-43152950D01*
X70679736Y-43234954D01*
X70679402Y-43235983D01*
X70651297Y-43322482D01*
X70636900Y-43413383D01*
X60406580Y-43413383D01*
X60420100Y-43328017D01*
X60420100Y-43235983D01*
X60405703Y-43145082D01*
X60377263Y-43057553D01*
X60335480Y-42975550D01*
X60281384Y-42901094D01*
X60281380Y-42901090D01*
X60281378Y-42901087D01*
X60216312Y-42836021D01*
X60216308Y-42836018D01*
X60216306Y-42836016D01*
X60141850Y-42781920D01*
X60059847Y-42740137D01*
X60059846Y-42740136D01*
X60059845Y-42740136D01*
X59972321Y-42711698D01*
X59972318Y-42711697D01*
X59881417Y-42697300D01*
X59789383Y-42697300D01*
X59698482Y-42711697D01*
X59698479Y-42711697D01*
X59698478Y-42711698D01*
X59610954Y-42740136D01*
X59528950Y-42781920D01*
X59454487Y-42836021D01*
X59389421Y-42901087D01*
X59335320Y-42975550D01*
X59293536Y-43057554D01*
X59265098Y-43145078D01*
X59265097Y-43145082D01*
X59250700Y-43235983D01*
X46449500Y-43235983D01*
X46449500Y-41661183D01*
X58717300Y-41661183D01*
X58717300Y-41753217D01*
X58731697Y-41844118D01*
X58731698Y-41844121D01*
X58738152Y-41863986D01*
X58760137Y-41931647D01*
X58801920Y-42013650D01*
X58856016Y-42088106D01*
X58856018Y-42088108D01*
X58856021Y-42088112D01*
X58921087Y-42153178D01*
X58921090Y-42153180D01*
X58921094Y-42153184D01*
X58995550Y-42207280D01*
X59077553Y-42249063D01*
X59165082Y-42277503D01*
X59255983Y-42291900D01*
X59255986Y-42291900D01*
X59348014Y-42291900D01*
X59348017Y-42291900D01*
X59438918Y-42277503D01*
X59526447Y-42249063D01*
X59608450Y-42207280D01*
X59682906Y-42153184D01*
X59747984Y-42088106D01*
X59802080Y-42013650D01*
X59843863Y-41931647D01*
X59865848Y-41863983D01*
X66826900Y-41863983D01*
X66826900Y-41956017D01*
X66841297Y-42046918D01*
X66869737Y-42134447D01*
X66911520Y-42216450D01*
X66965616Y-42290906D01*
X66965618Y-42290908D01*
X66965621Y-42290912D01*
X67030687Y-42355978D01*
X67030690Y-42355980D01*
X67030694Y-42355984D01*
X67105150Y-42410080D01*
X67187153Y-42451863D01*
X67274682Y-42480303D01*
X67365583Y-42494700D01*
X67365586Y-42494700D01*
X67457614Y-42494700D01*
X67457617Y-42494700D01*
X67548518Y-42480303D01*
X67636047Y-42451863D01*
X67718050Y-42410080D01*
X67792506Y-42355984D01*
X67857584Y-42290906D01*
X67911680Y-42216450D01*
X67953463Y-42134447D01*
X67981903Y-42046918D01*
X67996300Y-41956017D01*
X67996300Y-41863983D01*
X67981903Y-41773082D01*
X67953463Y-41685553D01*
X67911680Y-41603550D01*
X67857584Y-41529094D01*
X67857580Y-41529090D01*
X67857578Y-41529087D01*
X67792512Y-41464021D01*
X67792508Y-41464018D01*
X67792506Y-41464016D01*
X67718050Y-41409920D01*
X67636047Y-41368137D01*
X67636046Y-41368136D01*
X67636045Y-41368136D01*
X67548521Y-41339698D01*
X67548518Y-41339697D01*
X67457617Y-41325300D01*
X67365583Y-41325300D01*
X67274682Y-41339697D01*
X67274679Y-41339697D01*
X67274678Y-41339698D01*
X67187154Y-41368136D01*
X67105150Y-41409920D01*
X67030687Y-41464021D01*
X66965621Y-41529087D01*
X66911520Y-41603550D01*
X66869736Y-41685554D01*
X66841298Y-41773078D01*
X66841297Y-41773082D01*
X66826900Y-41863983D01*
X59865848Y-41863983D01*
X59872303Y-41844118D01*
X59886700Y-41753217D01*
X59886700Y-41661183D01*
X59872303Y-41570282D01*
X59843863Y-41482753D01*
X59802080Y-41400750D01*
X59747984Y-41326294D01*
X59747980Y-41326290D01*
X59747978Y-41326287D01*
X59682912Y-41261221D01*
X59682908Y-41261218D01*
X59682906Y-41261216D01*
X59608450Y-41207120D01*
X59526447Y-41165337D01*
X59526446Y-41165336D01*
X59526445Y-41165336D01*
X59438921Y-41136898D01*
X59438918Y-41136897D01*
X59348017Y-41122500D01*
X59255983Y-41122500D01*
X59165082Y-41136897D01*
X59165079Y-41136897D01*
X59165078Y-41136898D01*
X59077554Y-41165336D01*
X58995550Y-41207120D01*
X58921087Y-41261221D01*
X58856021Y-41326287D01*
X58801920Y-41400750D01*
X58760136Y-41482754D01*
X58731698Y-41570278D01*
X58731697Y-41570282D01*
X58717300Y-41661183D01*
X46449500Y-41661183D01*
X46449500Y-38408094D01*
X61602900Y-38408094D01*
X61602900Y-40159505D01*
X61604034Y-40173926D01*
X61621976Y-40235680D01*
X61654708Y-40291026D01*
X61654711Y-40291030D01*
X61700169Y-40336488D01*
X61700173Y-40336491D01*
X61700175Y-40336493D01*
X61755522Y-40369225D01*
X61817271Y-40387165D01*
X61831694Y-40388300D01*
X63583106Y-40388300D01*
X63597529Y-40387165D01*
X63659278Y-40369225D01*
X63714625Y-40336493D01*
X63760093Y-40291025D01*
X63792825Y-40235678D01*
X63810765Y-40173929D01*
X63811900Y-40159506D01*
X63811900Y-39221771D01*
X64142900Y-39221771D01*
X64142900Y-39345828D01*
X64156790Y-39469105D01*
X64184396Y-39590053D01*
X64225363Y-39707127D01*
X64225369Y-39707142D01*
X64279194Y-39818911D01*
X64345200Y-39923958D01*
X64422536Y-40020935D01*
X64510264Y-40108663D01*
X64607241Y-40185999D01*
X64607246Y-40186002D01*
X64607251Y-40186006D01*
X64712291Y-40252007D01*
X64824060Y-40305832D01*
X64860004Y-40318409D01*
X64941146Y-40346803D01*
X64941149Y-40346803D01*
X64941153Y-40346805D01*
X65062098Y-40374410D01*
X65164388Y-40385935D01*
X65185372Y-40388300D01*
X65185373Y-40388300D01*
X65309428Y-40388300D01*
X65327358Y-40386279D01*
X65432702Y-40374410D01*
X65553647Y-40346805D01*
X65670740Y-40305832D01*
X65782509Y-40252007D01*
X65887549Y-40186006D01*
X65920779Y-40159506D01*
X65984535Y-40108663D01*
X66072263Y-40020935D01*
X66149599Y-39923958D01*
X66149599Y-39923956D01*
X66149606Y-39923949D01*
X66215607Y-39818909D01*
X66269432Y-39707140D01*
X66310405Y-39590047D01*
X66330551Y-39501783D01*
X86537300Y-39501783D01*
X86537300Y-39593817D01*
X86551697Y-39684718D01*
X86580137Y-39772247D01*
X86621920Y-39854250D01*
X86676016Y-39928706D01*
X86676018Y-39928708D01*
X86676021Y-39928712D01*
X86741087Y-39993778D01*
X86741090Y-39993780D01*
X86741094Y-39993784D01*
X86815550Y-40047880D01*
X86897553Y-40089663D01*
X86985082Y-40118103D01*
X87075983Y-40132500D01*
X87075986Y-40132500D01*
X87168014Y-40132500D01*
X87168017Y-40132500D01*
X87258918Y-40118103D01*
X87346447Y-40089663D01*
X87428450Y-40047880D01*
X87502906Y-39993784D01*
X87567984Y-39928706D01*
X87622080Y-39854250D01*
X87663863Y-39772247D01*
X87692303Y-39684718D01*
X87706700Y-39593817D01*
X87706700Y-39501783D01*
X87692303Y-39410882D01*
X87663863Y-39323353D01*
X87622080Y-39241350D01*
X87567984Y-39166894D01*
X87567980Y-39166890D01*
X87567978Y-39166887D01*
X87502912Y-39101821D01*
X87502908Y-39101818D01*
X87502906Y-39101816D01*
X87428450Y-39047720D01*
X87346447Y-39005937D01*
X87346446Y-39005936D01*
X87346445Y-39005936D01*
X87258921Y-38977498D01*
X87258918Y-38977497D01*
X87168017Y-38963100D01*
X87075983Y-38963100D01*
X86985082Y-38977497D01*
X86985079Y-38977497D01*
X86985078Y-38977498D01*
X86897554Y-39005936D01*
X86815550Y-39047720D01*
X86741087Y-39101821D01*
X86676021Y-39166887D01*
X86621920Y-39241350D01*
X86580136Y-39323354D01*
X86572834Y-39345828D01*
X86551697Y-39410882D01*
X86537300Y-39501783D01*
X66330551Y-39501783D01*
X66338010Y-39469102D01*
X66351900Y-39345827D01*
X66351900Y-39221773D01*
X66338010Y-39098498D01*
X66310405Y-38977553D01*
X66310385Y-38977497D01*
X66269436Y-38860472D01*
X66269432Y-38860460D01*
X66215607Y-38748691D01*
X66149606Y-38643651D01*
X66149602Y-38643646D01*
X66149599Y-38643641D01*
X66072263Y-38546664D01*
X65985982Y-38460383D01*
X92099900Y-38460383D01*
X92099900Y-38552417D01*
X92114297Y-38643318D01*
X92142737Y-38730847D01*
X92184520Y-38812850D01*
X92238616Y-38887306D01*
X92238618Y-38887308D01*
X92238621Y-38887312D01*
X92303687Y-38952378D01*
X92303690Y-38952380D01*
X92303694Y-38952384D01*
X92378150Y-39006480D01*
X92460153Y-39048263D01*
X92547682Y-39076703D01*
X92638583Y-39091100D01*
X92638586Y-39091100D01*
X92730614Y-39091100D01*
X92730617Y-39091100D01*
X92821518Y-39076703D01*
X92909047Y-39048263D01*
X92991050Y-39006480D01*
X93065506Y-38952384D01*
X93130584Y-38887306D01*
X93184680Y-38812850D01*
X93226463Y-38730847D01*
X93254903Y-38643318D01*
X93269300Y-38552417D01*
X93269300Y-38460383D01*
X93254903Y-38369482D01*
X93226463Y-38281953D01*
X93184680Y-38199950D01*
X93130584Y-38125494D01*
X93130580Y-38125490D01*
X93130578Y-38125487D01*
X93065512Y-38060421D01*
X93065508Y-38060418D01*
X93065506Y-38060416D01*
X92991050Y-38006320D01*
X92909047Y-37964537D01*
X92909046Y-37964536D01*
X92909045Y-37964536D01*
X92821521Y-37936098D01*
X92821518Y-37936097D01*
X92730617Y-37921700D01*
X92638583Y-37921700D01*
X92547682Y-37936097D01*
X92547679Y-37936097D01*
X92547678Y-37936098D01*
X92460154Y-37964536D01*
X92378150Y-38006320D01*
X92303687Y-38060421D01*
X92238621Y-38125487D01*
X92184520Y-38199950D01*
X92142736Y-38281954D01*
X92131806Y-38315594D01*
X92114297Y-38369482D01*
X92099900Y-38460383D01*
X65985982Y-38460383D01*
X65984535Y-38458936D01*
X65887558Y-38381600D01*
X65887551Y-38381595D01*
X65887549Y-38381594D01*
X65827330Y-38343756D01*
X65782511Y-38315594D01*
X65670742Y-38261769D01*
X65670727Y-38261763D01*
X65553653Y-38220796D01*
X65432705Y-38193190D01*
X65309428Y-38179300D01*
X65309427Y-38179300D01*
X65185373Y-38179300D01*
X65185372Y-38179300D01*
X65062094Y-38193190D01*
X64941146Y-38220796D01*
X64824072Y-38261763D01*
X64824057Y-38261769D01*
X64712288Y-38315594D01*
X64607241Y-38381600D01*
X64510264Y-38458936D01*
X64422536Y-38546664D01*
X64345200Y-38643641D01*
X64279194Y-38748688D01*
X64225369Y-38860457D01*
X64225363Y-38860472D01*
X64184396Y-38977546D01*
X64156790Y-39098494D01*
X64142900Y-39221771D01*
X63811900Y-39221771D01*
X63811900Y-38408094D01*
X63810765Y-38393671D01*
X63792825Y-38331922D01*
X63760093Y-38276575D01*
X63760091Y-38276573D01*
X63760088Y-38276569D01*
X63714630Y-38231111D01*
X63714626Y-38231108D01*
X63714625Y-38231107D01*
X63659278Y-38198375D01*
X63597529Y-38180435D01*
X63597526Y-38180434D01*
X63583106Y-38179300D01*
X61831694Y-38179300D01*
X61817273Y-38180434D01*
X61755519Y-38198376D01*
X61700173Y-38231108D01*
X61700169Y-38231111D01*
X61654711Y-38276569D01*
X61654708Y-38276573D01*
X61621976Y-38331919D01*
X61604034Y-38393673D01*
X61602900Y-38408094D01*
X46449500Y-38408094D01*
X46449500Y-36681771D01*
X61602900Y-36681771D01*
X61602900Y-36805828D01*
X61616790Y-36929105D01*
X61644396Y-37050053D01*
X61685363Y-37167127D01*
X61685369Y-37167142D01*
X61739194Y-37278911D01*
X61805200Y-37383958D01*
X61882536Y-37480935D01*
X61970264Y-37568663D01*
X62067241Y-37645999D01*
X62067246Y-37646002D01*
X62067251Y-37646006D01*
X62172291Y-37712007D01*
X62284060Y-37765832D01*
X62311121Y-37775301D01*
X62401146Y-37806803D01*
X62401149Y-37806803D01*
X62401153Y-37806805D01*
X62522098Y-37834410D01*
X62624388Y-37845935D01*
X62645372Y-37848300D01*
X62645373Y-37848300D01*
X62769428Y-37848300D01*
X62787358Y-37846279D01*
X62892702Y-37834410D01*
X63013647Y-37806805D01*
X63130740Y-37765832D01*
X63242509Y-37712007D01*
X63347549Y-37646006D01*
X63347558Y-37645999D01*
X63444535Y-37568663D01*
X63532263Y-37480935D01*
X63609599Y-37383958D01*
X63609599Y-37383956D01*
X63609606Y-37383949D01*
X63675607Y-37278909D01*
X63729432Y-37167140D01*
X63770405Y-37050047D01*
X63798010Y-36929102D01*
X63811900Y-36805827D01*
X63811900Y-36681773D01*
X63811900Y-36681771D01*
X64142900Y-36681771D01*
X64142900Y-36805828D01*
X64156790Y-36929105D01*
X64184396Y-37050053D01*
X64225363Y-37167127D01*
X64225369Y-37167142D01*
X64279194Y-37278911D01*
X64345200Y-37383958D01*
X64422536Y-37480935D01*
X64510264Y-37568663D01*
X64607241Y-37645999D01*
X64607246Y-37646002D01*
X64607251Y-37646006D01*
X64712291Y-37712007D01*
X64824060Y-37765832D01*
X64851121Y-37775301D01*
X64941146Y-37806803D01*
X64941149Y-37806803D01*
X64941153Y-37806805D01*
X65062098Y-37834410D01*
X65164388Y-37845935D01*
X65185372Y-37848300D01*
X65185373Y-37848300D01*
X65309428Y-37848300D01*
X65327358Y-37846279D01*
X65432702Y-37834410D01*
X65553647Y-37806805D01*
X65670740Y-37765832D01*
X65782509Y-37712007D01*
X65887549Y-37646006D01*
X65887558Y-37645999D01*
X65984535Y-37568663D01*
X66072263Y-37480935D01*
X66149599Y-37383958D01*
X66149599Y-37383956D01*
X66149606Y-37383949D01*
X66215607Y-37278909D01*
X66269432Y-37167140D01*
X66272286Y-37158983D01*
X91490300Y-37158983D01*
X91490300Y-37251017D01*
X91504697Y-37341918D01*
X91533137Y-37429447D01*
X91574920Y-37511450D01*
X91629016Y-37585906D01*
X91629018Y-37585908D01*
X91629021Y-37585912D01*
X91694087Y-37650978D01*
X91694090Y-37650980D01*
X91694094Y-37650984D01*
X91768550Y-37705080D01*
X91850553Y-37746863D01*
X91938082Y-37775303D01*
X92028983Y-37789700D01*
X92028986Y-37789700D01*
X92121014Y-37789700D01*
X92121017Y-37789700D01*
X92211918Y-37775303D01*
X92299447Y-37746863D01*
X92381450Y-37705080D01*
X92455906Y-37650984D01*
X92520984Y-37585906D01*
X92575080Y-37511450D01*
X92616863Y-37429447D01*
X92645303Y-37341918D01*
X92659700Y-37251017D01*
X92659700Y-37158983D01*
X92645303Y-37068082D01*
X92616863Y-36980553D01*
X92575080Y-36898550D01*
X92520984Y-36824094D01*
X92520980Y-36824090D01*
X92520978Y-36824087D01*
X92455912Y-36759021D01*
X92455908Y-36759018D01*
X92455906Y-36759016D01*
X92381450Y-36704920D01*
X92299447Y-36663137D01*
X92299446Y-36663136D01*
X92299445Y-36663136D01*
X92211921Y-36634698D01*
X92211918Y-36634697D01*
X92121017Y-36620300D01*
X92028983Y-36620300D01*
X91938082Y-36634697D01*
X91938079Y-36634697D01*
X91938078Y-36634698D01*
X91850554Y-36663136D01*
X91768550Y-36704920D01*
X91694087Y-36759021D01*
X91629021Y-36824087D01*
X91574920Y-36898550D01*
X91533136Y-36980554D01*
X91510557Y-37050047D01*
X91504697Y-37068082D01*
X91490300Y-37158983D01*
X66272286Y-37158983D01*
X66310405Y-37050047D01*
X66338010Y-36929102D01*
X66351900Y-36805827D01*
X66351900Y-36681773D01*
X66338010Y-36558498D01*
X66310405Y-36437553D01*
X66269432Y-36320460D01*
X66215607Y-36208691D01*
X66149606Y-36103651D01*
X66149602Y-36103646D01*
X66149599Y-36103641D01*
X66072263Y-36006664D01*
X65984535Y-35918936D01*
X65887558Y-35841600D01*
X65887551Y-35841595D01*
X65887549Y-35841594D01*
X65782509Y-35775593D01*
X65670740Y-35721768D01*
X65670736Y-35721766D01*
X65670727Y-35721763D01*
X65553653Y-35680796D01*
X65432705Y-35653190D01*
X65309428Y-35639300D01*
X65309427Y-35639300D01*
X65185373Y-35639300D01*
X65185372Y-35639300D01*
X65062094Y-35653190D01*
X64941146Y-35680796D01*
X64824072Y-35721763D01*
X64824057Y-35721769D01*
X64712288Y-35775594D01*
X64607241Y-35841600D01*
X64510264Y-35918936D01*
X64422536Y-36006664D01*
X64345200Y-36103641D01*
X64279194Y-36208688D01*
X64225369Y-36320457D01*
X64225363Y-36320472D01*
X64184396Y-36437546D01*
X64156790Y-36558494D01*
X64142900Y-36681771D01*
X63811900Y-36681771D01*
X63798010Y-36558498D01*
X63770405Y-36437553D01*
X63729432Y-36320460D01*
X63675607Y-36208691D01*
X63609606Y-36103651D01*
X63609602Y-36103646D01*
X63609599Y-36103641D01*
X63532263Y-36006664D01*
X63444535Y-35918936D01*
X63347558Y-35841600D01*
X63347551Y-35841595D01*
X63347549Y-35841594D01*
X63242509Y-35775593D01*
X63130740Y-35721768D01*
X63130736Y-35721766D01*
X63130727Y-35721763D01*
X63013653Y-35680796D01*
X62892705Y-35653190D01*
X62769428Y-35639300D01*
X62769427Y-35639300D01*
X62645373Y-35639300D01*
X62645372Y-35639300D01*
X62522094Y-35653190D01*
X62401146Y-35680796D01*
X62284072Y-35721763D01*
X62284057Y-35721769D01*
X62172288Y-35775594D01*
X62067241Y-35841600D01*
X61970264Y-35918936D01*
X61882536Y-36006664D01*
X61805200Y-36103641D01*
X61739194Y-36208688D01*
X61685369Y-36320457D01*
X61685363Y-36320472D01*
X61644396Y-36437546D01*
X61616790Y-36558494D01*
X61602900Y-36681771D01*
X46449500Y-36681771D01*
X46449500Y-34141771D01*
X61602900Y-34141771D01*
X61602900Y-34265828D01*
X61616790Y-34389105D01*
X61644396Y-34510053D01*
X61685363Y-34627127D01*
X61685369Y-34627142D01*
X61739194Y-34738911D01*
X61805200Y-34843958D01*
X61882536Y-34940935D01*
X61970264Y-35028663D01*
X62067241Y-35105999D01*
X62067246Y-35106002D01*
X62067251Y-35106006D01*
X62172291Y-35172007D01*
X62284060Y-35225832D01*
X62320004Y-35238409D01*
X62401146Y-35266803D01*
X62401149Y-35266803D01*
X62401153Y-35266805D01*
X62522098Y-35294410D01*
X62624388Y-35305935D01*
X62645372Y-35308300D01*
X62645373Y-35308300D01*
X62769428Y-35308300D01*
X62787358Y-35306279D01*
X62892702Y-35294410D01*
X63013647Y-35266805D01*
X63130740Y-35225832D01*
X63242509Y-35172007D01*
X63347549Y-35106006D01*
X63347558Y-35105999D01*
X63444535Y-35028663D01*
X63532263Y-34940935D01*
X63609599Y-34843958D01*
X63609599Y-34843956D01*
X63609606Y-34843949D01*
X63675607Y-34738909D01*
X63729432Y-34627140D01*
X63770405Y-34510047D01*
X63798010Y-34389102D01*
X63811900Y-34265827D01*
X63811900Y-34141773D01*
X63811900Y-34141771D01*
X64142900Y-34141771D01*
X64142900Y-34265828D01*
X64156790Y-34389105D01*
X64184396Y-34510053D01*
X64225363Y-34627127D01*
X64225369Y-34627142D01*
X64279194Y-34738911D01*
X64345200Y-34843958D01*
X64422536Y-34940935D01*
X64510264Y-35028663D01*
X64607241Y-35105999D01*
X64607246Y-35106002D01*
X64607251Y-35106006D01*
X64712291Y-35172007D01*
X64824060Y-35225832D01*
X64860004Y-35238409D01*
X64941146Y-35266803D01*
X64941149Y-35266803D01*
X64941153Y-35266805D01*
X65062098Y-35294410D01*
X65164388Y-35305935D01*
X65185372Y-35308300D01*
X65185373Y-35308300D01*
X65309428Y-35308300D01*
X65327358Y-35306279D01*
X65432702Y-35294410D01*
X65553647Y-35266805D01*
X65670740Y-35225832D01*
X65782509Y-35172007D01*
X65887549Y-35106006D01*
X65887558Y-35105999D01*
X65984535Y-35028663D01*
X66072263Y-34940935D01*
X66149599Y-34843958D01*
X66149599Y-34843956D01*
X66149606Y-34843949D01*
X66215607Y-34738909D01*
X66269432Y-34627140D01*
X66310405Y-34510047D01*
X66338010Y-34389102D01*
X66351900Y-34265827D01*
X66351900Y-34141773D01*
X66338010Y-34018498D01*
X66310405Y-33897553D01*
X66269432Y-33780460D01*
X66215607Y-33668691D01*
X66149606Y-33563651D01*
X66149602Y-33563646D01*
X66149599Y-33563641D01*
X66072263Y-33466664D01*
X65984535Y-33378936D01*
X65887558Y-33301600D01*
X65887551Y-33301595D01*
X65887549Y-33301594D01*
X65782509Y-33235593D01*
X65670740Y-33181768D01*
X65670736Y-33181766D01*
X65670727Y-33181763D01*
X65553653Y-33140796D01*
X65432705Y-33113190D01*
X65309428Y-33099300D01*
X65309427Y-33099300D01*
X65185373Y-33099300D01*
X65185372Y-33099300D01*
X65062094Y-33113190D01*
X64941146Y-33140796D01*
X64824072Y-33181763D01*
X64824057Y-33181769D01*
X64712288Y-33235594D01*
X64607241Y-33301600D01*
X64510264Y-33378936D01*
X64422536Y-33466664D01*
X64345200Y-33563641D01*
X64279194Y-33668688D01*
X64225369Y-33780457D01*
X64225363Y-33780472D01*
X64184396Y-33897546D01*
X64156790Y-34018494D01*
X64142900Y-34141771D01*
X63811900Y-34141771D01*
X63798010Y-34018498D01*
X63770405Y-33897553D01*
X63729432Y-33780460D01*
X63675607Y-33668691D01*
X63609606Y-33563651D01*
X63609602Y-33563646D01*
X63609599Y-33563641D01*
X63532263Y-33466664D01*
X63444535Y-33378936D01*
X63347558Y-33301600D01*
X63347551Y-33301595D01*
X63347549Y-33301594D01*
X63242509Y-33235593D01*
X63130740Y-33181768D01*
X63130736Y-33181766D01*
X63130727Y-33181763D01*
X63013653Y-33140796D01*
X62892705Y-33113190D01*
X62769428Y-33099300D01*
X62769427Y-33099300D01*
X62645373Y-33099300D01*
X62645372Y-33099300D01*
X62522094Y-33113190D01*
X62401146Y-33140796D01*
X62284072Y-33181763D01*
X62284057Y-33181769D01*
X62172288Y-33235594D01*
X62067241Y-33301600D01*
X61970264Y-33378936D01*
X61882536Y-33466664D01*
X61805200Y-33563641D01*
X61739194Y-33668688D01*
X61685369Y-33780457D01*
X61685363Y-33780472D01*
X61644396Y-33897546D01*
X61616790Y-34018494D01*
X61602900Y-34141771D01*
X46449500Y-34141771D01*
X46449500Y-33272787D01*
X46449549Y-33269290D01*
X46450905Y-33220468D01*
X46452973Y-33145961D01*
X46453401Y-33138510D01*
X46472316Y-32922316D01*
X46473260Y-32914423D01*
X46505663Y-32701086D01*
X46507111Y-32693244D01*
X46552980Y-32482389D01*
X46554926Y-32474634D01*
X46575931Y-32400939D01*
X46614076Y-32267111D01*
X46616502Y-32259524D01*
X46688694Y-32056175D01*
X46691581Y-32048791D01*
X46776542Y-31850389D01*
X46779903Y-31843181D01*
X46877273Y-31650574D01*
X46881083Y-31643597D01*
X46905676Y-31601771D01*
X61602900Y-31601771D01*
X61602900Y-31725828D01*
X61616790Y-31849105D01*
X61644396Y-31970053D01*
X61685363Y-32087127D01*
X61685369Y-32087142D01*
X61739194Y-32198911D01*
X61805200Y-32303958D01*
X61882536Y-32400935D01*
X61970264Y-32488663D01*
X62067241Y-32565999D01*
X62067246Y-32566002D01*
X62067251Y-32566006D01*
X62172291Y-32632007D01*
X62284060Y-32685832D01*
X62305242Y-32693244D01*
X62401146Y-32726803D01*
X62401149Y-32726803D01*
X62401153Y-32726805D01*
X62522098Y-32754410D01*
X62624388Y-32765935D01*
X62645372Y-32768300D01*
X62645373Y-32768300D01*
X62769428Y-32768300D01*
X62787358Y-32766279D01*
X62892702Y-32754410D01*
X63013647Y-32726805D01*
X63130740Y-32685832D01*
X63242509Y-32632007D01*
X63347549Y-32566006D01*
X63399605Y-32524493D01*
X63444535Y-32488663D01*
X63532263Y-32400935D01*
X63609599Y-32303958D01*
X63609599Y-32303956D01*
X63609606Y-32303949D01*
X63675607Y-32198909D01*
X63729432Y-32087140D01*
X63769170Y-31973577D01*
X63770403Y-31970053D01*
X63770403Y-31970052D01*
X63770405Y-31970047D01*
X63798010Y-31849102D01*
X63811900Y-31725827D01*
X63811900Y-31601773D01*
X63811900Y-31601771D01*
X64142900Y-31601771D01*
X64142900Y-31725828D01*
X64156790Y-31849105D01*
X64184396Y-31970053D01*
X64225363Y-32087127D01*
X64225369Y-32087142D01*
X64279194Y-32198911D01*
X64345200Y-32303958D01*
X64422536Y-32400935D01*
X64510264Y-32488663D01*
X64607241Y-32565999D01*
X64607246Y-32566002D01*
X64607251Y-32566006D01*
X64712291Y-32632007D01*
X64824060Y-32685832D01*
X64845242Y-32693244D01*
X64941146Y-32726803D01*
X64941149Y-32726803D01*
X64941153Y-32726805D01*
X65062098Y-32754410D01*
X65164388Y-32765935D01*
X65185372Y-32768300D01*
X65185373Y-32768300D01*
X65309428Y-32768300D01*
X65327358Y-32766279D01*
X65432702Y-32754410D01*
X65553647Y-32726805D01*
X65670740Y-32685832D01*
X65782509Y-32632007D01*
X65887549Y-32566006D01*
X65939605Y-32524493D01*
X65984535Y-32488663D01*
X66072263Y-32400935D01*
X66149599Y-32303958D01*
X66149599Y-32303956D01*
X66149606Y-32303949D01*
X66215607Y-32198909D01*
X66269432Y-32087140D01*
X66309170Y-31973577D01*
X66310403Y-31970053D01*
X66310403Y-31970052D01*
X66310405Y-31970047D01*
X66338010Y-31849102D01*
X66351900Y-31725827D01*
X66351900Y-31601773D01*
X66338010Y-31478498D01*
X66310405Y-31357553D01*
X66269432Y-31240460D01*
X66215607Y-31128691D01*
X66149606Y-31023651D01*
X66149602Y-31023646D01*
X66149599Y-31023641D01*
X66072263Y-30926664D01*
X65984535Y-30838936D01*
X65887558Y-30761600D01*
X65887551Y-30761595D01*
X65887549Y-30761594D01*
X65782509Y-30695593D01*
X65670740Y-30641768D01*
X65670736Y-30641766D01*
X65670727Y-30641763D01*
X65553653Y-30600796D01*
X65432705Y-30573190D01*
X65309428Y-30559300D01*
X65309427Y-30559300D01*
X65185373Y-30559300D01*
X65185372Y-30559300D01*
X65062094Y-30573190D01*
X64941146Y-30600796D01*
X64824072Y-30641763D01*
X64824057Y-30641769D01*
X64712288Y-30695594D01*
X64607241Y-30761600D01*
X64510264Y-30838936D01*
X64422536Y-30926664D01*
X64345200Y-31023641D01*
X64279194Y-31128688D01*
X64225369Y-31240457D01*
X64225363Y-31240472D01*
X64184396Y-31357546D01*
X64156790Y-31478494D01*
X64142900Y-31601771D01*
X63811900Y-31601771D01*
X63798010Y-31478498D01*
X63770405Y-31357553D01*
X63729432Y-31240460D01*
X63675607Y-31128691D01*
X63609606Y-31023651D01*
X63609602Y-31023646D01*
X63609599Y-31023641D01*
X63532263Y-30926664D01*
X63444535Y-30838936D01*
X63347558Y-30761600D01*
X63347551Y-30761595D01*
X63347549Y-30761594D01*
X63242509Y-30695593D01*
X63130740Y-30641768D01*
X63130736Y-30641766D01*
X63130727Y-30641763D01*
X63013653Y-30600796D01*
X62892705Y-30573190D01*
X62769428Y-30559300D01*
X62769427Y-30559300D01*
X62645373Y-30559300D01*
X62645372Y-30559300D01*
X62522094Y-30573190D01*
X62401146Y-30600796D01*
X62284072Y-30641763D01*
X62284057Y-30641769D01*
X62172288Y-30695594D01*
X62067241Y-30761600D01*
X61970264Y-30838936D01*
X61882536Y-30926664D01*
X61805200Y-31023641D01*
X61739194Y-31128688D01*
X61685369Y-31240457D01*
X61685363Y-31240472D01*
X61644396Y-31357546D01*
X61616790Y-31478494D01*
X61602900Y-31601771D01*
X46905676Y-31601771D01*
X46990453Y-31457586D01*
X46994705Y-31450850D01*
X47115664Y-31272136D01*
X47120332Y-31265688D01*
X47252377Y-31095009D01*
X47257462Y-31088852D01*
X47257464Y-31088850D01*
X47400069Y-30926889D01*
X47405511Y-30921091D01*
X47558096Y-30768506D01*
X47563905Y-30763055D01*
X47725872Y-30620444D01*
X47731992Y-30615391D01*
X47902700Y-30483324D01*
X47909130Y-30478668D01*
X48087850Y-30357705D01*
X48094586Y-30353453D01*
X48280602Y-30244080D01*
X48287579Y-30240270D01*
X48480180Y-30142903D01*
X48487388Y-30139542D01*
X48685791Y-30054581D01*
X48693175Y-30051693D01*
X48896540Y-29979496D01*
X48904126Y-29977070D01*
X49111647Y-29917921D01*
X49119383Y-29915979D01*
X49330259Y-29870107D01*
X49338086Y-29868663D01*
X49551415Y-29836262D01*
X49559322Y-29835315D01*
X49775521Y-29816400D01*
X49782971Y-29815972D01*
X49902375Y-29812657D01*
X49906273Y-29812549D01*
X49909770Y-29812500D01*
X102038211Y-29812500D01*
X102041708Y-29812549D01*
G37*
%TD.AperFunction*%
%TD*%
M02*
