M48
; DRILL file KiCad 10.0.0 date 2026-09-30T06:09:49
; FORMAT={-:-/ absolute / metric / decimal}
; #@! TF.CreationDate,2026-09-30T06:09:49-07:00
; #@! TF.GenerationSoftware,Kicad,Pcbnew,10.0.0
; #@! TF.FileFunction,Plated,1,4,PTH
FMAT,2
METRIC
; #@! TA.AperFunction,Plated,PTH,ViaDrill
T1C0.305
; #@! TA.AperFunction,Plated,PTH,ComponentDrill
T2C0.305
; #@! TA.AperFunction,Plated,PTH,ComponentDrill
T3C0.400
; #@! TA.AperFunction,Plated,PTH,ComponentDrill
T4C0.600
; #@! TA.AperFunction,Plated,PTH,ComponentDrill
T5C0.750
; #@! TA.AperFunction,Plated,PTH,ComponentDrill
T6C1.000
; #@! TA.AperFunction,Plated,PTH,ComponentDrill
T7C3.200
%
G90
G05
T1
X46.8Y-33.555
X46.8Y-35.16
X46.812Y-36.855
X46.812Y-38.461
X46.812Y-40.066
X46.812Y-41.671
X46.812Y-43.276
X46.812Y-44.881
X46.812Y-46.486
X46.812Y-48.091
X46.812Y-49.696
X46.812Y-51.301
X46.812Y-52.906
X46.812Y-54.512
X46.812Y-56.117
X46.812Y-57.722
X46.812Y-59.327
X46.812Y-60.932
X46.812Y-64.142
X46.812Y-65.747
X46.812Y-67.352
X46.812Y-68.957
X46.812Y-72.168
X46.812Y-73.773
X46.812Y-75.378
X46.812Y-76.983
X46.812Y-78.588
X46.812Y-80.193
X46.812Y-81.798
X46.812Y-83.403
X46.85Y-84.7
X47.0Y-86.4
X47.2Y-31.801
X48.514Y-36.982
X48.55Y-88.15
X48.95Y-30.35
X49.098Y-73.914
X49.251Y-79.096
X49.428Y-69.901
X50.038Y-81.839
X50.304Y-88.55
X50.495Y-37.414
X50.95Y-30.15
X52.045Y-82.22
X52.176Y-88.468
X52.273Y-37.059
X52.781Y-30.175
X53.162Y-87.122
X53.238Y-83.363
X53.289Y-31.852
X53.416Y-35.865
X53.594Y-85.141
X53.797Y-33.858
X53.797Y-88.468
X54.403Y-30.175
X55.419Y-88.468
X56.024Y-30.175
X57.04Y-88.468
X57.607Y-71.577
X57.646Y-30.175
X58.166Y-74.295
X58.662Y-88.468
X59.131Y-76.403
X59.267Y-30.175
X59.302Y-41.707
X59.835Y-43.282
X60.283Y-88.468
X60.889Y-30.175
X61.32Y-47.16
X61.722Y-42.951
X61.905Y-88.468
X62.51Y-30.175
X62.84Y-40.996
X63.195Y-73.736
X63.195Y-74.473
X63.527Y-88.468
X63.83Y-76.276
X63.881Y-50.114
X64.132Y-30.175
X65.148Y-88.468
X65.151Y-77.978
X65.634Y-51.283
X65.753Y-30.175
X66.77Y-88.468
X67.375Y-30.175
X67.412Y-41.91
X67.513Y-40.335
X68.391Y-88.468
X68.996Y-30.175
X69.063Y-71.399
X70.013Y-88.468
X70.618Y-30.175
X71.222Y-43.459
X71.45Y-47.142
X71.634Y-88.468
X72.24Y-30.175
X72.898Y-48.133
X73.256Y-88.468
X73.861Y-30.175
X74.701Y-64.516
X74.877Y-88.468
X75.483Y-30.175
X75.641Y-69.571
X76.454Y-61.062
X76.499Y-88.468
X76.683Y-72.746
X77.104Y-30.175
X77.343Y-59.004
X78.003Y-56.744
X78.12Y-88.468
X78.726Y-30.175
X79.742Y-88.468
X80.347Y-30.175
X80.543Y-80.95
X81.363Y-88.468
X81.534Y-63.703
X81.864Y-60.503
X81.969Y-30.175
X82.985Y-88.468
X83.083Y-46.66
X83.59Y-30.175
X83.896Y-75.768
X84.606Y-88.468
X84.684Y-63.729
X84.955Y-85.462
X85.212Y-30.175
X86.228Y-88.468
X86.809Y-79.01
X86.833Y-30.175
X87.02Y-72.822
X87.122Y-39.548
X87.849Y-88.468
X88.01Y-70.98
X88.455Y-30.175
X89.188Y-76.291
X89.471Y-88.468
X90.076Y-30.175
X90.534Y-79.44
X90.602Y-82.779
X91.093Y-88.468
X91.11Y-46.66
X91.618Y-86.614
X91.698Y-30.175
X92.075Y-37.205
X92.685Y-38.506
X92.714Y-88.468
X93.015Y-36.5
X93.319Y-30.175
X93.608Y-76.316
X94.336Y-88.468
X94.429Y-74.2
X94.941Y-30.175
X95.25Y-70.841
X95.957Y-88.468
X96.562Y-30.175
X97.579Y-88.468
X98.019Y-34.087
X98.184Y-30.175
X98.196Y-85.903
X98.247Y-84.48
X98.374Y-35.865
X98.45Y-32.106
X98.654Y-83.312
X98.654Y-87.147
X99.2Y-88.468
X99.568Y-37.008
X99.806Y-30.175
X99.966Y-71.39
X100.559Y-81.94
X101.0Y-88.51
X101.575Y-37.389
X101.805Y-30.2
X101.956Y-81.763
X103.0Y-88.31
X103.378Y-82.093
X103.559Y-30.6
X103.581Y-36.881
X104.75Y-86.859
X105.01Y-32.35
X105.131Y-83.356
X105.15Y-34.35
X105.15Y-85.105
X105.156Y-36.017
X105.156Y-37.63
X105.156Y-39.243
X105.156Y-40.856
X105.156Y-42.468
X105.156Y-44.081
X105.156Y-45.694
X105.156Y-47.307
X105.156Y-48.919
X105.156Y-50.532
X105.156Y-52.145
X105.156Y-53.758
X105.156Y-55.37
X105.156Y-56.983
X105.156Y-58.596
X105.156Y-60.209
X105.156Y-61.822
X105.156Y-63.434
X105.156Y-65.047
X105.156Y-66.66
X105.156Y-68.273
X105.156Y-69.885
X105.156Y-71.498
X105.156Y-73.111
X105.156Y-74.724
X105.156Y-76.336
X105.156Y-77.949
X105.156Y-79.562
X105.156Y-81.175
T2
X60.189Y-73.899
X60.189Y-74.687
X60.977Y-73.899
X60.977Y-74.687
X62.107Y-44.694
X62.107Y-46.094
X62.407Y-45.394
X62.707Y-44.694
X62.707Y-46.094
X77.741Y-65.615
T3
X50.33Y-63.58
X50.33Y-64.43
X50.33Y-65.28
X50.33Y-66.13
X50.33Y-66.98
X50.33Y-67.83
X50.33Y-68.68
X50.33Y-69.53
X51.68Y-63.58
X51.68Y-64.43
X51.68Y-65.28
X51.68Y-66.13
X51.68Y-66.98
X51.68Y-67.83
X51.68Y-68.68
X51.68Y-69.53
T5
X70.711Y-81.709
X72.711Y-81.709
T6
X48.8Y-45.86
X48.8Y-48.4
X62.707Y-31.664
X62.707Y-34.204
X62.707Y-36.744
X62.707Y-39.284
X65.247Y-31.664
X65.247Y-34.204
X65.247Y-36.744
X65.247Y-39.284
T7
X50.14Y-33.68
X50.14Y-85.217
X101.625Y-33.68
X101.625Y-85.217
T4
G00X47.72Y-62.23
M15
G01X46.92Y-62.23
M16
G05
G00X47.72Y-70.88
M15
G01X46.92Y-70.88
M16
G05
G00X51.45Y-62.23
M15
G01X49.95Y-62.23
M16
G05
G00X51.45Y-70.88
M15
G01X49.95Y-70.88
M16
G05
M30
