%TF.GenerationSoftware,KiCad,Pcbnew,10.0.0*%
%TF.CreationDate,2026-09-30T06:09:51-07:00*%
%TF.ProjectId,headphone_amp,68656164-7068-46f6-9e65-5f616d702e6b,rev?*%
%TF.SameCoordinates,Original*%
%TF.FileFunction,Soldermask,Bot*%
%TF.FilePolarity,Negative*%
%FSLAX46Y46*%
G04 Gerber Fmt 4.6, Leading zero omitted, Abs format (unit mm)*
G04 Created by KiCad (PCBNEW 10.0.0) date 2026-09-30 06:09:51*
%MOMM*%
%LPD*%
G01*
G04 APERTURE LIST*
G04 Aperture macros list*
%AMRoundRect*
0 Rectangle with rounded corners*
0 $1 Rounding radius*
0 $2 $3 $4 $5 $6 $7 $8 $9 X,Y pos of 4 corners*
0 Add a 4 corners polygon primitive as box body*
4,1,4,$2,$3,$4,$5,$6,$7,$8,$9,$2,$3,0*
0 Add four circle primitives for the rounded corners*
1,1,$1+$1,$2,$3*
1,1,$1+$1,$4,$5*
1,1,$1+$1,$6,$7*
1,1,$1+$1,$8,$9*
0 Add four rect primitives between the rounded corners*
20,1,$1+$1,$2,$3,$4,$5,0*
20,1,$1+$1,$4,$5,$6,$7,0*
20,1,$1+$1,$6,$7,$8,$9,0*
20,1,$1+$1,$8,$9,$2,$3,0*%
G04 Aperture macros list end*
%ADD10R,1.700000X1.700000*%
%ADD11C,1.700000*%
%ADD12C,5.600000*%
%ADD13C,0.609600*%
%ADD14C,0.660400*%
%ADD15C,0.700000*%
%ADD16O,2.400000X0.900000*%
%ADD17O,1.700000X0.900000*%
%ADD18C,0.558800*%
%ADD19RoundRect,0.250000X-0.350000X-0.625000X0.350000X-0.625000X0.350000X0.625000X-0.350000X0.625000X0*%
%ADD20O,1.200000X1.750000*%
%ADD21C,1.701800*%
%ADD22C,3.000000*%
G04 APERTURE END LIST*
D10*
%TO.C,J5*%
X48800000Y-48400000D03*
D11*
X48800000Y-45860000D03*
%TD*%
D12*
%TO.C,H2*%
X101625400Y-33680400D03*
%TD*%
D10*
%TO.C,J7*%
X62707400Y-39283800D03*
D11*
X65247400Y-39283800D03*
X62707400Y-36743800D03*
X65247400Y-36743800D03*
X62707400Y-34203800D03*
X65247400Y-34203800D03*
X62707400Y-31663800D03*
X65247400Y-31663800D03*
%TD*%
D12*
%TO.C,H4*%
X101625400Y-85217000D03*
%TD*%
D13*
%TO.C,U1*%
X60189237Y-73899499D03*
D14*
X60189237Y-74686899D03*
D13*
X60976637Y-73899499D03*
X60976637Y-74686899D03*
%TD*%
D12*
%TO.C,H1*%
X50139600Y-33680400D03*
%TD*%
%TO.C,H3*%
X50139600Y-85217000D03*
%TD*%
D15*
%TO.C,J1*%
X51680200Y-63580000D03*
X51680200Y-64430000D03*
X51680200Y-65280000D03*
X51680200Y-66130000D03*
X51680200Y-66980000D03*
X51680200Y-67830000D03*
X51680200Y-68680000D03*
X51680200Y-69530000D03*
X50330200Y-69530000D03*
X50330200Y-68680000D03*
X50330200Y-67830000D03*
X50330200Y-66980000D03*
X50330200Y-66130000D03*
X50330200Y-65280000D03*
X50330200Y-64430000D03*
X50330200Y-63580000D03*
D16*
X50700200Y-62230000D03*
D17*
X47320200Y-62230000D03*
D16*
X50700200Y-70880000D03*
D17*
X47320200Y-70880000D03*
%TD*%
D18*
%TO.C,U2*%
X62107401Y-44693799D03*
X62107401Y-46093799D03*
X62407404Y-45393799D03*
X62707401Y-44693799D03*
X62707401Y-46093799D03*
%TD*%
D11*
%TO.C,J8*%
X101788600Y-64592200D03*
X94788600Y-64592200D03*
%TD*%
D19*
%TO.C,J2*%
X70711000Y-81709000D03*
D20*
X72711000Y-81709000D03*
%TD*%
D21*
%TO.C,J10*%
X49994700Y-53640000D03*
X56994700Y-53640000D03*
%TD*%
D22*
%TO.C,FID3*%
X100558600Y-74422000D03*
%TD*%
%TO.C,FID2*%
X83947000Y-35052000D03*
%TD*%
%TO.C,FID1*%
X60401200Y-82905600D03*
%TD*%
M02*
