%TF.GenerationSoftware,KiCad,Pcbnew,10.0.0*%
%TF.CreationDate,2026-09-30T06:09:51-07:00*%
%TF.ProjectId,headphone_amp,68656164-7068-46f6-9e65-5f616d702e6b,rev?*%
%TF.SameCoordinates,Original*%
%TF.FileFunction,Legend,Bot*%
%TF.FilePolarity,Positive*%
%FSLAX46Y46*%
G04 Gerber Fmt 4.6, Leading zero omitted, Abs format (unit mm)*
G04 Created by KiCad (PCBNEW 10.0.0) date 2026-09-30 06:09:51*
%MOMM*%
%LPD*%
G01*
G04 APERTURE LIST*
%ADD10C,0.101600*%
G04 APERTURE END LIST*
D10*
X101375028Y-71920088D02*
X101629028Y-71920088D01*
X101629028Y-72319231D02*
X101629028Y-71557231D01*
X101629028Y-71557231D02*
X101266171Y-71557231D01*
X100975885Y-72319231D02*
X100975885Y-71557231D01*
X100613028Y-72319231D02*
X100613028Y-71557231D01*
X100613028Y-71557231D02*
X100431599Y-71557231D01*
X100431599Y-71557231D02*
X100322742Y-71593517D01*
X100322742Y-71593517D02*
X100250171Y-71666088D01*
X100250171Y-71666088D02*
X100213885Y-71738660D01*
X100213885Y-71738660D02*
X100177599Y-71883803D01*
X100177599Y-71883803D02*
X100177599Y-71992660D01*
X100177599Y-71992660D02*
X100213885Y-72137803D01*
X100213885Y-72137803D02*
X100250171Y-72210374D01*
X100250171Y-72210374D02*
X100322742Y-72282946D01*
X100322742Y-72282946D02*
X100431599Y-72319231D01*
X100431599Y-72319231D02*
X100613028Y-72319231D01*
X99923599Y-71557231D02*
X99451885Y-71557231D01*
X99451885Y-71557231D02*
X99705885Y-71847517D01*
X99705885Y-71847517D02*
X99597028Y-71847517D01*
X99597028Y-71847517D02*
X99524457Y-71883803D01*
X99524457Y-71883803D02*
X99488171Y-71920088D01*
X99488171Y-71920088D02*
X99451885Y-71992660D01*
X99451885Y-71992660D02*
X99451885Y-72174088D01*
X99451885Y-72174088D02*
X99488171Y-72246660D01*
X99488171Y-72246660D02*
X99524457Y-72282946D01*
X99524457Y-72282946D02*
X99597028Y-72319231D01*
X99597028Y-72319231D02*
X99814742Y-72319231D01*
X99814742Y-72319231D02*
X99887314Y-72282946D01*
X99887314Y-72282946D02*
X99923599Y-72246660D01*
X84763428Y-32550088D02*
X85017428Y-32550088D01*
X85017428Y-32949231D02*
X85017428Y-32187231D01*
X85017428Y-32187231D02*
X84654571Y-32187231D01*
X84364285Y-32949231D02*
X84364285Y-32187231D01*
X84001428Y-32949231D02*
X84001428Y-32187231D01*
X84001428Y-32187231D02*
X83819999Y-32187231D01*
X83819999Y-32187231D02*
X83711142Y-32223517D01*
X83711142Y-32223517D02*
X83638571Y-32296088D01*
X83638571Y-32296088D02*
X83602285Y-32368660D01*
X83602285Y-32368660D02*
X83565999Y-32513803D01*
X83565999Y-32513803D02*
X83565999Y-32622660D01*
X83565999Y-32622660D02*
X83602285Y-32767803D01*
X83602285Y-32767803D02*
X83638571Y-32840374D01*
X83638571Y-32840374D02*
X83711142Y-32912946D01*
X83711142Y-32912946D02*
X83819999Y-32949231D01*
X83819999Y-32949231D02*
X84001428Y-32949231D01*
X83275714Y-32259803D02*
X83239428Y-32223517D01*
X83239428Y-32223517D02*
X83166857Y-32187231D01*
X83166857Y-32187231D02*
X82985428Y-32187231D01*
X82985428Y-32187231D02*
X82912857Y-32223517D01*
X82912857Y-32223517D02*
X82876571Y-32259803D01*
X82876571Y-32259803D02*
X82840285Y-32332374D01*
X82840285Y-32332374D02*
X82840285Y-32404946D01*
X82840285Y-32404946D02*
X82876571Y-32513803D01*
X82876571Y-32513803D02*
X83311999Y-32949231D01*
X83311999Y-32949231D02*
X82840285Y-32949231D01*
X61217628Y-80403688D02*
X61471628Y-80403688D01*
X61471628Y-80802831D02*
X61471628Y-80040831D01*
X61471628Y-80040831D02*
X61108771Y-80040831D01*
X60818485Y-80802831D02*
X60818485Y-80040831D01*
X60455628Y-80802831D02*
X60455628Y-80040831D01*
X60455628Y-80040831D02*
X60274199Y-80040831D01*
X60274199Y-80040831D02*
X60165342Y-80077117D01*
X60165342Y-80077117D02*
X60092771Y-80149688D01*
X60092771Y-80149688D02*
X60056485Y-80222260D01*
X60056485Y-80222260D02*
X60020199Y-80367403D01*
X60020199Y-80367403D02*
X60020199Y-80476260D01*
X60020199Y-80476260D02*
X60056485Y-80621403D01*
X60056485Y-80621403D02*
X60092771Y-80693974D01*
X60092771Y-80693974D02*
X60165342Y-80766546D01*
X60165342Y-80766546D02*
X60274199Y-80802831D01*
X60274199Y-80802831D02*
X60455628Y-80802831D01*
X59294485Y-80802831D02*
X59729914Y-80802831D01*
X59512199Y-80802831D02*
X59512199Y-80040831D01*
X59512199Y-80040831D02*
X59584771Y-80149688D01*
X59584771Y-80149688D02*
X59657342Y-80222260D01*
X59657342Y-80222260D02*
X59729914Y-80258546D01*
M02*
