%TF.GenerationSoftware,KiCad,Pcbnew,10.0.0*%
%TF.CreationDate,2026-09-30T06:09:51-07:00*%
%TF.ProjectId,headphone_amp,68656164-7068-46f6-9e65-5f616d702e6b,rev?*%
%TF.SameCoordinates,Original*%
%TF.FileFunction,Soldermask,Top*%
%TF.FilePolarity,Negative*%
%FSLAX46Y46*%
G04 Gerber Fmt 4.6, Leading zero omitted, Abs format (unit mm)*
G04 Created by KiCad (PCBNEW 10.0.0) date 2026-09-30 06:09:51*
%MOMM*%
%LPD*%
G01*
G04 APERTURE LIST*
G04 Aperture macros list*
%AMRoundRect*
0 Rectangle with rounded corners*
0 $1 Rounding radius*
0 $2 $3 $4 $5 $6 $7 $8 $9 X,Y pos of 4 corners*
0 Add a 4 corners polygon primitive as box body*
4,1,4,$2,$3,$4,$5,$6,$7,$8,$9,$2,$3,0*
0 Add four circle primitives for the rounded corners*
1,1,$1+$1,$2,$3*
1,1,$1+$1,$4,$5*
1,1,$1+$1,$6,$7*
1,1,$1+$1,$8,$9*
0 Add four rect primitives between the rounded corners*
20,1,$1+$1,$2,$3,$4,$5,0*
20,1,$1+$1,$4,$5,$6,$7,0*
20,1,$1+$1,$6,$7,$8,$9,0*
20,1,$1+$1,$8,$9,$2,$3,0*%
%AMFreePoly0*
4,1,6,1.000000,0.000000,0.500000,-0.750000,-0.500000,-0.750000,-0.500000,0.750000,0.500000,0.750000,1.000000,0.000000,1.000000,0.000000,$1*%
%AMFreePoly1*
4,1,6,0.500000,-0.750000,-0.650000,-0.750000,-0.150000,0.000000,-0.650000,0.750000,0.500000,0.750000,0.500000,-0.750000,0.500000,-0.750000,$1*%
G04 Aperture macros list end*
%ADD10C,0.000000*%
%ADD11C,0.100000*%
%ADD12RoundRect,0.140000X0.170000X-0.140000X0.170000X0.140000X-0.170000X0.140000X-0.170000X-0.140000X0*%
%ADD13RoundRect,0.150000X0.512500X0.150000X-0.512500X0.150000X-0.512500X-0.150000X0.512500X-0.150000X0*%
%ADD14FreePoly0,90.000000*%
%ADD15FreePoly1,90.000000*%
%ADD16RoundRect,0.135000X-0.185000X0.135000X-0.185000X-0.135000X0.185000X-0.135000X0.185000X0.135000X0*%
%ADD17R,1.700000X1.700000*%
%ADD18C,1.700000*%
%ADD19RoundRect,0.135000X0.135000X0.185000X-0.135000X0.185000X-0.135000X-0.185000X0.135000X-0.185000X0*%
%ADD20RoundRect,0.135000X0.185000X-0.135000X0.185000X0.135000X-0.185000X0.135000X-0.185000X-0.135000X0*%
%ADD21RoundRect,0.100000X-0.637500X-0.100000X0.637500X-0.100000X0.637500X0.100000X-0.637500X0.100000X0*%
%ADD22RoundRect,0.225000X-0.225000X-0.250000X0.225000X-0.250000X0.225000X0.250000X-0.225000X0.250000X0*%
%ADD23RoundRect,0.140000X0.140000X0.170000X-0.140000X0.170000X-0.140000X-0.170000X0.140000X-0.170000X0*%
%ADD24RoundRect,0.100000X0.637500X0.100000X-0.637500X0.100000X-0.637500X-0.100000X0.637500X-0.100000X0*%
%ADD25RoundRect,0.140000X-0.140000X-0.170000X0.140000X-0.170000X0.140000X0.170000X-0.140000X0.170000X0*%
%ADD26RoundRect,0.250000X-0.475000X0.250000X-0.475000X-0.250000X0.475000X-0.250000X0.475000X0.250000X0*%
%ADD27C,5.600000*%
%ADD28RoundRect,0.135000X-0.135000X-0.185000X0.135000X-0.185000X0.135000X0.185000X-0.135000X0.185000X0*%
%ADD29RoundRect,0.140000X-0.170000X0.140000X-0.170000X-0.140000X0.170000X-0.140000X0.170000X0.140000X0*%
%ADD30C,3.000000*%
%ADD31RoundRect,0.225000X0.250000X-0.225000X0.250000X0.225000X-0.250000X0.225000X-0.250000X-0.225000X0*%
%ADD32O,0.280000X0.850000*%
%ADD33R,0.700000X0.280000*%
%ADD34R,2.400000X1.650000*%
%ADD35RoundRect,0.250000X-0.325000X-1.100000X0.325000X-1.100000X0.325000X1.100000X-0.325000X1.100000X0*%
%ADD36RoundRect,0.150000X-0.150000X-0.625000X0.150000X-0.625000X0.150000X0.625000X-0.150000X0.625000X0*%
%ADD37RoundRect,0.250000X-0.350000X-0.650000X0.350000X-0.650000X0.350000X0.650000X-0.350000X0.650000X0*%
%ADD38RoundRect,0.150000X-0.825000X-0.150000X0.825000X-0.150000X0.825000X0.150000X-0.825000X0.150000X0*%
%ADD39RoundRect,0.147500X-0.147500X-0.172500X0.147500X-0.172500X0.147500X0.172500X-0.147500X0.172500X0*%
%ADD40RoundRect,0.225000X0.225000X0.250000X-0.225000X0.250000X-0.225000X-0.250000X0.225000X-0.250000X0*%
%ADD41RoundRect,0.147500X0.147500X0.172500X-0.147500X0.172500X-0.147500X-0.172500X0.147500X-0.172500X0*%
%ADD42FreePoly0,270.000000*%
%ADD43FreePoly1,270.000000*%
%ADD44R,0.850000X0.280000*%
%ADD45R,0.280000X0.850000*%
%ADD46C,0.609600*%
%ADD47C,0.660400*%
%ADD48RoundRect,0.225000X0.225000X0.375000X-0.225000X0.375000X-0.225000X-0.375000X0.225000X-0.375000X0*%
%ADD49RoundRect,0.147500X0.172500X-0.147500X0.172500X0.147500X-0.172500X0.147500X-0.172500X-0.147500X0*%
%ADD50RoundRect,0.218750X-0.218750X-0.256250X0.218750X-0.256250X0.218750X0.256250X-0.218750X0.256250X0*%
%ADD51RoundRect,0.225000X-0.225000X-0.375000X0.225000X-0.375000X0.225000X0.375000X-0.225000X0.375000X0*%
%ADD52RoundRect,0.150000X-0.150000X0.587500X-0.150000X-0.587500X0.150000X-0.587500X0.150000X0.587500X0*%
%ADD53RoundRect,0.150000X-0.150000X-0.700000X0.150000X-0.700000X0.150000X0.700000X-0.150000X0.700000X0*%
%ADD54RoundRect,0.250000X-0.250000X-1.100000X0.250000X-1.100000X0.250000X1.100000X-0.250000X1.100000X0*%
%ADD55RoundRect,0.102000X0.800000X-1.750000X0.800000X1.750000X-0.800000X1.750000X-0.800000X-1.750000X0*%
%ADD56RoundRect,0.250000X-0.650000X0.250000X-0.650000X-0.250000X0.650000X-0.250000X0.650000X0.250000X0*%
%ADD57C,0.700000*%
%ADD58O,2.400000X0.900000*%
%ADD59O,1.700000X0.900000*%
%ADD60R,0.812800X0.254000*%
%ADD61R,0.254000X0.812800*%
%ADD62R,1.651000X1.143000*%
%ADD63RoundRect,0.250000X-1.100000X0.325000X-1.100000X-0.325000X1.100000X-0.325000X1.100000X0.325000X0*%
%ADD64O,0.700001X0.249999*%
%ADD65C,0.558800*%
%ADD66R,1.200000X2.000001*%
%ADD67RoundRect,0.250000X0.850000X-0.375000X0.850000X0.375000X-0.850000X0.375000X-0.850000X-0.375000X0*%
%ADD68RoundRect,0.225000X-0.250000X0.225000X-0.250000X-0.225000X0.250000X-0.225000X0.250000X0.225000X0*%
%ADD69R,2.200000X2.800000*%
%ADD70R,2.800000X2.800000*%
%ADD71R,1.346200X1.269581*%
%ADD72RoundRect,0.062500X-0.062500X0.117500X-0.062500X-0.117500X0.062500X-0.117500X0.062500X0.117500X0*%
%ADD73RoundRect,0.250000X-0.350000X-0.625000X0.350000X-0.625000X0.350000X0.625000X-0.350000X0.625000X0*%
%ADD74O,1.200000X1.750000*%
%ADD75C,1.701800*%
%ADD76R,2.209800X2.590800*%
%ADD77R,2.590800X2.209800*%
G04 APERTURE END LIST*
%TO.C,JP1*%
G36*
X58857400Y-34163800D02*
G01*
X60357400Y-34163800D01*
X60357400Y-36613800D01*
X58857400Y-36613800D01*
X58857400Y-34163800D01*
G37*
%TO.C,JP2*%
G36*
X67647400Y-34323800D02*
G01*
X69147400Y-34323800D01*
X69147400Y-36773800D01*
X67647400Y-36773800D01*
X67647400Y-34323800D01*
G37*
D10*
%TO.C,U1*%
G36*
X59602533Y-73752796D02*
G01*
X58613342Y-73752796D01*
X58613342Y-73333602D01*
X59602533Y-73333602D01*
X59602533Y-73752796D01*
G37*
G36*
X59602533Y-74252795D02*
G01*
X58613342Y-74252795D01*
X58613342Y-73833604D01*
X59602533Y-73833604D01*
X59602533Y-74252795D01*
G37*
G36*
X59602533Y-74752794D02*
G01*
X58613342Y-74752794D01*
X58613342Y-74333603D01*
X59602533Y-74333603D01*
X59602533Y-74752794D01*
G37*
G36*
X59602533Y-75252796D02*
G01*
X58613342Y-75252796D01*
X58613342Y-74833602D01*
X59602533Y-74833602D01*
X59602533Y-75252796D01*
G37*
G36*
X60042344Y-73312795D02*
G01*
X59623152Y-73312795D01*
X59623152Y-72323604D01*
X60042344Y-72323604D01*
X60042344Y-73312795D01*
G37*
G36*
X60042344Y-76262794D02*
G01*
X59623152Y-76262794D01*
X59623152Y-75273603D01*
X60042344Y-75273603D01*
X60042344Y-76262794D01*
G37*
G36*
X59989237Y-75206699D02*
G01*
X59669437Y-75206699D01*
X59669437Y-73379699D01*
X59989237Y-73379699D01*
X59989237Y-75206699D01*
G37*
G36*
X61496437Y-73699499D02*
G01*
X59669437Y-73699499D01*
X59669437Y-73379699D01*
X61496437Y-73379699D01*
X61496437Y-73699499D01*
G37*
G36*
X61496437Y-74486899D02*
G01*
X59669437Y-74486899D01*
X59669437Y-74099499D01*
X61496437Y-74099499D01*
X61496437Y-74486899D01*
G37*
G36*
X61496437Y-75206699D02*
G01*
X59669437Y-75206699D01*
X59669437Y-74886899D01*
X61496437Y-74886899D01*
X61496437Y-75206699D01*
G37*
G36*
X60542470Y-73312795D02*
G01*
X60123278Y-73312795D01*
X60123278Y-72323604D01*
X60542470Y-72323604D01*
X60542470Y-73312795D01*
G37*
G36*
X60542470Y-76262794D02*
G01*
X60123278Y-76262794D01*
X60123278Y-75273603D01*
X60542470Y-75273603D01*
X60542470Y-76262794D01*
G37*
G36*
X61042596Y-73312795D02*
G01*
X60623404Y-73312795D01*
X60623404Y-72323604D01*
X61042596Y-72323604D01*
X61042596Y-73312795D01*
G37*
G36*
X61042596Y-76262794D02*
G01*
X60623404Y-76262794D01*
X60623404Y-75273603D01*
X61042596Y-75273603D01*
X61042596Y-76262794D01*
G37*
G36*
X60776637Y-75206699D02*
G01*
X60389237Y-75206699D01*
X60389237Y-73379699D01*
X60776637Y-73379699D01*
X60776637Y-75206699D01*
G37*
G36*
X61542722Y-73312795D02*
G01*
X61123530Y-73312795D01*
X61123530Y-72323604D01*
X61542722Y-72323604D01*
X61542722Y-73312795D01*
G37*
G36*
X61542722Y-76262794D02*
G01*
X61123530Y-76262794D01*
X61123530Y-75273603D01*
X61542722Y-75273603D01*
X61542722Y-76262794D01*
G37*
G36*
X61496437Y-75206699D02*
G01*
X61176637Y-75206699D01*
X61176637Y-73379699D01*
X61496437Y-73379699D01*
X61496437Y-75206699D01*
G37*
G36*
X62552532Y-73752796D02*
G01*
X61563341Y-73752796D01*
X61563341Y-73333602D01*
X62552532Y-73333602D01*
X62552532Y-73752796D01*
G37*
G36*
X62552532Y-74252795D02*
G01*
X61563341Y-74252795D01*
X61563341Y-73833604D01*
X62552532Y-73833604D01*
X62552532Y-74252795D01*
G37*
G36*
X62552532Y-74752794D02*
G01*
X61563341Y-74752794D01*
X61563341Y-74333603D01*
X62552532Y-74333603D01*
X62552532Y-74752794D01*
G37*
G36*
X62552532Y-75252796D02*
G01*
X61563341Y-75252796D01*
X61563341Y-74833602D01*
X62552532Y-74833602D01*
X62552532Y-75252796D01*
G37*
D11*
%TO.C,U5*%
X76603800Y-64675600D02*
X76609800Y-64675600D01*
X76615800Y-64677600D01*
X76621800Y-64678600D01*
X76627800Y-64680600D01*
X76633800Y-64682600D01*
X76639800Y-64684600D01*
X76644800Y-64687600D01*
X76650800Y-64690600D01*
X76655800Y-64693600D01*
X76661800Y-64697600D01*
X76666800Y-64701600D01*
X76670800Y-64705600D01*
X76675800Y-64709600D01*
X76679800Y-64714600D01*
X76683800Y-64718600D01*
X76687800Y-64723600D01*
X76691800Y-64729600D01*
X76694800Y-64734600D01*
X76697800Y-64740600D01*
X76700800Y-64745600D01*
X76702800Y-64751600D01*
X76704800Y-64757600D01*
X76706800Y-64763600D01*
X76707800Y-64769600D01*
X76709800Y-64775600D01*
X76709800Y-64781600D01*
X76710800Y-64788600D01*
X76710800Y-64794600D01*
X76710800Y-64934600D01*
X76710800Y-64940600D01*
X76709800Y-64947600D01*
X76709800Y-64953600D01*
X76707800Y-64959600D01*
X76706800Y-64965600D01*
X76704800Y-64971600D01*
X76702800Y-64977600D01*
X76700800Y-64983600D01*
X76697800Y-64988600D01*
X76694800Y-64994600D01*
X76691800Y-64999600D01*
X76687800Y-65005600D01*
X76683800Y-65010600D01*
X76679800Y-65014600D01*
X76675800Y-65019600D01*
X76670800Y-65023600D01*
X76666800Y-65027600D01*
X76661800Y-65031600D01*
X76655800Y-65035600D01*
X76650800Y-65038600D01*
X76644800Y-65041600D01*
X76639800Y-65044600D01*
X76633800Y-65046600D01*
X76627800Y-65048600D01*
X76621800Y-65050600D01*
X76615800Y-65051600D01*
X76609800Y-65053600D01*
X76603800Y-65053600D01*
X76596800Y-65054600D01*
X76590800Y-65054600D01*
X76090800Y-65054600D01*
X76084800Y-65054600D01*
X76077800Y-65053600D01*
X76071800Y-65053600D01*
X76065800Y-65051600D01*
X76059800Y-65050600D01*
X76053800Y-65048600D01*
X76047800Y-65046600D01*
X76041800Y-65044600D01*
X76036800Y-65041600D01*
X76030800Y-65038600D01*
X76025800Y-65035600D01*
X76019800Y-65031600D01*
X76014800Y-65027600D01*
X76010800Y-65023600D01*
X76005800Y-65019600D01*
X76001800Y-65014600D01*
X75997800Y-65010600D01*
X75993800Y-65005600D01*
X75989800Y-64999600D01*
X75986800Y-64994600D01*
X75983800Y-64988600D01*
X75980800Y-64983600D01*
X75978800Y-64977600D01*
X75976800Y-64971600D01*
X75974800Y-64965600D01*
X75973800Y-64959600D01*
X75971800Y-64953600D01*
X75971800Y-64947600D01*
X75970800Y-64940600D01*
X75970800Y-64934600D01*
X75970800Y-64794600D01*
X75970800Y-64788600D01*
X75971800Y-64781600D01*
X75971800Y-64775600D01*
X75973800Y-64769600D01*
X75974800Y-64763600D01*
X75976800Y-64757600D01*
X75978800Y-64751600D01*
X75980800Y-64745600D01*
X75983800Y-64740600D01*
X75986800Y-64734600D01*
X75989800Y-64729600D01*
X75993800Y-64723600D01*
X75997800Y-64718600D01*
X76001800Y-64714600D01*
X76005800Y-64709600D01*
X76010800Y-64705600D01*
X76014800Y-64701600D01*
X76019800Y-64697600D01*
X76025800Y-64693600D01*
X76030800Y-64690600D01*
X76036800Y-64687600D01*
X76041800Y-64684600D01*
X76047800Y-64682600D01*
X76053800Y-64680600D01*
X76059800Y-64678600D01*
X76065800Y-64677600D01*
X76071800Y-64675600D01*
X76077800Y-64675600D01*
X76084800Y-64674600D01*
X76090800Y-64674600D01*
X76590800Y-64674600D01*
X76596800Y-64674600D01*
X76603800Y-64675600D01*
G36*
X76603800Y-64675600D02*
G01*
X76609800Y-64675600D01*
X76615800Y-64677600D01*
X76621800Y-64678600D01*
X76627800Y-64680600D01*
X76633800Y-64682600D01*
X76639800Y-64684600D01*
X76644800Y-64687600D01*
X76650800Y-64690600D01*
X76655800Y-64693600D01*
X76661800Y-64697600D01*
X76666800Y-64701600D01*
X76670800Y-64705600D01*
X76675800Y-64709600D01*
X76679800Y-64714600D01*
X76683800Y-64718600D01*
X76687800Y-64723600D01*
X76691800Y-64729600D01*
X76694800Y-64734600D01*
X76697800Y-64740600D01*
X76700800Y-64745600D01*
X76702800Y-64751600D01*
X76704800Y-64757600D01*
X76706800Y-64763600D01*
X76707800Y-64769600D01*
X76709800Y-64775600D01*
X76709800Y-64781600D01*
X76710800Y-64788600D01*
X76710800Y-64794600D01*
X76710800Y-64934600D01*
X76710800Y-64940600D01*
X76709800Y-64947600D01*
X76709800Y-64953600D01*
X76707800Y-64959600D01*
X76706800Y-64965600D01*
X76704800Y-64971600D01*
X76702800Y-64977600D01*
X76700800Y-64983600D01*
X76697800Y-64988600D01*
X76694800Y-64994600D01*
X76691800Y-64999600D01*
X76687800Y-65005600D01*
X76683800Y-65010600D01*
X76679800Y-65014600D01*
X76675800Y-65019600D01*
X76670800Y-65023600D01*
X76666800Y-65027600D01*
X76661800Y-65031600D01*
X76655800Y-65035600D01*
X76650800Y-65038600D01*
X76644800Y-65041600D01*
X76639800Y-65044600D01*
X76633800Y-65046600D01*
X76627800Y-65048600D01*
X76621800Y-65050600D01*
X76615800Y-65051600D01*
X76609800Y-65053600D01*
X76603800Y-65053600D01*
X76596800Y-65054600D01*
X76590800Y-65054600D01*
X76090800Y-65054600D01*
X76084800Y-65054600D01*
X76077800Y-65053600D01*
X76071800Y-65053600D01*
X76065800Y-65051600D01*
X76059800Y-65050600D01*
X76053800Y-65048600D01*
X76047800Y-65046600D01*
X76041800Y-65044600D01*
X76036800Y-65041600D01*
X76030800Y-65038600D01*
X76025800Y-65035600D01*
X76019800Y-65031600D01*
X76014800Y-65027600D01*
X76010800Y-65023600D01*
X76005800Y-65019600D01*
X76001800Y-65014600D01*
X75997800Y-65010600D01*
X75993800Y-65005600D01*
X75989800Y-64999600D01*
X75986800Y-64994600D01*
X75983800Y-64988600D01*
X75980800Y-64983600D01*
X75978800Y-64977600D01*
X75976800Y-64971600D01*
X75974800Y-64965600D01*
X75973800Y-64959600D01*
X75971800Y-64953600D01*
X75971800Y-64947600D01*
X75970800Y-64940600D01*
X75970800Y-64934600D01*
X75970800Y-64794600D01*
X75970800Y-64788600D01*
X75971800Y-64781600D01*
X75971800Y-64775600D01*
X75973800Y-64769600D01*
X75974800Y-64763600D01*
X75976800Y-64757600D01*
X75978800Y-64751600D01*
X75980800Y-64745600D01*
X75983800Y-64740600D01*
X75986800Y-64734600D01*
X75989800Y-64729600D01*
X75993800Y-64723600D01*
X75997800Y-64718600D01*
X76001800Y-64714600D01*
X76005800Y-64709600D01*
X76010800Y-64705600D01*
X76014800Y-64701600D01*
X76019800Y-64697600D01*
X76025800Y-64693600D01*
X76030800Y-64690600D01*
X76036800Y-64687600D01*
X76041800Y-64684600D01*
X76047800Y-64682600D01*
X76053800Y-64680600D01*
X76059800Y-64678600D01*
X76065800Y-64677600D01*
X76071800Y-64675600D01*
X76077800Y-64675600D01*
X76084800Y-64674600D01*
X76090800Y-64674600D01*
X76590800Y-64674600D01*
X76596800Y-64674600D01*
X76603800Y-64675600D01*
G37*
X76603800Y-65175600D02*
X76609800Y-65175600D01*
X76615800Y-65177600D01*
X76621800Y-65178600D01*
X76627800Y-65180600D01*
X76633800Y-65182600D01*
X76639800Y-65184600D01*
X76644800Y-65187600D01*
X76650800Y-65190600D01*
X76655800Y-65193600D01*
X76661800Y-65197600D01*
X76666800Y-65201600D01*
X76670800Y-65205600D01*
X76675800Y-65209600D01*
X76679800Y-65214600D01*
X76683800Y-65218600D01*
X76687800Y-65223600D01*
X76691800Y-65229600D01*
X76694800Y-65234600D01*
X76697800Y-65240600D01*
X76700800Y-65245600D01*
X76702800Y-65251600D01*
X76704800Y-65257600D01*
X76706800Y-65263600D01*
X76707800Y-65269600D01*
X76709800Y-65275600D01*
X76709800Y-65281600D01*
X76710800Y-65288600D01*
X76710800Y-65294600D01*
X76710800Y-65434600D01*
X76710800Y-65440600D01*
X76709800Y-65447600D01*
X76709800Y-65453600D01*
X76707800Y-65459600D01*
X76706800Y-65465600D01*
X76704800Y-65471600D01*
X76702800Y-65477600D01*
X76700800Y-65483600D01*
X76697800Y-65488600D01*
X76694800Y-65494600D01*
X76691800Y-65499600D01*
X76687800Y-65505600D01*
X76683800Y-65510600D01*
X76679800Y-65514600D01*
X76675800Y-65519600D01*
X76670800Y-65523600D01*
X76666800Y-65527600D01*
X76661800Y-65531600D01*
X76655800Y-65535600D01*
X76650800Y-65538600D01*
X76644800Y-65541600D01*
X76639800Y-65544600D01*
X76633800Y-65546600D01*
X76627800Y-65548600D01*
X76621800Y-65550600D01*
X76615800Y-65551600D01*
X76609800Y-65553600D01*
X76603800Y-65553600D01*
X76596800Y-65554600D01*
X76590800Y-65554600D01*
X76090800Y-65554600D01*
X76084800Y-65554600D01*
X76077800Y-65553600D01*
X76071800Y-65553600D01*
X76065800Y-65551600D01*
X76059800Y-65550600D01*
X76053800Y-65548600D01*
X76047800Y-65546600D01*
X76041800Y-65544600D01*
X76036800Y-65541600D01*
X76030800Y-65538600D01*
X76025800Y-65535600D01*
X76019800Y-65531600D01*
X76014800Y-65527600D01*
X76010800Y-65523600D01*
X76005800Y-65519600D01*
X76001800Y-65514600D01*
X75997800Y-65510600D01*
X75993800Y-65505600D01*
X75989800Y-65499600D01*
X75986800Y-65494600D01*
X75983800Y-65488600D01*
X75980800Y-65483600D01*
X75978800Y-65477600D01*
X75976800Y-65471600D01*
X75974800Y-65465600D01*
X75973800Y-65459600D01*
X75971800Y-65453600D01*
X75971800Y-65447600D01*
X75970800Y-65440600D01*
X75970800Y-65434600D01*
X75970800Y-65294600D01*
X75970800Y-65288600D01*
X75971800Y-65281600D01*
X75971800Y-65275600D01*
X75973800Y-65269600D01*
X75974800Y-65263600D01*
X75976800Y-65257600D01*
X75978800Y-65251600D01*
X75980800Y-65245600D01*
X75983800Y-65240600D01*
X75986800Y-65234600D01*
X75989800Y-65229600D01*
X75993800Y-65223600D01*
X75997800Y-65218600D01*
X76001800Y-65214600D01*
X76005800Y-65209600D01*
X76010800Y-65205600D01*
X76014800Y-65201600D01*
X76019800Y-65197600D01*
X76025800Y-65193600D01*
X76030800Y-65190600D01*
X76036800Y-65187600D01*
X76041800Y-65184600D01*
X76047800Y-65182600D01*
X76053800Y-65180600D01*
X76059800Y-65178600D01*
X76065800Y-65177600D01*
X76071800Y-65175600D01*
X76077800Y-65175600D01*
X76084800Y-65174600D01*
X76090800Y-65174600D01*
X76590800Y-65174600D01*
X76596800Y-65174600D01*
X76603800Y-65175600D01*
G36*
X76603800Y-65175600D02*
G01*
X76609800Y-65175600D01*
X76615800Y-65177600D01*
X76621800Y-65178600D01*
X76627800Y-65180600D01*
X76633800Y-65182600D01*
X76639800Y-65184600D01*
X76644800Y-65187600D01*
X76650800Y-65190600D01*
X76655800Y-65193600D01*
X76661800Y-65197600D01*
X76666800Y-65201600D01*
X76670800Y-65205600D01*
X76675800Y-65209600D01*
X76679800Y-65214600D01*
X76683800Y-65218600D01*
X76687800Y-65223600D01*
X76691800Y-65229600D01*
X76694800Y-65234600D01*
X76697800Y-65240600D01*
X76700800Y-65245600D01*
X76702800Y-65251600D01*
X76704800Y-65257600D01*
X76706800Y-65263600D01*
X76707800Y-65269600D01*
X76709800Y-65275600D01*
X76709800Y-65281600D01*
X76710800Y-65288600D01*
X76710800Y-65294600D01*
X76710800Y-65434600D01*
X76710800Y-65440600D01*
X76709800Y-65447600D01*
X76709800Y-65453600D01*
X76707800Y-65459600D01*
X76706800Y-65465600D01*
X76704800Y-65471600D01*
X76702800Y-65477600D01*
X76700800Y-65483600D01*
X76697800Y-65488600D01*
X76694800Y-65494600D01*
X76691800Y-65499600D01*
X76687800Y-65505600D01*
X76683800Y-65510600D01*
X76679800Y-65514600D01*
X76675800Y-65519600D01*
X76670800Y-65523600D01*
X76666800Y-65527600D01*
X76661800Y-65531600D01*
X76655800Y-65535600D01*
X76650800Y-65538600D01*
X76644800Y-65541600D01*
X76639800Y-65544600D01*
X76633800Y-65546600D01*
X76627800Y-65548600D01*
X76621800Y-65550600D01*
X76615800Y-65551600D01*
X76609800Y-65553600D01*
X76603800Y-65553600D01*
X76596800Y-65554600D01*
X76590800Y-65554600D01*
X76090800Y-65554600D01*
X76084800Y-65554600D01*
X76077800Y-65553600D01*
X76071800Y-65553600D01*
X76065800Y-65551600D01*
X76059800Y-65550600D01*
X76053800Y-65548600D01*
X76047800Y-65546600D01*
X76041800Y-65544600D01*
X76036800Y-65541600D01*
X76030800Y-65538600D01*
X76025800Y-65535600D01*
X76019800Y-65531600D01*
X76014800Y-65527600D01*
X76010800Y-65523600D01*
X76005800Y-65519600D01*
X76001800Y-65514600D01*
X75997800Y-65510600D01*
X75993800Y-65505600D01*
X75989800Y-65499600D01*
X75986800Y-65494600D01*
X75983800Y-65488600D01*
X75980800Y-65483600D01*
X75978800Y-65477600D01*
X75976800Y-65471600D01*
X75974800Y-65465600D01*
X75973800Y-65459600D01*
X75971800Y-65453600D01*
X75971800Y-65447600D01*
X75970800Y-65440600D01*
X75970800Y-65434600D01*
X75970800Y-65294600D01*
X75970800Y-65288600D01*
X75971800Y-65281600D01*
X75971800Y-65275600D01*
X75973800Y-65269600D01*
X75974800Y-65263600D01*
X75976800Y-65257600D01*
X75978800Y-65251600D01*
X75980800Y-65245600D01*
X75983800Y-65240600D01*
X75986800Y-65234600D01*
X75989800Y-65229600D01*
X75993800Y-65223600D01*
X75997800Y-65218600D01*
X76001800Y-65214600D01*
X76005800Y-65209600D01*
X76010800Y-65205600D01*
X76014800Y-65201600D01*
X76019800Y-65197600D01*
X76025800Y-65193600D01*
X76030800Y-65190600D01*
X76036800Y-65187600D01*
X76041800Y-65184600D01*
X76047800Y-65182600D01*
X76053800Y-65180600D01*
X76059800Y-65178600D01*
X76065800Y-65177600D01*
X76071800Y-65175600D01*
X76077800Y-65175600D01*
X76084800Y-65174600D01*
X76090800Y-65174600D01*
X76590800Y-65174600D01*
X76596800Y-65174600D01*
X76603800Y-65175600D01*
G37*
X76603800Y-65675600D02*
X76609800Y-65675600D01*
X76615800Y-65677600D01*
X76621800Y-65678600D01*
X76627800Y-65680600D01*
X76633800Y-65682600D01*
X76639800Y-65684600D01*
X76644800Y-65687600D01*
X76650800Y-65690600D01*
X76655800Y-65693600D01*
X76661800Y-65697600D01*
X76666800Y-65701600D01*
X76670800Y-65705600D01*
X76675800Y-65709600D01*
X76679800Y-65714600D01*
X76683800Y-65718600D01*
X76687800Y-65723600D01*
X76691800Y-65729600D01*
X76694800Y-65734600D01*
X76697800Y-65740600D01*
X76700800Y-65745600D01*
X76702800Y-65751600D01*
X76704800Y-65757600D01*
X76706800Y-65763600D01*
X76707800Y-65769600D01*
X76709800Y-65775600D01*
X76709800Y-65781600D01*
X76710800Y-65788600D01*
X76710800Y-65794600D01*
X76710800Y-65934600D01*
X76710800Y-65940600D01*
X76709800Y-65947600D01*
X76709800Y-65953600D01*
X76707800Y-65959600D01*
X76706800Y-65965600D01*
X76704800Y-65971600D01*
X76702800Y-65977600D01*
X76700800Y-65983600D01*
X76697800Y-65988600D01*
X76694800Y-65994600D01*
X76691800Y-65999600D01*
X76687800Y-66005600D01*
X76683800Y-66010600D01*
X76679800Y-66014600D01*
X76675800Y-66019600D01*
X76670800Y-66023600D01*
X76666800Y-66027600D01*
X76661800Y-66031600D01*
X76655800Y-66035600D01*
X76650800Y-66038600D01*
X76644800Y-66041600D01*
X76639800Y-66044600D01*
X76633800Y-66046600D01*
X76627800Y-66048600D01*
X76621800Y-66050600D01*
X76615800Y-66051600D01*
X76609800Y-66053600D01*
X76603800Y-66053600D01*
X76596800Y-66054600D01*
X76590800Y-66054600D01*
X76090800Y-66054600D01*
X76084800Y-66054600D01*
X76077800Y-66053600D01*
X76071800Y-66053600D01*
X76065800Y-66051600D01*
X76059800Y-66050600D01*
X76053800Y-66048600D01*
X76047800Y-66046600D01*
X76041800Y-66044600D01*
X76036800Y-66041600D01*
X76030800Y-66038600D01*
X76025800Y-66035600D01*
X76019800Y-66031600D01*
X76014800Y-66027600D01*
X76010800Y-66023600D01*
X76005800Y-66019600D01*
X76001800Y-66014600D01*
X75997800Y-66010600D01*
X75993800Y-66005600D01*
X75989800Y-65999600D01*
X75986800Y-65994600D01*
X75983800Y-65988600D01*
X75980800Y-65983600D01*
X75978800Y-65977600D01*
X75976800Y-65971600D01*
X75974800Y-65965600D01*
X75973800Y-65959600D01*
X75971800Y-65953600D01*
X75971800Y-65947600D01*
X75970800Y-65940600D01*
X75970800Y-65934600D01*
X75970800Y-65794600D01*
X75970800Y-65788600D01*
X75971800Y-65781600D01*
X75971800Y-65775600D01*
X75973800Y-65769600D01*
X75974800Y-65763600D01*
X75976800Y-65757600D01*
X75978800Y-65751600D01*
X75980800Y-65745600D01*
X75983800Y-65740600D01*
X75986800Y-65734600D01*
X75989800Y-65729600D01*
X75993800Y-65723600D01*
X75997800Y-65718600D01*
X76001800Y-65714600D01*
X76005800Y-65709600D01*
X76010800Y-65705600D01*
X76014800Y-65701600D01*
X76019800Y-65697600D01*
X76025800Y-65693600D01*
X76030800Y-65690600D01*
X76036800Y-65687600D01*
X76041800Y-65684600D01*
X76047800Y-65682600D01*
X76053800Y-65680600D01*
X76059800Y-65678600D01*
X76065800Y-65677600D01*
X76071800Y-65675600D01*
X76077800Y-65675600D01*
X76084800Y-65674600D01*
X76090800Y-65674600D01*
X76590800Y-65674600D01*
X76596800Y-65674600D01*
X76603800Y-65675600D01*
G36*
X76603800Y-65675600D02*
G01*
X76609800Y-65675600D01*
X76615800Y-65677600D01*
X76621800Y-65678600D01*
X76627800Y-65680600D01*
X76633800Y-65682600D01*
X76639800Y-65684600D01*
X76644800Y-65687600D01*
X76650800Y-65690600D01*
X76655800Y-65693600D01*
X76661800Y-65697600D01*
X76666800Y-65701600D01*
X76670800Y-65705600D01*
X76675800Y-65709600D01*
X76679800Y-65714600D01*
X76683800Y-65718600D01*
X76687800Y-65723600D01*
X76691800Y-65729600D01*
X76694800Y-65734600D01*
X76697800Y-65740600D01*
X76700800Y-65745600D01*
X76702800Y-65751600D01*
X76704800Y-65757600D01*
X76706800Y-65763600D01*
X76707800Y-65769600D01*
X76709800Y-65775600D01*
X76709800Y-65781600D01*
X76710800Y-65788600D01*
X76710800Y-65794600D01*
X76710800Y-65934600D01*
X76710800Y-65940600D01*
X76709800Y-65947600D01*
X76709800Y-65953600D01*
X76707800Y-65959600D01*
X76706800Y-65965600D01*
X76704800Y-65971600D01*
X76702800Y-65977600D01*
X76700800Y-65983600D01*
X76697800Y-65988600D01*
X76694800Y-65994600D01*
X76691800Y-65999600D01*
X76687800Y-66005600D01*
X76683800Y-66010600D01*
X76679800Y-66014600D01*
X76675800Y-66019600D01*
X76670800Y-66023600D01*
X76666800Y-66027600D01*
X76661800Y-66031600D01*
X76655800Y-66035600D01*
X76650800Y-66038600D01*
X76644800Y-66041600D01*
X76639800Y-66044600D01*
X76633800Y-66046600D01*
X76627800Y-66048600D01*
X76621800Y-66050600D01*
X76615800Y-66051600D01*
X76609800Y-66053600D01*
X76603800Y-66053600D01*
X76596800Y-66054600D01*
X76590800Y-66054600D01*
X76090800Y-66054600D01*
X76084800Y-66054600D01*
X76077800Y-66053600D01*
X76071800Y-66053600D01*
X76065800Y-66051600D01*
X76059800Y-66050600D01*
X76053800Y-66048600D01*
X76047800Y-66046600D01*
X76041800Y-66044600D01*
X76036800Y-66041600D01*
X76030800Y-66038600D01*
X76025800Y-66035600D01*
X76019800Y-66031600D01*
X76014800Y-66027600D01*
X76010800Y-66023600D01*
X76005800Y-66019600D01*
X76001800Y-66014600D01*
X75997800Y-66010600D01*
X75993800Y-66005600D01*
X75989800Y-65999600D01*
X75986800Y-65994600D01*
X75983800Y-65988600D01*
X75980800Y-65983600D01*
X75978800Y-65977600D01*
X75976800Y-65971600D01*
X75974800Y-65965600D01*
X75973800Y-65959600D01*
X75971800Y-65953600D01*
X75971800Y-65947600D01*
X75970800Y-65940600D01*
X75970800Y-65934600D01*
X75970800Y-65794600D01*
X75970800Y-65788600D01*
X75971800Y-65781600D01*
X75971800Y-65775600D01*
X75973800Y-65769600D01*
X75974800Y-65763600D01*
X75976800Y-65757600D01*
X75978800Y-65751600D01*
X75980800Y-65745600D01*
X75983800Y-65740600D01*
X75986800Y-65734600D01*
X75989800Y-65729600D01*
X75993800Y-65723600D01*
X75997800Y-65718600D01*
X76001800Y-65714600D01*
X76005800Y-65709600D01*
X76010800Y-65705600D01*
X76014800Y-65701600D01*
X76019800Y-65697600D01*
X76025800Y-65693600D01*
X76030800Y-65690600D01*
X76036800Y-65687600D01*
X76041800Y-65684600D01*
X76047800Y-65682600D01*
X76053800Y-65680600D01*
X76059800Y-65678600D01*
X76065800Y-65677600D01*
X76071800Y-65675600D01*
X76077800Y-65675600D01*
X76084800Y-65674600D01*
X76090800Y-65674600D01*
X76590800Y-65674600D01*
X76596800Y-65674600D01*
X76603800Y-65675600D01*
G37*
X76603800Y-66175600D02*
X76609800Y-66175600D01*
X76615800Y-66177600D01*
X76621800Y-66178600D01*
X76627800Y-66180600D01*
X76633800Y-66182600D01*
X76639800Y-66184600D01*
X76644800Y-66187600D01*
X76650800Y-66190600D01*
X76655800Y-66193600D01*
X76661800Y-66197600D01*
X76666800Y-66201600D01*
X76670800Y-66205600D01*
X76675800Y-66209600D01*
X76679800Y-66214600D01*
X76683800Y-66218600D01*
X76687800Y-66223600D01*
X76691800Y-66229600D01*
X76694800Y-66234600D01*
X76697800Y-66240600D01*
X76700800Y-66245600D01*
X76702800Y-66251600D01*
X76704800Y-66257600D01*
X76706800Y-66263600D01*
X76707800Y-66269600D01*
X76709800Y-66275600D01*
X76709800Y-66281600D01*
X76710800Y-66288600D01*
X76710800Y-66294600D01*
X76710800Y-66434600D01*
X76710800Y-66440600D01*
X76709800Y-66447600D01*
X76709800Y-66453600D01*
X76707800Y-66459600D01*
X76706800Y-66465600D01*
X76704800Y-66471600D01*
X76702800Y-66477600D01*
X76700800Y-66483600D01*
X76697800Y-66488600D01*
X76694800Y-66494600D01*
X76691800Y-66499600D01*
X76687800Y-66505600D01*
X76683800Y-66510600D01*
X76679800Y-66514600D01*
X76675800Y-66519600D01*
X76670800Y-66523600D01*
X76666800Y-66527600D01*
X76661800Y-66531600D01*
X76655800Y-66535600D01*
X76650800Y-66538600D01*
X76644800Y-66541600D01*
X76639800Y-66544600D01*
X76633800Y-66546600D01*
X76627800Y-66548600D01*
X76621800Y-66550600D01*
X76615800Y-66551600D01*
X76609800Y-66553600D01*
X76603800Y-66553600D01*
X76596800Y-66554600D01*
X76590800Y-66554600D01*
X76090800Y-66554600D01*
X76084800Y-66554600D01*
X76077800Y-66553600D01*
X76071800Y-66553600D01*
X76065800Y-66551600D01*
X76059800Y-66550600D01*
X76053800Y-66548600D01*
X76047800Y-66546600D01*
X76041800Y-66544600D01*
X76036800Y-66541600D01*
X76030800Y-66538600D01*
X76025800Y-66535600D01*
X76019800Y-66531600D01*
X76014800Y-66527600D01*
X76010800Y-66523600D01*
X76005800Y-66519600D01*
X76001800Y-66514600D01*
X75997800Y-66510600D01*
X75993800Y-66505600D01*
X75989800Y-66499600D01*
X75986800Y-66494600D01*
X75983800Y-66488600D01*
X75980800Y-66483600D01*
X75978800Y-66477600D01*
X75976800Y-66471600D01*
X75974800Y-66465600D01*
X75973800Y-66459600D01*
X75971800Y-66453600D01*
X75971800Y-66447600D01*
X75970800Y-66440600D01*
X75970800Y-66434600D01*
X75970800Y-66294600D01*
X75970800Y-66288600D01*
X75971800Y-66281600D01*
X75971800Y-66275600D01*
X75973800Y-66269600D01*
X75974800Y-66263600D01*
X75976800Y-66257600D01*
X75978800Y-66251600D01*
X75980800Y-66245600D01*
X75983800Y-66240600D01*
X75986800Y-66234600D01*
X75989800Y-66229600D01*
X75993800Y-66223600D01*
X75997800Y-66218600D01*
X76001800Y-66214600D01*
X76005800Y-66209600D01*
X76010800Y-66205600D01*
X76014800Y-66201600D01*
X76019800Y-66197600D01*
X76025800Y-66193600D01*
X76030800Y-66190600D01*
X76036800Y-66187600D01*
X76041800Y-66184600D01*
X76047800Y-66182600D01*
X76053800Y-66180600D01*
X76059800Y-66178600D01*
X76065800Y-66177600D01*
X76071800Y-66175600D01*
X76077800Y-66175600D01*
X76084800Y-66174600D01*
X76090800Y-66174600D01*
X76590800Y-66174600D01*
X76596800Y-66174600D01*
X76603800Y-66175600D01*
G36*
X76603800Y-66175600D02*
G01*
X76609800Y-66175600D01*
X76615800Y-66177600D01*
X76621800Y-66178600D01*
X76627800Y-66180600D01*
X76633800Y-66182600D01*
X76639800Y-66184600D01*
X76644800Y-66187600D01*
X76650800Y-66190600D01*
X76655800Y-66193600D01*
X76661800Y-66197600D01*
X76666800Y-66201600D01*
X76670800Y-66205600D01*
X76675800Y-66209600D01*
X76679800Y-66214600D01*
X76683800Y-66218600D01*
X76687800Y-66223600D01*
X76691800Y-66229600D01*
X76694800Y-66234600D01*
X76697800Y-66240600D01*
X76700800Y-66245600D01*
X76702800Y-66251600D01*
X76704800Y-66257600D01*
X76706800Y-66263600D01*
X76707800Y-66269600D01*
X76709800Y-66275600D01*
X76709800Y-66281600D01*
X76710800Y-66288600D01*
X76710800Y-66294600D01*
X76710800Y-66434600D01*
X76710800Y-66440600D01*
X76709800Y-66447600D01*
X76709800Y-66453600D01*
X76707800Y-66459600D01*
X76706800Y-66465600D01*
X76704800Y-66471600D01*
X76702800Y-66477600D01*
X76700800Y-66483600D01*
X76697800Y-66488600D01*
X76694800Y-66494600D01*
X76691800Y-66499600D01*
X76687800Y-66505600D01*
X76683800Y-66510600D01*
X76679800Y-66514600D01*
X76675800Y-66519600D01*
X76670800Y-66523600D01*
X76666800Y-66527600D01*
X76661800Y-66531600D01*
X76655800Y-66535600D01*
X76650800Y-66538600D01*
X76644800Y-66541600D01*
X76639800Y-66544600D01*
X76633800Y-66546600D01*
X76627800Y-66548600D01*
X76621800Y-66550600D01*
X76615800Y-66551600D01*
X76609800Y-66553600D01*
X76603800Y-66553600D01*
X76596800Y-66554600D01*
X76590800Y-66554600D01*
X76090800Y-66554600D01*
X76084800Y-66554600D01*
X76077800Y-66553600D01*
X76071800Y-66553600D01*
X76065800Y-66551600D01*
X76059800Y-66550600D01*
X76053800Y-66548600D01*
X76047800Y-66546600D01*
X76041800Y-66544600D01*
X76036800Y-66541600D01*
X76030800Y-66538600D01*
X76025800Y-66535600D01*
X76019800Y-66531600D01*
X76014800Y-66527600D01*
X76010800Y-66523600D01*
X76005800Y-66519600D01*
X76001800Y-66514600D01*
X75997800Y-66510600D01*
X75993800Y-66505600D01*
X75989800Y-66499600D01*
X75986800Y-66494600D01*
X75983800Y-66488600D01*
X75980800Y-66483600D01*
X75978800Y-66477600D01*
X75976800Y-66471600D01*
X75974800Y-66465600D01*
X75973800Y-66459600D01*
X75971800Y-66453600D01*
X75971800Y-66447600D01*
X75970800Y-66440600D01*
X75970800Y-66434600D01*
X75970800Y-66294600D01*
X75970800Y-66288600D01*
X75971800Y-66281600D01*
X75971800Y-66275600D01*
X75973800Y-66269600D01*
X75974800Y-66263600D01*
X75976800Y-66257600D01*
X75978800Y-66251600D01*
X75980800Y-66245600D01*
X75983800Y-66240600D01*
X75986800Y-66234600D01*
X75989800Y-66229600D01*
X75993800Y-66223600D01*
X75997800Y-66218600D01*
X76001800Y-66214600D01*
X76005800Y-66209600D01*
X76010800Y-66205600D01*
X76014800Y-66201600D01*
X76019800Y-66197600D01*
X76025800Y-66193600D01*
X76030800Y-66190600D01*
X76036800Y-66187600D01*
X76041800Y-66184600D01*
X76047800Y-66182600D01*
X76053800Y-66180600D01*
X76059800Y-66178600D01*
X76065800Y-66177600D01*
X76071800Y-66175600D01*
X76077800Y-66175600D01*
X76084800Y-66174600D01*
X76090800Y-66174600D01*
X76590800Y-66174600D01*
X76596800Y-66174600D01*
X76603800Y-66175600D01*
G37*
X77073800Y-66645600D02*
X77079800Y-66645600D01*
X77085800Y-66647600D01*
X77091800Y-66648600D01*
X77097800Y-66650600D01*
X77103800Y-66652600D01*
X77109800Y-66654600D01*
X77114800Y-66657600D01*
X77120800Y-66660600D01*
X77125800Y-66663600D01*
X77131800Y-66667600D01*
X77136800Y-66671600D01*
X77140800Y-66675600D01*
X77145800Y-66679600D01*
X77149800Y-66684600D01*
X77153800Y-66688600D01*
X77157800Y-66693600D01*
X77161800Y-66699600D01*
X77164800Y-66704600D01*
X77167800Y-66710600D01*
X77170800Y-66715600D01*
X77172800Y-66721600D01*
X77174800Y-66727600D01*
X77176800Y-66733600D01*
X77177800Y-66739600D01*
X77179800Y-66745600D01*
X77179800Y-66751600D01*
X77180800Y-66758600D01*
X77180800Y-66764600D01*
X77180800Y-67264600D01*
X77180800Y-67270600D01*
X77179800Y-67277600D01*
X77179800Y-67283600D01*
X77177800Y-67289600D01*
X77176800Y-67295600D01*
X77174800Y-67301600D01*
X77172800Y-67307600D01*
X77170800Y-67313600D01*
X77167800Y-67318600D01*
X77164800Y-67324600D01*
X77161800Y-67329600D01*
X77157800Y-67335600D01*
X77153800Y-67340600D01*
X77149800Y-67344600D01*
X77145800Y-67349600D01*
X77140800Y-67353600D01*
X77136800Y-67357600D01*
X77131800Y-67361600D01*
X77125800Y-67365600D01*
X77120800Y-67368600D01*
X77114800Y-67371600D01*
X77109800Y-67374600D01*
X77103800Y-67376600D01*
X77097800Y-67378600D01*
X77091800Y-67380600D01*
X77085800Y-67381600D01*
X77079800Y-67383600D01*
X77073800Y-67383600D01*
X77066800Y-67384600D01*
X77060800Y-67384600D01*
X76920800Y-67384600D01*
X76914800Y-67384600D01*
X76907800Y-67383600D01*
X76901800Y-67383600D01*
X76895800Y-67381600D01*
X76889800Y-67380600D01*
X76883800Y-67378600D01*
X76877800Y-67376600D01*
X76871800Y-67374600D01*
X76866800Y-67371600D01*
X76860800Y-67368600D01*
X76855800Y-67365600D01*
X76849800Y-67361600D01*
X76844800Y-67357600D01*
X76840800Y-67353600D01*
X76835800Y-67349600D01*
X76831800Y-67344600D01*
X76827800Y-67340600D01*
X76823800Y-67335600D01*
X76819800Y-67329600D01*
X76816800Y-67324600D01*
X76813800Y-67318600D01*
X76810800Y-67313600D01*
X76808800Y-67307600D01*
X76806800Y-67301600D01*
X76804800Y-67295600D01*
X76803800Y-67289600D01*
X76801800Y-67283600D01*
X76801800Y-67277600D01*
X76800800Y-67270600D01*
X76800800Y-67264600D01*
X76800800Y-66764600D01*
X76800800Y-66758600D01*
X76801800Y-66751600D01*
X76801800Y-66745600D01*
X76803800Y-66739600D01*
X76804800Y-66733600D01*
X76806800Y-66727600D01*
X76808800Y-66721600D01*
X76810800Y-66715600D01*
X76813800Y-66710600D01*
X76816800Y-66704600D01*
X76819800Y-66699600D01*
X76823800Y-66693600D01*
X76827800Y-66688600D01*
X76831800Y-66684600D01*
X76835800Y-66679600D01*
X76840800Y-66675600D01*
X76844800Y-66671600D01*
X76849800Y-66667600D01*
X76855800Y-66663600D01*
X76860800Y-66660600D01*
X76866800Y-66657600D01*
X76871800Y-66654600D01*
X76877800Y-66652600D01*
X76883800Y-66650600D01*
X76889800Y-66648600D01*
X76895800Y-66647600D01*
X76901800Y-66645600D01*
X76907800Y-66645600D01*
X76914800Y-66644600D01*
X76920800Y-66644600D01*
X77060800Y-66644600D01*
X77066800Y-66644600D01*
X77073800Y-66645600D01*
G36*
X77073800Y-66645600D02*
G01*
X77079800Y-66645600D01*
X77085800Y-66647600D01*
X77091800Y-66648600D01*
X77097800Y-66650600D01*
X77103800Y-66652600D01*
X77109800Y-66654600D01*
X77114800Y-66657600D01*
X77120800Y-66660600D01*
X77125800Y-66663600D01*
X77131800Y-66667600D01*
X77136800Y-66671600D01*
X77140800Y-66675600D01*
X77145800Y-66679600D01*
X77149800Y-66684600D01*
X77153800Y-66688600D01*
X77157800Y-66693600D01*
X77161800Y-66699600D01*
X77164800Y-66704600D01*
X77167800Y-66710600D01*
X77170800Y-66715600D01*
X77172800Y-66721600D01*
X77174800Y-66727600D01*
X77176800Y-66733600D01*
X77177800Y-66739600D01*
X77179800Y-66745600D01*
X77179800Y-66751600D01*
X77180800Y-66758600D01*
X77180800Y-66764600D01*
X77180800Y-67264600D01*
X77180800Y-67270600D01*
X77179800Y-67277600D01*
X77179800Y-67283600D01*
X77177800Y-67289600D01*
X77176800Y-67295600D01*
X77174800Y-67301600D01*
X77172800Y-67307600D01*
X77170800Y-67313600D01*
X77167800Y-67318600D01*
X77164800Y-67324600D01*
X77161800Y-67329600D01*
X77157800Y-67335600D01*
X77153800Y-67340600D01*
X77149800Y-67344600D01*
X77145800Y-67349600D01*
X77140800Y-67353600D01*
X77136800Y-67357600D01*
X77131800Y-67361600D01*
X77125800Y-67365600D01*
X77120800Y-67368600D01*
X77114800Y-67371600D01*
X77109800Y-67374600D01*
X77103800Y-67376600D01*
X77097800Y-67378600D01*
X77091800Y-67380600D01*
X77085800Y-67381600D01*
X77079800Y-67383600D01*
X77073800Y-67383600D01*
X77066800Y-67384600D01*
X77060800Y-67384600D01*
X76920800Y-67384600D01*
X76914800Y-67384600D01*
X76907800Y-67383600D01*
X76901800Y-67383600D01*
X76895800Y-67381600D01*
X76889800Y-67380600D01*
X76883800Y-67378600D01*
X76877800Y-67376600D01*
X76871800Y-67374600D01*
X76866800Y-67371600D01*
X76860800Y-67368600D01*
X76855800Y-67365600D01*
X76849800Y-67361600D01*
X76844800Y-67357600D01*
X76840800Y-67353600D01*
X76835800Y-67349600D01*
X76831800Y-67344600D01*
X76827800Y-67340600D01*
X76823800Y-67335600D01*
X76819800Y-67329600D01*
X76816800Y-67324600D01*
X76813800Y-67318600D01*
X76810800Y-67313600D01*
X76808800Y-67307600D01*
X76806800Y-67301600D01*
X76804800Y-67295600D01*
X76803800Y-67289600D01*
X76801800Y-67283600D01*
X76801800Y-67277600D01*
X76800800Y-67270600D01*
X76800800Y-67264600D01*
X76800800Y-66764600D01*
X76800800Y-66758600D01*
X76801800Y-66751600D01*
X76801800Y-66745600D01*
X76803800Y-66739600D01*
X76804800Y-66733600D01*
X76806800Y-66727600D01*
X76808800Y-66721600D01*
X76810800Y-66715600D01*
X76813800Y-66710600D01*
X76816800Y-66704600D01*
X76819800Y-66699600D01*
X76823800Y-66693600D01*
X76827800Y-66688600D01*
X76831800Y-66684600D01*
X76835800Y-66679600D01*
X76840800Y-66675600D01*
X76844800Y-66671600D01*
X76849800Y-66667600D01*
X76855800Y-66663600D01*
X76860800Y-66660600D01*
X76866800Y-66657600D01*
X76871800Y-66654600D01*
X76877800Y-66652600D01*
X76883800Y-66650600D01*
X76889800Y-66648600D01*
X76895800Y-66647600D01*
X76901800Y-66645600D01*
X76907800Y-66645600D01*
X76914800Y-66644600D01*
X76920800Y-66644600D01*
X77060800Y-66644600D01*
X77066800Y-66644600D01*
X77073800Y-66645600D01*
G37*
X78533800Y-64715600D02*
X78539800Y-64715600D01*
X78545800Y-64717600D01*
X78551800Y-64718600D01*
X78557800Y-64720600D01*
X78563800Y-64722600D01*
X78569800Y-64724600D01*
X78574800Y-64727600D01*
X78580800Y-64730600D01*
X78585800Y-64733600D01*
X78591800Y-64737600D01*
X78596800Y-64741600D01*
X78600800Y-64745600D01*
X78605800Y-64749600D01*
X78609800Y-64754600D01*
X78613800Y-64758600D01*
X78617800Y-64763600D01*
X78621800Y-64769600D01*
X78624800Y-64774600D01*
X78627800Y-64780600D01*
X78630800Y-64785600D01*
X78632800Y-64791600D01*
X78634800Y-64797600D01*
X78636800Y-64803600D01*
X78637800Y-64809600D01*
X78639800Y-64815600D01*
X78639800Y-64821600D01*
X78640800Y-64828600D01*
X78640800Y-64834600D01*
X78640800Y-66394600D01*
X78640800Y-66400600D01*
X78639800Y-66407600D01*
X78639800Y-66413600D01*
X78637800Y-66419600D01*
X78636800Y-66425600D01*
X78634800Y-66431600D01*
X78632800Y-66437600D01*
X78630800Y-66443600D01*
X78627800Y-66448600D01*
X78624800Y-66454600D01*
X78621800Y-66459600D01*
X78617800Y-66465600D01*
X78613800Y-66470600D01*
X78609800Y-66474600D01*
X78605800Y-66479600D01*
X78600800Y-66483600D01*
X78596800Y-66487600D01*
X78591800Y-66491600D01*
X78585800Y-66495600D01*
X78580800Y-66498600D01*
X78574800Y-66501600D01*
X78569800Y-66504600D01*
X78563800Y-66506600D01*
X78557800Y-66508600D01*
X78551800Y-66510600D01*
X78545800Y-66511600D01*
X78539800Y-66513600D01*
X78533800Y-66513600D01*
X78526800Y-66514600D01*
X78520800Y-66514600D01*
X76960800Y-66514600D01*
X76954800Y-66514600D01*
X76947800Y-66513600D01*
X76941800Y-66513600D01*
X76935800Y-66511600D01*
X76929800Y-66510600D01*
X76923800Y-66508600D01*
X76917800Y-66506600D01*
X76911800Y-66504600D01*
X76906800Y-66501600D01*
X76900800Y-66498600D01*
X76895800Y-66495600D01*
X76889800Y-66491600D01*
X76884800Y-66487600D01*
X76880800Y-66483600D01*
X76875800Y-66479600D01*
X76871800Y-66474600D01*
X76867800Y-66470600D01*
X76863800Y-66465600D01*
X76859800Y-66459600D01*
X76856800Y-66454600D01*
X76853800Y-66448600D01*
X76850800Y-66443600D01*
X76848800Y-66437600D01*
X76846800Y-66431600D01*
X76844800Y-66425600D01*
X76843800Y-66419600D01*
X76841800Y-66413600D01*
X76841800Y-66407600D01*
X76840800Y-66400600D01*
X76840800Y-66394600D01*
X76840800Y-64834600D01*
X76840800Y-64828600D01*
X76841800Y-64821600D01*
X76841800Y-64815600D01*
X76843800Y-64809600D01*
X76844800Y-64803600D01*
X76846800Y-64797600D01*
X76848800Y-64791600D01*
X76850800Y-64785600D01*
X76853800Y-64780600D01*
X76856800Y-64774600D01*
X76859800Y-64769600D01*
X76863800Y-64763600D01*
X76867800Y-64758600D01*
X76871800Y-64754600D01*
X76875800Y-64749600D01*
X76880800Y-64745600D01*
X76884800Y-64741600D01*
X76889800Y-64737600D01*
X76895800Y-64733600D01*
X76900800Y-64730600D01*
X76906800Y-64727600D01*
X76911800Y-64724600D01*
X76917800Y-64722600D01*
X76923800Y-64720600D01*
X76929800Y-64718600D01*
X76935800Y-64717600D01*
X76941800Y-64715600D01*
X76947800Y-64715600D01*
X76954800Y-64714600D01*
X76960800Y-64714600D01*
X78520800Y-64714600D01*
X78526800Y-64714600D01*
X78533800Y-64715600D01*
G36*
X78533800Y-64715600D02*
G01*
X78539800Y-64715600D01*
X78545800Y-64717600D01*
X78551800Y-64718600D01*
X78557800Y-64720600D01*
X78563800Y-64722600D01*
X78569800Y-64724600D01*
X78574800Y-64727600D01*
X78580800Y-64730600D01*
X78585800Y-64733600D01*
X78591800Y-64737600D01*
X78596800Y-64741600D01*
X78600800Y-64745600D01*
X78605800Y-64749600D01*
X78609800Y-64754600D01*
X78613800Y-64758600D01*
X78617800Y-64763600D01*
X78621800Y-64769600D01*
X78624800Y-64774600D01*
X78627800Y-64780600D01*
X78630800Y-64785600D01*
X78632800Y-64791600D01*
X78634800Y-64797600D01*
X78636800Y-64803600D01*
X78637800Y-64809600D01*
X78639800Y-64815600D01*
X78639800Y-64821600D01*
X78640800Y-64828600D01*
X78640800Y-64834600D01*
X78640800Y-66394600D01*
X78640800Y-66400600D01*
X78639800Y-66407600D01*
X78639800Y-66413600D01*
X78637800Y-66419600D01*
X78636800Y-66425600D01*
X78634800Y-66431600D01*
X78632800Y-66437600D01*
X78630800Y-66443600D01*
X78627800Y-66448600D01*
X78624800Y-66454600D01*
X78621800Y-66459600D01*
X78617800Y-66465600D01*
X78613800Y-66470600D01*
X78609800Y-66474600D01*
X78605800Y-66479600D01*
X78600800Y-66483600D01*
X78596800Y-66487600D01*
X78591800Y-66491600D01*
X78585800Y-66495600D01*
X78580800Y-66498600D01*
X78574800Y-66501600D01*
X78569800Y-66504600D01*
X78563800Y-66506600D01*
X78557800Y-66508600D01*
X78551800Y-66510600D01*
X78545800Y-66511600D01*
X78539800Y-66513600D01*
X78533800Y-66513600D01*
X78526800Y-66514600D01*
X78520800Y-66514600D01*
X76960800Y-66514600D01*
X76954800Y-66514600D01*
X76947800Y-66513600D01*
X76941800Y-66513600D01*
X76935800Y-66511600D01*
X76929800Y-66510600D01*
X76923800Y-66508600D01*
X76917800Y-66506600D01*
X76911800Y-66504600D01*
X76906800Y-66501600D01*
X76900800Y-66498600D01*
X76895800Y-66495600D01*
X76889800Y-66491600D01*
X76884800Y-66487600D01*
X76880800Y-66483600D01*
X76875800Y-66479600D01*
X76871800Y-66474600D01*
X76867800Y-66470600D01*
X76863800Y-66465600D01*
X76859800Y-66459600D01*
X76856800Y-66454600D01*
X76853800Y-66448600D01*
X76850800Y-66443600D01*
X76848800Y-66437600D01*
X76846800Y-66431600D01*
X76844800Y-66425600D01*
X76843800Y-66419600D01*
X76841800Y-66413600D01*
X76841800Y-66407600D01*
X76840800Y-66400600D01*
X76840800Y-66394600D01*
X76840800Y-64834600D01*
X76840800Y-64828600D01*
X76841800Y-64821600D01*
X76841800Y-64815600D01*
X76843800Y-64809600D01*
X76844800Y-64803600D01*
X76846800Y-64797600D01*
X76848800Y-64791600D01*
X76850800Y-64785600D01*
X76853800Y-64780600D01*
X76856800Y-64774600D01*
X76859800Y-64769600D01*
X76863800Y-64763600D01*
X76867800Y-64758600D01*
X76871800Y-64754600D01*
X76875800Y-64749600D01*
X76880800Y-64745600D01*
X76884800Y-64741600D01*
X76889800Y-64737600D01*
X76895800Y-64733600D01*
X76900800Y-64730600D01*
X76906800Y-64727600D01*
X76911800Y-64724600D01*
X76917800Y-64722600D01*
X76923800Y-64720600D01*
X76929800Y-64718600D01*
X76935800Y-64717600D01*
X76941800Y-64715600D01*
X76947800Y-64715600D01*
X76954800Y-64714600D01*
X76960800Y-64714600D01*
X78520800Y-64714600D01*
X78526800Y-64714600D01*
X78533800Y-64715600D01*
G37*
X77073800Y-63845600D02*
X77079800Y-63845600D01*
X77085800Y-63847600D01*
X77091800Y-63848600D01*
X77097800Y-63850600D01*
X77103800Y-63852600D01*
X77109800Y-63854600D01*
X77114800Y-63857600D01*
X77120800Y-63860600D01*
X77125800Y-63863600D01*
X77131800Y-63867600D01*
X77136800Y-63871600D01*
X77140800Y-63875600D01*
X77145800Y-63879600D01*
X77149800Y-63884600D01*
X77153800Y-63888600D01*
X77157800Y-63893600D01*
X77161800Y-63899600D01*
X77164800Y-63904600D01*
X77167800Y-63910600D01*
X77170800Y-63915600D01*
X77172800Y-63921600D01*
X77174800Y-63927600D01*
X77176800Y-63933600D01*
X77177800Y-63939600D01*
X77179800Y-63945600D01*
X77179800Y-63951600D01*
X77180800Y-63958600D01*
X77180800Y-63964600D01*
X77180800Y-64464600D01*
X77180800Y-64470600D01*
X77179800Y-64477600D01*
X77179800Y-64483600D01*
X77177800Y-64489600D01*
X77176800Y-64495600D01*
X77174800Y-64501600D01*
X77172800Y-64507600D01*
X77170800Y-64513600D01*
X77167800Y-64518600D01*
X77164800Y-64524600D01*
X77161800Y-64529600D01*
X77157800Y-64535600D01*
X77153800Y-64540600D01*
X77149800Y-64544600D01*
X77145800Y-64549600D01*
X77140800Y-64553600D01*
X77136800Y-64557600D01*
X77131800Y-64561600D01*
X77125800Y-64565600D01*
X77120800Y-64568600D01*
X77114800Y-64571600D01*
X77109800Y-64574600D01*
X77103800Y-64576600D01*
X77097800Y-64578600D01*
X77091800Y-64580600D01*
X77085800Y-64581600D01*
X77079800Y-64583600D01*
X77073800Y-64583600D01*
X77066800Y-64584600D01*
X77060800Y-64584600D01*
X76920800Y-64584600D01*
X76914800Y-64584600D01*
X76907800Y-64583600D01*
X76901800Y-64583600D01*
X76895800Y-64581600D01*
X76889800Y-64580600D01*
X76883800Y-64578600D01*
X76877800Y-64576600D01*
X76871800Y-64574600D01*
X76866800Y-64571600D01*
X76860800Y-64568600D01*
X76855800Y-64565600D01*
X76849800Y-64561600D01*
X76844800Y-64557600D01*
X76840800Y-64553600D01*
X76835800Y-64549600D01*
X76831800Y-64544600D01*
X76827800Y-64540600D01*
X76823800Y-64535600D01*
X76819800Y-64529600D01*
X76816800Y-64524600D01*
X76813800Y-64518600D01*
X76810800Y-64513600D01*
X76808800Y-64507600D01*
X76806800Y-64501600D01*
X76804800Y-64495600D01*
X76803800Y-64489600D01*
X76801800Y-64483600D01*
X76801800Y-64477600D01*
X76800800Y-64470600D01*
X76800800Y-64464600D01*
X76800800Y-63964600D01*
X76800800Y-63958600D01*
X76801800Y-63951600D01*
X76801800Y-63945600D01*
X76803800Y-63939600D01*
X76804800Y-63933600D01*
X76806800Y-63927600D01*
X76808800Y-63921600D01*
X76810800Y-63915600D01*
X76813800Y-63910600D01*
X76816800Y-63904600D01*
X76819800Y-63899600D01*
X76823800Y-63893600D01*
X76827800Y-63888600D01*
X76831800Y-63884600D01*
X76835800Y-63879600D01*
X76840800Y-63875600D01*
X76844800Y-63871600D01*
X76849800Y-63867600D01*
X76855800Y-63863600D01*
X76860800Y-63860600D01*
X76866800Y-63857600D01*
X76871800Y-63854600D01*
X76877800Y-63852600D01*
X76883800Y-63850600D01*
X76889800Y-63848600D01*
X76895800Y-63847600D01*
X76901800Y-63845600D01*
X76907800Y-63845600D01*
X76914800Y-63844600D01*
X76920800Y-63844600D01*
X77060800Y-63844600D01*
X77066800Y-63844600D01*
X77073800Y-63845600D01*
G36*
X77073800Y-63845600D02*
G01*
X77079800Y-63845600D01*
X77085800Y-63847600D01*
X77091800Y-63848600D01*
X77097800Y-63850600D01*
X77103800Y-63852600D01*
X77109800Y-63854600D01*
X77114800Y-63857600D01*
X77120800Y-63860600D01*
X77125800Y-63863600D01*
X77131800Y-63867600D01*
X77136800Y-63871600D01*
X77140800Y-63875600D01*
X77145800Y-63879600D01*
X77149800Y-63884600D01*
X77153800Y-63888600D01*
X77157800Y-63893600D01*
X77161800Y-63899600D01*
X77164800Y-63904600D01*
X77167800Y-63910600D01*
X77170800Y-63915600D01*
X77172800Y-63921600D01*
X77174800Y-63927600D01*
X77176800Y-63933600D01*
X77177800Y-63939600D01*
X77179800Y-63945600D01*
X77179800Y-63951600D01*
X77180800Y-63958600D01*
X77180800Y-63964600D01*
X77180800Y-64464600D01*
X77180800Y-64470600D01*
X77179800Y-64477600D01*
X77179800Y-64483600D01*
X77177800Y-64489600D01*
X77176800Y-64495600D01*
X77174800Y-64501600D01*
X77172800Y-64507600D01*
X77170800Y-64513600D01*
X77167800Y-64518600D01*
X77164800Y-64524600D01*
X77161800Y-64529600D01*
X77157800Y-64535600D01*
X77153800Y-64540600D01*
X77149800Y-64544600D01*
X77145800Y-64549600D01*
X77140800Y-64553600D01*
X77136800Y-64557600D01*
X77131800Y-64561600D01*
X77125800Y-64565600D01*
X77120800Y-64568600D01*
X77114800Y-64571600D01*
X77109800Y-64574600D01*
X77103800Y-64576600D01*
X77097800Y-64578600D01*
X77091800Y-64580600D01*
X77085800Y-64581600D01*
X77079800Y-64583600D01*
X77073800Y-64583600D01*
X77066800Y-64584600D01*
X77060800Y-64584600D01*
X76920800Y-64584600D01*
X76914800Y-64584600D01*
X76907800Y-64583600D01*
X76901800Y-64583600D01*
X76895800Y-64581600D01*
X76889800Y-64580600D01*
X76883800Y-64578600D01*
X76877800Y-64576600D01*
X76871800Y-64574600D01*
X76866800Y-64571600D01*
X76860800Y-64568600D01*
X76855800Y-64565600D01*
X76849800Y-64561600D01*
X76844800Y-64557600D01*
X76840800Y-64553600D01*
X76835800Y-64549600D01*
X76831800Y-64544600D01*
X76827800Y-64540600D01*
X76823800Y-64535600D01*
X76819800Y-64529600D01*
X76816800Y-64524600D01*
X76813800Y-64518600D01*
X76810800Y-64513600D01*
X76808800Y-64507600D01*
X76806800Y-64501600D01*
X76804800Y-64495600D01*
X76803800Y-64489600D01*
X76801800Y-64483600D01*
X76801800Y-64477600D01*
X76800800Y-64470600D01*
X76800800Y-64464600D01*
X76800800Y-63964600D01*
X76800800Y-63958600D01*
X76801800Y-63951600D01*
X76801800Y-63945600D01*
X76803800Y-63939600D01*
X76804800Y-63933600D01*
X76806800Y-63927600D01*
X76808800Y-63921600D01*
X76810800Y-63915600D01*
X76813800Y-63910600D01*
X76816800Y-63904600D01*
X76819800Y-63899600D01*
X76823800Y-63893600D01*
X76827800Y-63888600D01*
X76831800Y-63884600D01*
X76835800Y-63879600D01*
X76840800Y-63875600D01*
X76844800Y-63871600D01*
X76849800Y-63867600D01*
X76855800Y-63863600D01*
X76860800Y-63860600D01*
X76866800Y-63857600D01*
X76871800Y-63854600D01*
X76877800Y-63852600D01*
X76883800Y-63850600D01*
X76889800Y-63848600D01*
X76895800Y-63847600D01*
X76901800Y-63845600D01*
X76907800Y-63845600D01*
X76914800Y-63844600D01*
X76920800Y-63844600D01*
X77060800Y-63844600D01*
X77066800Y-63844600D01*
X77073800Y-63845600D01*
G37*
X77573800Y-63845600D02*
X77579800Y-63845600D01*
X77585800Y-63847600D01*
X77591800Y-63848600D01*
X77597800Y-63850600D01*
X77603800Y-63852600D01*
X77609800Y-63854600D01*
X77614800Y-63857600D01*
X77620800Y-63860600D01*
X77625800Y-63863600D01*
X77631800Y-63867600D01*
X77636800Y-63871600D01*
X77640800Y-63875600D01*
X77645800Y-63879600D01*
X77649800Y-63884600D01*
X77653800Y-63888600D01*
X77657800Y-63893600D01*
X77661800Y-63899600D01*
X77664800Y-63904600D01*
X77667800Y-63910600D01*
X77670800Y-63915600D01*
X77672800Y-63921600D01*
X77674800Y-63927600D01*
X77676800Y-63933600D01*
X77677800Y-63939600D01*
X77679800Y-63945600D01*
X77679800Y-63951600D01*
X77680800Y-63958600D01*
X77680800Y-63964600D01*
X77680800Y-64464600D01*
X77680800Y-64470600D01*
X77679800Y-64477600D01*
X77679800Y-64483600D01*
X77677800Y-64489600D01*
X77676800Y-64495600D01*
X77674800Y-64501600D01*
X77672800Y-64507600D01*
X77670800Y-64513600D01*
X77667800Y-64518600D01*
X77664800Y-64524600D01*
X77661800Y-64529600D01*
X77657800Y-64535600D01*
X77653800Y-64540600D01*
X77649800Y-64544600D01*
X77645800Y-64549600D01*
X77640800Y-64553600D01*
X77636800Y-64557600D01*
X77631800Y-64561600D01*
X77625800Y-64565600D01*
X77620800Y-64568600D01*
X77614800Y-64571600D01*
X77609800Y-64574600D01*
X77603800Y-64576600D01*
X77597800Y-64578600D01*
X77591800Y-64580600D01*
X77585800Y-64581600D01*
X77579800Y-64583600D01*
X77573800Y-64583600D01*
X77566800Y-64584600D01*
X77560800Y-64584600D01*
X77420800Y-64584600D01*
X77414800Y-64584600D01*
X77407800Y-64583600D01*
X77401800Y-64583600D01*
X77395800Y-64581600D01*
X77389800Y-64580600D01*
X77383800Y-64578600D01*
X77377800Y-64576600D01*
X77371800Y-64574600D01*
X77366800Y-64571600D01*
X77360800Y-64568600D01*
X77355800Y-64565600D01*
X77349800Y-64561600D01*
X77344800Y-64557600D01*
X77340800Y-64553600D01*
X77335800Y-64549600D01*
X77331800Y-64544600D01*
X77327800Y-64540600D01*
X77323800Y-64535600D01*
X77319800Y-64529600D01*
X77316800Y-64524600D01*
X77313800Y-64518600D01*
X77310800Y-64513600D01*
X77308800Y-64507600D01*
X77306800Y-64501600D01*
X77304800Y-64495600D01*
X77303800Y-64489600D01*
X77301800Y-64483600D01*
X77301800Y-64477600D01*
X77300800Y-64470600D01*
X77300800Y-64464600D01*
X77300800Y-63964600D01*
X77300800Y-63958600D01*
X77301800Y-63951600D01*
X77301800Y-63945600D01*
X77303800Y-63939600D01*
X77304800Y-63933600D01*
X77306800Y-63927600D01*
X77308800Y-63921600D01*
X77310800Y-63915600D01*
X77313800Y-63910600D01*
X77316800Y-63904600D01*
X77319800Y-63899600D01*
X77323800Y-63893600D01*
X77327800Y-63888600D01*
X77331800Y-63884600D01*
X77335800Y-63879600D01*
X77340800Y-63875600D01*
X77344800Y-63871600D01*
X77349800Y-63867600D01*
X77355800Y-63863600D01*
X77360800Y-63860600D01*
X77366800Y-63857600D01*
X77371800Y-63854600D01*
X77377800Y-63852600D01*
X77383800Y-63850600D01*
X77389800Y-63848600D01*
X77395800Y-63847600D01*
X77401800Y-63845600D01*
X77407800Y-63845600D01*
X77414800Y-63844600D01*
X77420800Y-63844600D01*
X77560800Y-63844600D01*
X77566800Y-63844600D01*
X77573800Y-63845600D01*
G36*
X77573800Y-63845600D02*
G01*
X77579800Y-63845600D01*
X77585800Y-63847600D01*
X77591800Y-63848600D01*
X77597800Y-63850600D01*
X77603800Y-63852600D01*
X77609800Y-63854600D01*
X77614800Y-63857600D01*
X77620800Y-63860600D01*
X77625800Y-63863600D01*
X77631800Y-63867600D01*
X77636800Y-63871600D01*
X77640800Y-63875600D01*
X77645800Y-63879600D01*
X77649800Y-63884600D01*
X77653800Y-63888600D01*
X77657800Y-63893600D01*
X77661800Y-63899600D01*
X77664800Y-63904600D01*
X77667800Y-63910600D01*
X77670800Y-63915600D01*
X77672800Y-63921600D01*
X77674800Y-63927600D01*
X77676800Y-63933600D01*
X77677800Y-63939600D01*
X77679800Y-63945600D01*
X77679800Y-63951600D01*
X77680800Y-63958600D01*
X77680800Y-63964600D01*
X77680800Y-64464600D01*
X77680800Y-64470600D01*
X77679800Y-64477600D01*
X77679800Y-64483600D01*
X77677800Y-64489600D01*
X77676800Y-64495600D01*
X77674800Y-64501600D01*
X77672800Y-64507600D01*
X77670800Y-64513600D01*
X77667800Y-64518600D01*
X77664800Y-64524600D01*
X77661800Y-64529600D01*
X77657800Y-64535600D01*
X77653800Y-64540600D01*
X77649800Y-64544600D01*
X77645800Y-64549600D01*
X77640800Y-64553600D01*
X77636800Y-64557600D01*
X77631800Y-64561600D01*
X77625800Y-64565600D01*
X77620800Y-64568600D01*
X77614800Y-64571600D01*
X77609800Y-64574600D01*
X77603800Y-64576600D01*
X77597800Y-64578600D01*
X77591800Y-64580600D01*
X77585800Y-64581600D01*
X77579800Y-64583600D01*
X77573800Y-64583600D01*
X77566800Y-64584600D01*
X77560800Y-64584600D01*
X77420800Y-64584600D01*
X77414800Y-64584600D01*
X77407800Y-64583600D01*
X77401800Y-64583600D01*
X77395800Y-64581600D01*
X77389800Y-64580600D01*
X77383800Y-64578600D01*
X77377800Y-64576600D01*
X77371800Y-64574600D01*
X77366800Y-64571600D01*
X77360800Y-64568600D01*
X77355800Y-64565600D01*
X77349800Y-64561600D01*
X77344800Y-64557600D01*
X77340800Y-64553600D01*
X77335800Y-64549600D01*
X77331800Y-64544600D01*
X77327800Y-64540600D01*
X77323800Y-64535600D01*
X77319800Y-64529600D01*
X77316800Y-64524600D01*
X77313800Y-64518600D01*
X77310800Y-64513600D01*
X77308800Y-64507600D01*
X77306800Y-64501600D01*
X77304800Y-64495600D01*
X77303800Y-64489600D01*
X77301800Y-64483600D01*
X77301800Y-64477600D01*
X77300800Y-64470600D01*
X77300800Y-64464600D01*
X77300800Y-63964600D01*
X77300800Y-63958600D01*
X77301800Y-63951600D01*
X77301800Y-63945600D01*
X77303800Y-63939600D01*
X77304800Y-63933600D01*
X77306800Y-63927600D01*
X77308800Y-63921600D01*
X77310800Y-63915600D01*
X77313800Y-63910600D01*
X77316800Y-63904600D01*
X77319800Y-63899600D01*
X77323800Y-63893600D01*
X77327800Y-63888600D01*
X77331800Y-63884600D01*
X77335800Y-63879600D01*
X77340800Y-63875600D01*
X77344800Y-63871600D01*
X77349800Y-63867600D01*
X77355800Y-63863600D01*
X77360800Y-63860600D01*
X77366800Y-63857600D01*
X77371800Y-63854600D01*
X77377800Y-63852600D01*
X77383800Y-63850600D01*
X77389800Y-63848600D01*
X77395800Y-63847600D01*
X77401800Y-63845600D01*
X77407800Y-63845600D01*
X77414800Y-63844600D01*
X77420800Y-63844600D01*
X77560800Y-63844600D01*
X77566800Y-63844600D01*
X77573800Y-63845600D01*
G37*
X77573800Y-66645600D02*
X77579800Y-66645600D01*
X77585800Y-66647600D01*
X77591800Y-66648600D01*
X77597800Y-66650600D01*
X77603800Y-66652600D01*
X77609800Y-66654600D01*
X77614800Y-66657600D01*
X77620800Y-66660600D01*
X77625800Y-66663600D01*
X77631800Y-66667600D01*
X77636800Y-66671600D01*
X77640800Y-66675600D01*
X77645800Y-66679600D01*
X77649800Y-66684600D01*
X77653800Y-66688600D01*
X77657800Y-66693600D01*
X77661800Y-66699600D01*
X77664800Y-66704600D01*
X77667800Y-66710600D01*
X77670800Y-66715600D01*
X77672800Y-66721600D01*
X77674800Y-66727600D01*
X77676800Y-66733600D01*
X77677800Y-66739600D01*
X77679800Y-66745600D01*
X77679800Y-66751600D01*
X77680800Y-66758600D01*
X77680800Y-66764600D01*
X77680800Y-67264600D01*
X77680800Y-67270600D01*
X77679800Y-67277600D01*
X77679800Y-67283600D01*
X77677800Y-67289600D01*
X77676800Y-67295600D01*
X77674800Y-67301600D01*
X77672800Y-67307600D01*
X77670800Y-67313600D01*
X77667800Y-67318600D01*
X77664800Y-67324600D01*
X77661800Y-67329600D01*
X77657800Y-67335600D01*
X77653800Y-67340600D01*
X77649800Y-67344600D01*
X77645800Y-67349600D01*
X77640800Y-67353600D01*
X77636800Y-67357600D01*
X77631800Y-67361600D01*
X77625800Y-67365600D01*
X77620800Y-67368600D01*
X77614800Y-67371600D01*
X77609800Y-67374600D01*
X77603800Y-67376600D01*
X77597800Y-67378600D01*
X77591800Y-67380600D01*
X77585800Y-67381600D01*
X77579800Y-67383600D01*
X77573800Y-67383600D01*
X77566800Y-67384600D01*
X77560800Y-67384600D01*
X77420800Y-67384600D01*
X77414800Y-67384600D01*
X77407800Y-67383600D01*
X77401800Y-67383600D01*
X77395800Y-67381600D01*
X77389800Y-67380600D01*
X77383800Y-67378600D01*
X77377800Y-67376600D01*
X77371800Y-67374600D01*
X77366800Y-67371600D01*
X77360800Y-67368600D01*
X77355800Y-67365600D01*
X77349800Y-67361600D01*
X77344800Y-67357600D01*
X77340800Y-67353600D01*
X77335800Y-67349600D01*
X77331800Y-67344600D01*
X77327800Y-67340600D01*
X77323800Y-67335600D01*
X77319800Y-67329600D01*
X77316800Y-67324600D01*
X77313800Y-67318600D01*
X77310800Y-67313600D01*
X77308800Y-67307600D01*
X77306800Y-67301600D01*
X77304800Y-67295600D01*
X77303800Y-67289600D01*
X77301800Y-67283600D01*
X77301800Y-67277600D01*
X77300800Y-67270600D01*
X77300800Y-67264600D01*
X77300800Y-66764600D01*
X77300800Y-66758600D01*
X77301800Y-66751600D01*
X77301800Y-66745600D01*
X77303800Y-66739600D01*
X77304800Y-66733600D01*
X77306800Y-66727600D01*
X77308800Y-66721600D01*
X77310800Y-66715600D01*
X77313800Y-66710600D01*
X77316800Y-66704600D01*
X77319800Y-66699600D01*
X77323800Y-66693600D01*
X77327800Y-66688600D01*
X77331800Y-66684600D01*
X77335800Y-66679600D01*
X77340800Y-66675600D01*
X77344800Y-66671600D01*
X77349800Y-66667600D01*
X77355800Y-66663600D01*
X77360800Y-66660600D01*
X77366800Y-66657600D01*
X77371800Y-66654600D01*
X77377800Y-66652600D01*
X77383800Y-66650600D01*
X77389800Y-66648600D01*
X77395800Y-66647600D01*
X77401800Y-66645600D01*
X77407800Y-66645600D01*
X77414800Y-66644600D01*
X77420800Y-66644600D01*
X77560800Y-66644600D01*
X77566800Y-66644600D01*
X77573800Y-66645600D01*
G36*
X77573800Y-66645600D02*
G01*
X77579800Y-66645600D01*
X77585800Y-66647600D01*
X77591800Y-66648600D01*
X77597800Y-66650600D01*
X77603800Y-66652600D01*
X77609800Y-66654600D01*
X77614800Y-66657600D01*
X77620800Y-66660600D01*
X77625800Y-66663600D01*
X77631800Y-66667600D01*
X77636800Y-66671600D01*
X77640800Y-66675600D01*
X77645800Y-66679600D01*
X77649800Y-66684600D01*
X77653800Y-66688600D01*
X77657800Y-66693600D01*
X77661800Y-66699600D01*
X77664800Y-66704600D01*
X77667800Y-66710600D01*
X77670800Y-66715600D01*
X77672800Y-66721600D01*
X77674800Y-66727600D01*
X77676800Y-66733600D01*
X77677800Y-66739600D01*
X77679800Y-66745600D01*
X77679800Y-66751600D01*
X77680800Y-66758600D01*
X77680800Y-66764600D01*
X77680800Y-67264600D01*
X77680800Y-67270600D01*
X77679800Y-67277600D01*
X77679800Y-67283600D01*
X77677800Y-67289600D01*
X77676800Y-67295600D01*
X77674800Y-67301600D01*
X77672800Y-67307600D01*
X77670800Y-67313600D01*
X77667800Y-67318600D01*
X77664800Y-67324600D01*
X77661800Y-67329600D01*
X77657800Y-67335600D01*
X77653800Y-67340600D01*
X77649800Y-67344600D01*
X77645800Y-67349600D01*
X77640800Y-67353600D01*
X77636800Y-67357600D01*
X77631800Y-67361600D01*
X77625800Y-67365600D01*
X77620800Y-67368600D01*
X77614800Y-67371600D01*
X77609800Y-67374600D01*
X77603800Y-67376600D01*
X77597800Y-67378600D01*
X77591800Y-67380600D01*
X77585800Y-67381600D01*
X77579800Y-67383600D01*
X77573800Y-67383600D01*
X77566800Y-67384600D01*
X77560800Y-67384600D01*
X77420800Y-67384600D01*
X77414800Y-67384600D01*
X77407800Y-67383600D01*
X77401800Y-67383600D01*
X77395800Y-67381600D01*
X77389800Y-67380600D01*
X77383800Y-67378600D01*
X77377800Y-67376600D01*
X77371800Y-67374600D01*
X77366800Y-67371600D01*
X77360800Y-67368600D01*
X77355800Y-67365600D01*
X77349800Y-67361600D01*
X77344800Y-67357600D01*
X77340800Y-67353600D01*
X77335800Y-67349600D01*
X77331800Y-67344600D01*
X77327800Y-67340600D01*
X77323800Y-67335600D01*
X77319800Y-67329600D01*
X77316800Y-67324600D01*
X77313800Y-67318600D01*
X77310800Y-67313600D01*
X77308800Y-67307600D01*
X77306800Y-67301600D01*
X77304800Y-67295600D01*
X77303800Y-67289600D01*
X77301800Y-67283600D01*
X77301800Y-67277600D01*
X77300800Y-67270600D01*
X77300800Y-67264600D01*
X77300800Y-66764600D01*
X77300800Y-66758600D01*
X77301800Y-66751600D01*
X77301800Y-66745600D01*
X77303800Y-66739600D01*
X77304800Y-66733600D01*
X77306800Y-66727600D01*
X77308800Y-66721600D01*
X77310800Y-66715600D01*
X77313800Y-66710600D01*
X77316800Y-66704600D01*
X77319800Y-66699600D01*
X77323800Y-66693600D01*
X77327800Y-66688600D01*
X77331800Y-66684600D01*
X77335800Y-66679600D01*
X77340800Y-66675600D01*
X77344800Y-66671600D01*
X77349800Y-66667600D01*
X77355800Y-66663600D01*
X77360800Y-66660600D01*
X77366800Y-66657600D01*
X77371800Y-66654600D01*
X77377800Y-66652600D01*
X77383800Y-66650600D01*
X77389800Y-66648600D01*
X77395800Y-66647600D01*
X77401800Y-66645600D01*
X77407800Y-66645600D01*
X77414800Y-66644600D01*
X77420800Y-66644600D01*
X77560800Y-66644600D01*
X77566800Y-66644600D01*
X77573800Y-66645600D01*
G37*
X78073800Y-66645600D02*
X78079800Y-66645600D01*
X78085800Y-66647600D01*
X78091800Y-66648600D01*
X78097800Y-66650600D01*
X78103800Y-66652600D01*
X78109800Y-66654600D01*
X78114800Y-66657600D01*
X78120800Y-66660600D01*
X78125800Y-66663600D01*
X78131800Y-66667600D01*
X78136800Y-66671600D01*
X78140800Y-66675600D01*
X78145800Y-66679600D01*
X78149800Y-66684600D01*
X78153800Y-66688600D01*
X78157800Y-66693600D01*
X78161800Y-66699600D01*
X78164800Y-66704600D01*
X78167800Y-66710600D01*
X78170800Y-66715600D01*
X78172800Y-66721600D01*
X78174800Y-66727600D01*
X78176800Y-66733600D01*
X78177800Y-66739600D01*
X78179800Y-66745600D01*
X78179800Y-66751600D01*
X78180800Y-66758600D01*
X78180800Y-66764600D01*
X78180800Y-67264600D01*
X78180800Y-67270600D01*
X78179800Y-67277600D01*
X78179800Y-67283600D01*
X78177800Y-67289600D01*
X78176800Y-67295600D01*
X78174800Y-67301600D01*
X78172800Y-67307600D01*
X78170800Y-67313600D01*
X78167800Y-67318600D01*
X78164800Y-67324600D01*
X78161800Y-67329600D01*
X78157800Y-67335600D01*
X78153800Y-67340600D01*
X78149800Y-67344600D01*
X78145800Y-67349600D01*
X78140800Y-67353600D01*
X78136800Y-67357600D01*
X78131800Y-67361600D01*
X78125800Y-67365600D01*
X78120800Y-67368600D01*
X78114800Y-67371600D01*
X78109800Y-67374600D01*
X78103800Y-67376600D01*
X78097800Y-67378600D01*
X78091800Y-67380600D01*
X78085800Y-67381600D01*
X78079800Y-67383600D01*
X78073800Y-67383600D01*
X78066800Y-67384600D01*
X78060800Y-67384600D01*
X77920800Y-67384600D01*
X77914800Y-67384600D01*
X77907800Y-67383600D01*
X77901800Y-67383600D01*
X77895800Y-67381600D01*
X77889800Y-67380600D01*
X77883800Y-67378600D01*
X77877800Y-67376600D01*
X77871800Y-67374600D01*
X77866800Y-67371600D01*
X77860800Y-67368600D01*
X77855800Y-67365600D01*
X77849800Y-67361600D01*
X77844800Y-67357600D01*
X77840800Y-67353600D01*
X77835800Y-67349600D01*
X77831800Y-67344600D01*
X77827800Y-67340600D01*
X77823800Y-67335600D01*
X77819800Y-67329600D01*
X77816800Y-67324600D01*
X77813800Y-67318600D01*
X77810800Y-67313600D01*
X77808800Y-67307600D01*
X77806800Y-67301600D01*
X77804800Y-67295600D01*
X77803800Y-67289600D01*
X77801800Y-67283600D01*
X77801800Y-67277600D01*
X77800800Y-67270600D01*
X77800800Y-67264600D01*
X77800800Y-66764600D01*
X77800800Y-66758600D01*
X77801800Y-66751600D01*
X77801800Y-66745600D01*
X77803800Y-66739600D01*
X77804800Y-66733600D01*
X77806800Y-66727600D01*
X77808800Y-66721600D01*
X77810800Y-66715600D01*
X77813800Y-66710600D01*
X77816800Y-66704600D01*
X77819800Y-66699600D01*
X77823800Y-66693600D01*
X77827800Y-66688600D01*
X77831800Y-66684600D01*
X77835800Y-66679600D01*
X77840800Y-66675600D01*
X77844800Y-66671600D01*
X77849800Y-66667600D01*
X77855800Y-66663600D01*
X77860800Y-66660600D01*
X77866800Y-66657600D01*
X77871800Y-66654600D01*
X77877800Y-66652600D01*
X77883800Y-66650600D01*
X77889800Y-66648600D01*
X77895800Y-66647600D01*
X77901800Y-66645600D01*
X77907800Y-66645600D01*
X77914800Y-66644600D01*
X77920800Y-66644600D01*
X78060800Y-66644600D01*
X78066800Y-66644600D01*
X78073800Y-66645600D01*
G36*
X78073800Y-66645600D02*
G01*
X78079800Y-66645600D01*
X78085800Y-66647600D01*
X78091800Y-66648600D01*
X78097800Y-66650600D01*
X78103800Y-66652600D01*
X78109800Y-66654600D01*
X78114800Y-66657600D01*
X78120800Y-66660600D01*
X78125800Y-66663600D01*
X78131800Y-66667600D01*
X78136800Y-66671600D01*
X78140800Y-66675600D01*
X78145800Y-66679600D01*
X78149800Y-66684600D01*
X78153800Y-66688600D01*
X78157800Y-66693600D01*
X78161800Y-66699600D01*
X78164800Y-66704600D01*
X78167800Y-66710600D01*
X78170800Y-66715600D01*
X78172800Y-66721600D01*
X78174800Y-66727600D01*
X78176800Y-66733600D01*
X78177800Y-66739600D01*
X78179800Y-66745600D01*
X78179800Y-66751600D01*
X78180800Y-66758600D01*
X78180800Y-66764600D01*
X78180800Y-67264600D01*
X78180800Y-67270600D01*
X78179800Y-67277600D01*
X78179800Y-67283600D01*
X78177800Y-67289600D01*
X78176800Y-67295600D01*
X78174800Y-67301600D01*
X78172800Y-67307600D01*
X78170800Y-67313600D01*
X78167800Y-67318600D01*
X78164800Y-67324600D01*
X78161800Y-67329600D01*
X78157800Y-67335600D01*
X78153800Y-67340600D01*
X78149800Y-67344600D01*
X78145800Y-67349600D01*
X78140800Y-67353600D01*
X78136800Y-67357600D01*
X78131800Y-67361600D01*
X78125800Y-67365600D01*
X78120800Y-67368600D01*
X78114800Y-67371600D01*
X78109800Y-67374600D01*
X78103800Y-67376600D01*
X78097800Y-67378600D01*
X78091800Y-67380600D01*
X78085800Y-67381600D01*
X78079800Y-67383600D01*
X78073800Y-67383600D01*
X78066800Y-67384600D01*
X78060800Y-67384600D01*
X77920800Y-67384600D01*
X77914800Y-67384600D01*
X77907800Y-67383600D01*
X77901800Y-67383600D01*
X77895800Y-67381600D01*
X77889800Y-67380600D01*
X77883800Y-67378600D01*
X77877800Y-67376600D01*
X77871800Y-67374600D01*
X77866800Y-67371600D01*
X77860800Y-67368600D01*
X77855800Y-67365600D01*
X77849800Y-67361600D01*
X77844800Y-67357600D01*
X77840800Y-67353600D01*
X77835800Y-67349600D01*
X77831800Y-67344600D01*
X77827800Y-67340600D01*
X77823800Y-67335600D01*
X77819800Y-67329600D01*
X77816800Y-67324600D01*
X77813800Y-67318600D01*
X77810800Y-67313600D01*
X77808800Y-67307600D01*
X77806800Y-67301600D01*
X77804800Y-67295600D01*
X77803800Y-67289600D01*
X77801800Y-67283600D01*
X77801800Y-67277600D01*
X77800800Y-67270600D01*
X77800800Y-67264600D01*
X77800800Y-66764600D01*
X77800800Y-66758600D01*
X77801800Y-66751600D01*
X77801800Y-66745600D01*
X77803800Y-66739600D01*
X77804800Y-66733600D01*
X77806800Y-66727600D01*
X77808800Y-66721600D01*
X77810800Y-66715600D01*
X77813800Y-66710600D01*
X77816800Y-66704600D01*
X77819800Y-66699600D01*
X77823800Y-66693600D01*
X77827800Y-66688600D01*
X77831800Y-66684600D01*
X77835800Y-66679600D01*
X77840800Y-66675600D01*
X77844800Y-66671600D01*
X77849800Y-66667600D01*
X77855800Y-66663600D01*
X77860800Y-66660600D01*
X77866800Y-66657600D01*
X77871800Y-66654600D01*
X77877800Y-66652600D01*
X77883800Y-66650600D01*
X77889800Y-66648600D01*
X77895800Y-66647600D01*
X77901800Y-66645600D01*
X77907800Y-66645600D01*
X77914800Y-66644600D01*
X77920800Y-66644600D01*
X78060800Y-66644600D01*
X78066800Y-66644600D01*
X78073800Y-66645600D01*
G37*
X78073800Y-63845600D02*
X78079800Y-63845600D01*
X78085800Y-63847600D01*
X78091800Y-63848600D01*
X78097800Y-63850600D01*
X78103800Y-63852600D01*
X78109800Y-63854600D01*
X78114800Y-63857600D01*
X78120800Y-63860600D01*
X78125800Y-63863600D01*
X78131800Y-63867600D01*
X78136800Y-63871600D01*
X78140800Y-63875600D01*
X78145800Y-63879600D01*
X78149800Y-63884600D01*
X78153800Y-63888600D01*
X78157800Y-63893600D01*
X78161800Y-63899600D01*
X78164800Y-63904600D01*
X78167800Y-63910600D01*
X78170800Y-63915600D01*
X78172800Y-63921600D01*
X78174800Y-63927600D01*
X78176800Y-63933600D01*
X78177800Y-63939600D01*
X78179800Y-63945600D01*
X78179800Y-63951600D01*
X78180800Y-63958600D01*
X78180800Y-63964600D01*
X78180800Y-64464600D01*
X78180800Y-64470600D01*
X78179800Y-64477600D01*
X78179800Y-64483600D01*
X78177800Y-64489600D01*
X78176800Y-64495600D01*
X78174800Y-64501600D01*
X78172800Y-64507600D01*
X78170800Y-64513600D01*
X78167800Y-64518600D01*
X78164800Y-64524600D01*
X78161800Y-64529600D01*
X78157800Y-64535600D01*
X78153800Y-64540600D01*
X78149800Y-64544600D01*
X78145800Y-64549600D01*
X78140800Y-64553600D01*
X78136800Y-64557600D01*
X78131800Y-64561600D01*
X78125800Y-64565600D01*
X78120800Y-64568600D01*
X78114800Y-64571600D01*
X78109800Y-64574600D01*
X78103800Y-64576600D01*
X78097800Y-64578600D01*
X78091800Y-64580600D01*
X78085800Y-64581600D01*
X78079800Y-64583600D01*
X78073800Y-64583600D01*
X78066800Y-64584600D01*
X78060800Y-64584600D01*
X77920800Y-64584600D01*
X77914800Y-64584600D01*
X77907800Y-64583600D01*
X77901800Y-64583600D01*
X77895800Y-64581600D01*
X77889800Y-64580600D01*
X77883800Y-64578600D01*
X77877800Y-64576600D01*
X77871800Y-64574600D01*
X77866800Y-64571600D01*
X77860800Y-64568600D01*
X77855800Y-64565600D01*
X77849800Y-64561600D01*
X77844800Y-64557600D01*
X77840800Y-64553600D01*
X77835800Y-64549600D01*
X77831800Y-64544600D01*
X77827800Y-64540600D01*
X77823800Y-64535600D01*
X77819800Y-64529600D01*
X77816800Y-64524600D01*
X77813800Y-64518600D01*
X77810800Y-64513600D01*
X77808800Y-64507600D01*
X77806800Y-64501600D01*
X77804800Y-64495600D01*
X77803800Y-64489600D01*
X77801800Y-64483600D01*
X77801800Y-64477600D01*
X77800800Y-64470600D01*
X77800800Y-64464600D01*
X77800800Y-63964600D01*
X77800800Y-63958600D01*
X77801800Y-63951600D01*
X77801800Y-63945600D01*
X77803800Y-63939600D01*
X77804800Y-63933600D01*
X77806800Y-63927600D01*
X77808800Y-63921600D01*
X77810800Y-63915600D01*
X77813800Y-63910600D01*
X77816800Y-63904600D01*
X77819800Y-63899600D01*
X77823800Y-63893600D01*
X77827800Y-63888600D01*
X77831800Y-63884600D01*
X77835800Y-63879600D01*
X77840800Y-63875600D01*
X77844800Y-63871600D01*
X77849800Y-63867600D01*
X77855800Y-63863600D01*
X77860800Y-63860600D01*
X77866800Y-63857600D01*
X77871800Y-63854600D01*
X77877800Y-63852600D01*
X77883800Y-63850600D01*
X77889800Y-63848600D01*
X77895800Y-63847600D01*
X77901800Y-63845600D01*
X77907800Y-63845600D01*
X77914800Y-63844600D01*
X77920800Y-63844600D01*
X78060800Y-63844600D01*
X78066800Y-63844600D01*
X78073800Y-63845600D01*
G36*
X78073800Y-63845600D02*
G01*
X78079800Y-63845600D01*
X78085800Y-63847600D01*
X78091800Y-63848600D01*
X78097800Y-63850600D01*
X78103800Y-63852600D01*
X78109800Y-63854600D01*
X78114800Y-63857600D01*
X78120800Y-63860600D01*
X78125800Y-63863600D01*
X78131800Y-63867600D01*
X78136800Y-63871600D01*
X78140800Y-63875600D01*
X78145800Y-63879600D01*
X78149800Y-63884600D01*
X78153800Y-63888600D01*
X78157800Y-63893600D01*
X78161800Y-63899600D01*
X78164800Y-63904600D01*
X78167800Y-63910600D01*
X78170800Y-63915600D01*
X78172800Y-63921600D01*
X78174800Y-63927600D01*
X78176800Y-63933600D01*
X78177800Y-63939600D01*
X78179800Y-63945600D01*
X78179800Y-63951600D01*
X78180800Y-63958600D01*
X78180800Y-63964600D01*
X78180800Y-64464600D01*
X78180800Y-64470600D01*
X78179800Y-64477600D01*
X78179800Y-64483600D01*
X78177800Y-64489600D01*
X78176800Y-64495600D01*
X78174800Y-64501600D01*
X78172800Y-64507600D01*
X78170800Y-64513600D01*
X78167800Y-64518600D01*
X78164800Y-64524600D01*
X78161800Y-64529600D01*
X78157800Y-64535600D01*
X78153800Y-64540600D01*
X78149800Y-64544600D01*
X78145800Y-64549600D01*
X78140800Y-64553600D01*
X78136800Y-64557600D01*
X78131800Y-64561600D01*
X78125800Y-64565600D01*
X78120800Y-64568600D01*
X78114800Y-64571600D01*
X78109800Y-64574600D01*
X78103800Y-64576600D01*
X78097800Y-64578600D01*
X78091800Y-64580600D01*
X78085800Y-64581600D01*
X78079800Y-64583600D01*
X78073800Y-64583600D01*
X78066800Y-64584600D01*
X78060800Y-64584600D01*
X77920800Y-64584600D01*
X77914800Y-64584600D01*
X77907800Y-64583600D01*
X77901800Y-64583600D01*
X77895800Y-64581600D01*
X77889800Y-64580600D01*
X77883800Y-64578600D01*
X77877800Y-64576600D01*
X77871800Y-64574600D01*
X77866800Y-64571600D01*
X77860800Y-64568600D01*
X77855800Y-64565600D01*
X77849800Y-64561600D01*
X77844800Y-64557600D01*
X77840800Y-64553600D01*
X77835800Y-64549600D01*
X77831800Y-64544600D01*
X77827800Y-64540600D01*
X77823800Y-64535600D01*
X77819800Y-64529600D01*
X77816800Y-64524600D01*
X77813800Y-64518600D01*
X77810800Y-64513600D01*
X77808800Y-64507600D01*
X77806800Y-64501600D01*
X77804800Y-64495600D01*
X77803800Y-64489600D01*
X77801800Y-64483600D01*
X77801800Y-64477600D01*
X77800800Y-64470600D01*
X77800800Y-64464600D01*
X77800800Y-63964600D01*
X77800800Y-63958600D01*
X77801800Y-63951600D01*
X77801800Y-63945600D01*
X77803800Y-63939600D01*
X77804800Y-63933600D01*
X77806800Y-63927600D01*
X77808800Y-63921600D01*
X77810800Y-63915600D01*
X77813800Y-63910600D01*
X77816800Y-63904600D01*
X77819800Y-63899600D01*
X77823800Y-63893600D01*
X77827800Y-63888600D01*
X77831800Y-63884600D01*
X77835800Y-63879600D01*
X77840800Y-63875600D01*
X77844800Y-63871600D01*
X77849800Y-63867600D01*
X77855800Y-63863600D01*
X77860800Y-63860600D01*
X77866800Y-63857600D01*
X77871800Y-63854600D01*
X77877800Y-63852600D01*
X77883800Y-63850600D01*
X77889800Y-63848600D01*
X77895800Y-63847600D01*
X77901800Y-63845600D01*
X77907800Y-63845600D01*
X77914800Y-63844600D01*
X77920800Y-63844600D01*
X78060800Y-63844600D01*
X78066800Y-63844600D01*
X78073800Y-63845600D01*
G37*
X78573800Y-63845600D02*
X78579800Y-63845600D01*
X78585800Y-63847600D01*
X78591800Y-63848600D01*
X78597800Y-63850600D01*
X78603800Y-63852600D01*
X78609800Y-63854600D01*
X78614800Y-63857600D01*
X78620800Y-63860600D01*
X78625800Y-63863600D01*
X78631800Y-63867600D01*
X78636800Y-63871600D01*
X78640800Y-63875600D01*
X78645800Y-63879600D01*
X78649800Y-63884600D01*
X78653800Y-63888600D01*
X78657800Y-63893600D01*
X78661800Y-63899600D01*
X78664800Y-63904600D01*
X78667800Y-63910600D01*
X78670800Y-63915600D01*
X78672800Y-63921600D01*
X78674800Y-63927600D01*
X78676800Y-63933600D01*
X78677800Y-63939600D01*
X78679800Y-63945600D01*
X78679800Y-63951600D01*
X78680800Y-63958600D01*
X78680800Y-63964600D01*
X78680800Y-64464600D01*
X78680800Y-64470600D01*
X78679800Y-64477600D01*
X78679800Y-64483600D01*
X78677800Y-64489600D01*
X78676800Y-64495600D01*
X78674800Y-64501600D01*
X78672800Y-64507600D01*
X78670800Y-64513600D01*
X78667800Y-64518600D01*
X78664800Y-64524600D01*
X78661800Y-64529600D01*
X78657800Y-64535600D01*
X78653800Y-64540600D01*
X78649800Y-64544600D01*
X78645800Y-64549600D01*
X78640800Y-64553600D01*
X78636800Y-64557600D01*
X78631800Y-64561600D01*
X78625800Y-64565600D01*
X78620800Y-64568600D01*
X78614800Y-64571600D01*
X78609800Y-64574600D01*
X78603800Y-64576600D01*
X78597800Y-64578600D01*
X78591800Y-64580600D01*
X78585800Y-64581600D01*
X78579800Y-64583600D01*
X78573800Y-64583600D01*
X78566800Y-64584600D01*
X78560800Y-64584600D01*
X78420800Y-64584600D01*
X78414800Y-64584600D01*
X78407800Y-64583600D01*
X78401800Y-64583600D01*
X78395800Y-64581600D01*
X78389800Y-64580600D01*
X78383800Y-64578600D01*
X78377800Y-64576600D01*
X78371800Y-64574600D01*
X78366800Y-64571600D01*
X78360800Y-64568600D01*
X78355800Y-64565600D01*
X78349800Y-64561600D01*
X78344800Y-64557600D01*
X78340800Y-64553600D01*
X78335800Y-64549600D01*
X78331800Y-64544600D01*
X78327800Y-64540600D01*
X78323800Y-64535600D01*
X78319800Y-64529600D01*
X78316800Y-64524600D01*
X78313800Y-64518600D01*
X78310800Y-64513600D01*
X78308800Y-64507600D01*
X78306800Y-64501600D01*
X78304800Y-64495600D01*
X78303800Y-64489600D01*
X78301800Y-64483600D01*
X78301800Y-64477600D01*
X78300800Y-64470600D01*
X78300800Y-64464600D01*
X78300800Y-63964600D01*
X78300800Y-63958600D01*
X78301800Y-63951600D01*
X78301800Y-63945600D01*
X78303800Y-63939600D01*
X78304800Y-63933600D01*
X78306800Y-63927600D01*
X78308800Y-63921600D01*
X78310800Y-63915600D01*
X78313800Y-63910600D01*
X78316800Y-63904600D01*
X78319800Y-63899600D01*
X78323800Y-63893600D01*
X78327800Y-63888600D01*
X78331800Y-63884600D01*
X78335800Y-63879600D01*
X78340800Y-63875600D01*
X78344800Y-63871600D01*
X78349800Y-63867600D01*
X78355800Y-63863600D01*
X78360800Y-63860600D01*
X78366800Y-63857600D01*
X78371800Y-63854600D01*
X78377800Y-63852600D01*
X78383800Y-63850600D01*
X78389800Y-63848600D01*
X78395800Y-63847600D01*
X78401800Y-63845600D01*
X78407800Y-63845600D01*
X78414800Y-63844600D01*
X78420800Y-63844600D01*
X78560800Y-63844600D01*
X78566800Y-63844600D01*
X78573800Y-63845600D01*
G36*
X78573800Y-63845600D02*
G01*
X78579800Y-63845600D01*
X78585800Y-63847600D01*
X78591800Y-63848600D01*
X78597800Y-63850600D01*
X78603800Y-63852600D01*
X78609800Y-63854600D01*
X78614800Y-63857600D01*
X78620800Y-63860600D01*
X78625800Y-63863600D01*
X78631800Y-63867600D01*
X78636800Y-63871600D01*
X78640800Y-63875600D01*
X78645800Y-63879600D01*
X78649800Y-63884600D01*
X78653800Y-63888600D01*
X78657800Y-63893600D01*
X78661800Y-63899600D01*
X78664800Y-63904600D01*
X78667800Y-63910600D01*
X78670800Y-63915600D01*
X78672800Y-63921600D01*
X78674800Y-63927600D01*
X78676800Y-63933600D01*
X78677800Y-63939600D01*
X78679800Y-63945600D01*
X78679800Y-63951600D01*
X78680800Y-63958600D01*
X78680800Y-63964600D01*
X78680800Y-64464600D01*
X78680800Y-64470600D01*
X78679800Y-64477600D01*
X78679800Y-64483600D01*
X78677800Y-64489600D01*
X78676800Y-64495600D01*
X78674800Y-64501600D01*
X78672800Y-64507600D01*
X78670800Y-64513600D01*
X78667800Y-64518600D01*
X78664800Y-64524600D01*
X78661800Y-64529600D01*
X78657800Y-64535600D01*
X78653800Y-64540600D01*
X78649800Y-64544600D01*
X78645800Y-64549600D01*
X78640800Y-64553600D01*
X78636800Y-64557600D01*
X78631800Y-64561600D01*
X78625800Y-64565600D01*
X78620800Y-64568600D01*
X78614800Y-64571600D01*
X78609800Y-64574600D01*
X78603800Y-64576600D01*
X78597800Y-64578600D01*
X78591800Y-64580600D01*
X78585800Y-64581600D01*
X78579800Y-64583600D01*
X78573800Y-64583600D01*
X78566800Y-64584600D01*
X78560800Y-64584600D01*
X78420800Y-64584600D01*
X78414800Y-64584600D01*
X78407800Y-64583600D01*
X78401800Y-64583600D01*
X78395800Y-64581600D01*
X78389800Y-64580600D01*
X78383800Y-64578600D01*
X78377800Y-64576600D01*
X78371800Y-64574600D01*
X78366800Y-64571600D01*
X78360800Y-64568600D01*
X78355800Y-64565600D01*
X78349800Y-64561600D01*
X78344800Y-64557600D01*
X78340800Y-64553600D01*
X78335800Y-64549600D01*
X78331800Y-64544600D01*
X78327800Y-64540600D01*
X78323800Y-64535600D01*
X78319800Y-64529600D01*
X78316800Y-64524600D01*
X78313800Y-64518600D01*
X78310800Y-64513600D01*
X78308800Y-64507600D01*
X78306800Y-64501600D01*
X78304800Y-64495600D01*
X78303800Y-64489600D01*
X78301800Y-64483600D01*
X78301800Y-64477600D01*
X78300800Y-64470600D01*
X78300800Y-64464600D01*
X78300800Y-63964600D01*
X78300800Y-63958600D01*
X78301800Y-63951600D01*
X78301800Y-63945600D01*
X78303800Y-63939600D01*
X78304800Y-63933600D01*
X78306800Y-63927600D01*
X78308800Y-63921600D01*
X78310800Y-63915600D01*
X78313800Y-63910600D01*
X78316800Y-63904600D01*
X78319800Y-63899600D01*
X78323800Y-63893600D01*
X78327800Y-63888600D01*
X78331800Y-63884600D01*
X78335800Y-63879600D01*
X78340800Y-63875600D01*
X78344800Y-63871600D01*
X78349800Y-63867600D01*
X78355800Y-63863600D01*
X78360800Y-63860600D01*
X78366800Y-63857600D01*
X78371800Y-63854600D01*
X78377800Y-63852600D01*
X78383800Y-63850600D01*
X78389800Y-63848600D01*
X78395800Y-63847600D01*
X78401800Y-63845600D01*
X78407800Y-63845600D01*
X78414800Y-63844600D01*
X78420800Y-63844600D01*
X78560800Y-63844600D01*
X78566800Y-63844600D01*
X78573800Y-63845600D01*
G37*
X78573800Y-66645600D02*
X78579800Y-66645600D01*
X78585800Y-66647600D01*
X78591800Y-66648600D01*
X78597800Y-66650600D01*
X78603800Y-66652600D01*
X78609800Y-66654600D01*
X78614800Y-66657600D01*
X78620800Y-66660600D01*
X78625800Y-66663600D01*
X78631800Y-66667600D01*
X78636800Y-66671600D01*
X78640800Y-66675600D01*
X78645800Y-66679600D01*
X78649800Y-66684600D01*
X78653800Y-66688600D01*
X78657800Y-66693600D01*
X78661800Y-66699600D01*
X78664800Y-66704600D01*
X78667800Y-66710600D01*
X78670800Y-66715600D01*
X78672800Y-66721600D01*
X78674800Y-66727600D01*
X78676800Y-66733600D01*
X78677800Y-66739600D01*
X78679800Y-66745600D01*
X78679800Y-66751600D01*
X78680800Y-66758600D01*
X78680800Y-66764600D01*
X78680800Y-67264600D01*
X78680800Y-67270600D01*
X78679800Y-67277600D01*
X78679800Y-67283600D01*
X78677800Y-67289600D01*
X78676800Y-67295600D01*
X78674800Y-67301600D01*
X78672800Y-67307600D01*
X78670800Y-67313600D01*
X78667800Y-67318600D01*
X78664800Y-67324600D01*
X78661800Y-67329600D01*
X78657800Y-67335600D01*
X78653800Y-67340600D01*
X78649800Y-67344600D01*
X78645800Y-67349600D01*
X78640800Y-67353600D01*
X78636800Y-67357600D01*
X78631800Y-67361600D01*
X78625800Y-67365600D01*
X78620800Y-67368600D01*
X78614800Y-67371600D01*
X78609800Y-67374600D01*
X78603800Y-67376600D01*
X78597800Y-67378600D01*
X78591800Y-67380600D01*
X78585800Y-67381600D01*
X78579800Y-67383600D01*
X78573800Y-67383600D01*
X78566800Y-67384600D01*
X78560800Y-67384600D01*
X78420800Y-67384600D01*
X78414800Y-67384600D01*
X78407800Y-67383600D01*
X78401800Y-67383600D01*
X78395800Y-67381600D01*
X78389800Y-67380600D01*
X78383800Y-67378600D01*
X78377800Y-67376600D01*
X78371800Y-67374600D01*
X78366800Y-67371600D01*
X78360800Y-67368600D01*
X78355800Y-67365600D01*
X78349800Y-67361600D01*
X78344800Y-67357600D01*
X78340800Y-67353600D01*
X78335800Y-67349600D01*
X78331800Y-67344600D01*
X78327800Y-67340600D01*
X78323800Y-67335600D01*
X78319800Y-67329600D01*
X78316800Y-67324600D01*
X78313800Y-67318600D01*
X78310800Y-67313600D01*
X78308800Y-67307600D01*
X78306800Y-67301600D01*
X78304800Y-67295600D01*
X78303800Y-67289600D01*
X78301800Y-67283600D01*
X78301800Y-67277600D01*
X78300800Y-67270600D01*
X78300800Y-67264600D01*
X78300800Y-66764600D01*
X78300800Y-66758600D01*
X78301800Y-66751600D01*
X78301800Y-66745600D01*
X78303800Y-66739600D01*
X78304800Y-66733600D01*
X78306800Y-66727600D01*
X78308800Y-66721600D01*
X78310800Y-66715600D01*
X78313800Y-66710600D01*
X78316800Y-66704600D01*
X78319800Y-66699600D01*
X78323800Y-66693600D01*
X78327800Y-66688600D01*
X78331800Y-66684600D01*
X78335800Y-66679600D01*
X78340800Y-66675600D01*
X78344800Y-66671600D01*
X78349800Y-66667600D01*
X78355800Y-66663600D01*
X78360800Y-66660600D01*
X78366800Y-66657600D01*
X78371800Y-66654600D01*
X78377800Y-66652600D01*
X78383800Y-66650600D01*
X78389800Y-66648600D01*
X78395800Y-66647600D01*
X78401800Y-66645600D01*
X78407800Y-66645600D01*
X78414800Y-66644600D01*
X78420800Y-66644600D01*
X78560800Y-66644600D01*
X78566800Y-66644600D01*
X78573800Y-66645600D01*
G36*
X78573800Y-66645600D02*
G01*
X78579800Y-66645600D01*
X78585800Y-66647600D01*
X78591800Y-66648600D01*
X78597800Y-66650600D01*
X78603800Y-66652600D01*
X78609800Y-66654600D01*
X78614800Y-66657600D01*
X78620800Y-66660600D01*
X78625800Y-66663600D01*
X78631800Y-66667600D01*
X78636800Y-66671600D01*
X78640800Y-66675600D01*
X78645800Y-66679600D01*
X78649800Y-66684600D01*
X78653800Y-66688600D01*
X78657800Y-66693600D01*
X78661800Y-66699600D01*
X78664800Y-66704600D01*
X78667800Y-66710600D01*
X78670800Y-66715600D01*
X78672800Y-66721600D01*
X78674800Y-66727600D01*
X78676800Y-66733600D01*
X78677800Y-66739600D01*
X78679800Y-66745600D01*
X78679800Y-66751600D01*
X78680800Y-66758600D01*
X78680800Y-66764600D01*
X78680800Y-67264600D01*
X78680800Y-67270600D01*
X78679800Y-67277600D01*
X78679800Y-67283600D01*
X78677800Y-67289600D01*
X78676800Y-67295600D01*
X78674800Y-67301600D01*
X78672800Y-67307600D01*
X78670800Y-67313600D01*
X78667800Y-67318600D01*
X78664800Y-67324600D01*
X78661800Y-67329600D01*
X78657800Y-67335600D01*
X78653800Y-67340600D01*
X78649800Y-67344600D01*
X78645800Y-67349600D01*
X78640800Y-67353600D01*
X78636800Y-67357600D01*
X78631800Y-67361600D01*
X78625800Y-67365600D01*
X78620800Y-67368600D01*
X78614800Y-67371600D01*
X78609800Y-67374600D01*
X78603800Y-67376600D01*
X78597800Y-67378600D01*
X78591800Y-67380600D01*
X78585800Y-67381600D01*
X78579800Y-67383600D01*
X78573800Y-67383600D01*
X78566800Y-67384600D01*
X78560800Y-67384600D01*
X78420800Y-67384600D01*
X78414800Y-67384600D01*
X78407800Y-67383600D01*
X78401800Y-67383600D01*
X78395800Y-67381600D01*
X78389800Y-67380600D01*
X78383800Y-67378600D01*
X78377800Y-67376600D01*
X78371800Y-67374600D01*
X78366800Y-67371600D01*
X78360800Y-67368600D01*
X78355800Y-67365600D01*
X78349800Y-67361600D01*
X78344800Y-67357600D01*
X78340800Y-67353600D01*
X78335800Y-67349600D01*
X78331800Y-67344600D01*
X78327800Y-67340600D01*
X78323800Y-67335600D01*
X78319800Y-67329600D01*
X78316800Y-67324600D01*
X78313800Y-67318600D01*
X78310800Y-67313600D01*
X78308800Y-67307600D01*
X78306800Y-67301600D01*
X78304800Y-67295600D01*
X78303800Y-67289600D01*
X78301800Y-67283600D01*
X78301800Y-67277600D01*
X78300800Y-67270600D01*
X78300800Y-67264600D01*
X78300800Y-66764600D01*
X78300800Y-66758600D01*
X78301800Y-66751600D01*
X78301800Y-66745600D01*
X78303800Y-66739600D01*
X78304800Y-66733600D01*
X78306800Y-66727600D01*
X78308800Y-66721600D01*
X78310800Y-66715600D01*
X78313800Y-66710600D01*
X78316800Y-66704600D01*
X78319800Y-66699600D01*
X78323800Y-66693600D01*
X78327800Y-66688600D01*
X78331800Y-66684600D01*
X78335800Y-66679600D01*
X78340800Y-66675600D01*
X78344800Y-66671600D01*
X78349800Y-66667600D01*
X78355800Y-66663600D01*
X78360800Y-66660600D01*
X78366800Y-66657600D01*
X78371800Y-66654600D01*
X78377800Y-66652600D01*
X78383800Y-66650600D01*
X78389800Y-66648600D01*
X78395800Y-66647600D01*
X78401800Y-66645600D01*
X78407800Y-66645600D01*
X78414800Y-66644600D01*
X78420800Y-66644600D01*
X78560800Y-66644600D01*
X78566800Y-66644600D01*
X78573800Y-66645600D01*
G37*
X79403800Y-65175600D02*
X79409800Y-65175600D01*
X79415800Y-65177600D01*
X79421800Y-65178600D01*
X79427800Y-65180600D01*
X79433800Y-65182600D01*
X79439800Y-65184600D01*
X79444800Y-65187600D01*
X79450800Y-65190600D01*
X79455800Y-65193600D01*
X79461800Y-65197600D01*
X79466800Y-65201600D01*
X79470800Y-65205600D01*
X79475800Y-65209600D01*
X79479800Y-65214600D01*
X79483800Y-65218600D01*
X79487800Y-65223600D01*
X79491800Y-65229600D01*
X79494800Y-65234600D01*
X79497800Y-65240600D01*
X79500800Y-65245600D01*
X79502800Y-65251600D01*
X79504800Y-65257600D01*
X79506800Y-65263600D01*
X79507800Y-65269600D01*
X79509800Y-65275600D01*
X79509800Y-65281600D01*
X79510800Y-65288600D01*
X79510800Y-65294600D01*
X79510800Y-65434600D01*
X79510800Y-65440600D01*
X79509800Y-65447600D01*
X79509800Y-65453600D01*
X79507800Y-65459600D01*
X79506800Y-65465600D01*
X79504800Y-65471600D01*
X79502800Y-65477600D01*
X79500800Y-65483600D01*
X79497800Y-65488600D01*
X79494800Y-65494600D01*
X79491800Y-65499600D01*
X79487800Y-65505600D01*
X79483800Y-65510600D01*
X79479800Y-65514600D01*
X79475800Y-65519600D01*
X79470800Y-65523600D01*
X79466800Y-65527600D01*
X79461800Y-65531600D01*
X79455800Y-65535600D01*
X79450800Y-65538600D01*
X79444800Y-65541600D01*
X79439800Y-65544600D01*
X79433800Y-65546600D01*
X79427800Y-65548600D01*
X79421800Y-65550600D01*
X79415800Y-65551600D01*
X79409800Y-65553600D01*
X79403800Y-65553600D01*
X79396800Y-65554600D01*
X79390800Y-65554600D01*
X78890800Y-65554600D01*
X78884800Y-65554600D01*
X78877800Y-65553600D01*
X78871800Y-65553600D01*
X78865800Y-65551600D01*
X78859800Y-65550600D01*
X78853800Y-65548600D01*
X78847800Y-65546600D01*
X78841800Y-65544600D01*
X78836800Y-65541600D01*
X78830800Y-65538600D01*
X78825800Y-65535600D01*
X78819800Y-65531600D01*
X78814800Y-65527600D01*
X78810800Y-65523600D01*
X78805800Y-65519600D01*
X78801800Y-65514600D01*
X78797800Y-65510600D01*
X78793800Y-65505600D01*
X78789800Y-65499600D01*
X78786800Y-65494600D01*
X78783800Y-65488600D01*
X78780800Y-65483600D01*
X78778800Y-65477600D01*
X78776800Y-65471600D01*
X78774800Y-65465600D01*
X78773800Y-65459600D01*
X78771800Y-65453600D01*
X78771800Y-65447600D01*
X78770800Y-65440600D01*
X78770800Y-65434600D01*
X78770800Y-65294600D01*
X78770800Y-65288600D01*
X78771800Y-65281600D01*
X78771800Y-65275600D01*
X78773800Y-65269600D01*
X78774800Y-65263600D01*
X78776800Y-65257600D01*
X78778800Y-65251600D01*
X78780800Y-65245600D01*
X78783800Y-65240600D01*
X78786800Y-65234600D01*
X78789800Y-65229600D01*
X78793800Y-65223600D01*
X78797800Y-65218600D01*
X78801800Y-65214600D01*
X78805800Y-65209600D01*
X78810800Y-65205600D01*
X78814800Y-65201600D01*
X78819800Y-65197600D01*
X78825800Y-65193600D01*
X78830800Y-65190600D01*
X78836800Y-65187600D01*
X78841800Y-65184600D01*
X78847800Y-65182600D01*
X78853800Y-65180600D01*
X78859800Y-65178600D01*
X78865800Y-65177600D01*
X78871800Y-65175600D01*
X78877800Y-65175600D01*
X78884800Y-65174600D01*
X78890800Y-65174600D01*
X79390800Y-65174600D01*
X79396800Y-65174600D01*
X79403800Y-65175600D01*
G36*
X79403800Y-65175600D02*
G01*
X79409800Y-65175600D01*
X79415800Y-65177600D01*
X79421800Y-65178600D01*
X79427800Y-65180600D01*
X79433800Y-65182600D01*
X79439800Y-65184600D01*
X79444800Y-65187600D01*
X79450800Y-65190600D01*
X79455800Y-65193600D01*
X79461800Y-65197600D01*
X79466800Y-65201600D01*
X79470800Y-65205600D01*
X79475800Y-65209600D01*
X79479800Y-65214600D01*
X79483800Y-65218600D01*
X79487800Y-65223600D01*
X79491800Y-65229600D01*
X79494800Y-65234600D01*
X79497800Y-65240600D01*
X79500800Y-65245600D01*
X79502800Y-65251600D01*
X79504800Y-65257600D01*
X79506800Y-65263600D01*
X79507800Y-65269600D01*
X79509800Y-65275600D01*
X79509800Y-65281600D01*
X79510800Y-65288600D01*
X79510800Y-65294600D01*
X79510800Y-65434600D01*
X79510800Y-65440600D01*
X79509800Y-65447600D01*
X79509800Y-65453600D01*
X79507800Y-65459600D01*
X79506800Y-65465600D01*
X79504800Y-65471600D01*
X79502800Y-65477600D01*
X79500800Y-65483600D01*
X79497800Y-65488600D01*
X79494800Y-65494600D01*
X79491800Y-65499600D01*
X79487800Y-65505600D01*
X79483800Y-65510600D01*
X79479800Y-65514600D01*
X79475800Y-65519600D01*
X79470800Y-65523600D01*
X79466800Y-65527600D01*
X79461800Y-65531600D01*
X79455800Y-65535600D01*
X79450800Y-65538600D01*
X79444800Y-65541600D01*
X79439800Y-65544600D01*
X79433800Y-65546600D01*
X79427800Y-65548600D01*
X79421800Y-65550600D01*
X79415800Y-65551600D01*
X79409800Y-65553600D01*
X79403800Y-65553600D01*
X79396800Y-65554600D01*
X79390800Y-65554600D01*
X78890800Y-65554600D01*
X78884800Y-65554600D01*
X78877800Y-65553600D01*
X78871800Y-65553600D01*
X78865800Y-65551600D01*
X78859800Y-65550600D01*
X78853800Y-65548600D01*
X78847800Y-65546600D01*
X78841800Y-65544600D01*
X78836800Y-65541600D01*
X78830800Y-65538600D01*
X78825800Y-65535600D01*
X78819800Y-65531600D01*
X78814800Y-65527600D01*
X78810800Y-65523600D01*
X78805800Y-65519600D01*
X78801800Y-65514600D01*
X78797800Y-65510600D01*
X78793800Y-65505600D01*
X78789800Y-65499600D01*
X78786800Y-65494600D01*
X78783800Y-65488600D01*
X78780800Y-65483600D01*
X78778800Y-65477600D01*
X78776800Y-65471600D01*
X78774800Y-65465600D01*
X78773800Y-65459600D01*
X78771800Y-65453600D01*
X78771800Y-65447600D01*
X78770800Y-65440600D01*
X78770800Y-65434600D01*
X78770800Y-65294600D01*
X78770800Y-65288600D01*
X78771800Y-65281600D01*
X78771800Y-65275600D01*
X78773800Y-65269600D01*
X78774800Y-65263600D01*
X78776800Y-65257600D01*
X78778800Y-65251600D01*
X78780800Y-65245600D01*
X78783800Y-65240600D01*
X78786800Y-65234600D01*
X78789800Y-65229600D01*
X78793800Y-65223600D01*
X78797800Y-65218600D01*
X78801800Y-65214600D01*
X78805800Y-65209600D01*
X78810800Y-65205600D01*
X78814800Y-65201600D01*
X78819800Y-65197600D01*
X78825800Y-65193600D01*
X78830800Y-65190600D01*
X78836800Y-65187600D01*
X78841800Y-65184600D01*
X78847800Y-65182600D01*
X78853800Y-65180600D01*
X78859800Y-65178600D01*
X78865800Y-65177600D01*
X78871800Y-65175600D01*
X78877800Y-65175600D01*
X78884800Y-65174600D01*
X78890800Y-65174600D01*
X79390800Y-65174600D01*
X79396800Y-65174600D01*
X79403800Y-65175600D01*
G37*
X79403800Y-66175600D02*
X79409800Y-66175600D01*
X79415800Y-66177600D01*
X79421800Y-66178600D01*
X79427800Y-66180600D01*
X79433800Y-66182600D01*
X79439800Y-66184600D01*
X79444800Y-66187600D01*
X79450800Y-66190600D01*
X79455800Y-66193600D01*
X79461800Y-66197600D01*
X79466800Y-66201600D01*
X79470800Y-66205600D01*
X79475800Y-66209600D01*
X79479800Y-66214600D01*
X79483800Y-66218600D01*
X79487800Y-66223600D01*
X79491800Y-66229600D01*
X79494800Y-66234600D01*
X79497800Y-66240600D01*
X79500800Y-66245600D01*
X79502800Y-66251600D01*
X79504800Y-66257600D01*
X79506800Y-66263600D01*
X79507800Y-66269600D01*
X79509800Y-66275600D01*
X79509800Y-66281600D01*
X79510800Y-66288600D01*
X79510800Y-66294600D01*
X79510800Y-66434600D01*
X79510800Y-66440600D01*
X79509800Y-66447600D01*
X79509800Y-66453600D01*
X79507800Y-66459600D01*
X79506800Y-66465600D01*
X79504800Y-66471600D01*
X79502800Y-66477600D01*
X79500800Y-66483600D01*
X79497800Y-66488600D01*
X79494800Y-66494600D01*
X79491800Y-66499600D01*
X79487800Y-66505600D01*
X79483800Y-66510600D01*
X79479800Y-66514600D01*
X79475800Y-66519600D01*
X79470800Y-66523600D01*
X79466800Y-66527600D01*
X79461800Y-66531600D01*
X79455800Y-66535600D01*
X79450800Y-66538600D01*
X79444800Y-66541600D01*
X79439800Y-66544600D01*
X79433800Y-66546600D01*
X79427800Y-66548600D01*
X79421800Y-66550600D01*
X79415800Y-66551600D01*
X79409800Y-66553600D01*
X79403800Y-66553600D01*
X79396800Y-66554600D01*
X79390800Y-66554600D01*
X78890800Y-66554600D01*
X78884800Y-66554600D01*
X78877800Y-66553600D01*
X78871800Y-66553600D01*
X78865800Y-66551600D01*
X78859800Y-66550600D01*
X78853800Y-66548600D01*
X78847800Y-66546600D01*
X78841800Y-66544600D01*
X78836800Y-66541600D01*
X78830800Y-66538600D01*
X78825800Y-66535600D01*
X78819800Y-66531600D01*
X78814800Y-66527600D01*
X78810800Y-66523600D01*
X78805800Y-66519600D01*
X78801800Y-66514600D01*
X78797800Y-66510600D01*
X78793800Y-66505600D01*
X78789800Y-66499600D01*
X78786800Y-66494600D01*
X78783800Y-66488600D01*
X78780800Y-66483600D01*
X78778800Y-66477600D01*
X78776800Y-66471600D01*
X78774800Y-66465600D01*
X78773800Y-66459600D01*
X78771800Y-66453600D01*
X78771800Y-66447600D01*
X78770800Y-66440600D01*
X78770800Y-66434600D01*
X78770800Y-66294600D01*
X78770800Y-66288600D01*
X78771800Y-66281600D01*
X78771800Y-66275600D01*
X78773800Y-66269600D01*
X78774800Y-66263600D01*
X78776800Y-66257600D01*
X78778800Y-66251600D01*
X78780800Y-66245600D01*
X78783800Y-66240600D01*
X78786800Y-66234600D01*
X78789800Y-66229600D01*
X78793800Y-66223600D01*
X78797800Y-66218600D01*
X78801800Y-66214600D01*
X78805800Y-66209600D01*
X78810800Y-66205600D01*
X78814800Y-66201600D01*
X78819800Y-66197600D01*
X78825800Y-66193600D01*
X78830800Y-66190600D01*
X78836800Y-66187600D01*
X78841800Y-66184600D01*
X78847800Y-66182600D01*
X78853800Y-66180600D01*
X78859800Y-66178600D01*
X78865800Y-66177600D01*
X78871800Y-66175600D01*
X78877800Y-66175600D01*
X78884800Y-66174600D01*
X78890800Y-66174600D01*
X79390800Y-66174600D01*
X79396800Y-66174600D01*
X79403800Y-66175600D01*
G36*
X79403800Y-66175600D02*
G01*
X79409800Y-66175600D01*
X79415800Y-66177600D01*
X79421800Y-66178600D01*
X79427800Y-66180600D01*
X79433800Y-66182600D01*
X79439800Y-66184600D01*
X79444800Y-66187600D01*
X79450800Y-66190600D01*
X79455800Y-66193600D01*
X79461800Y-66197600D01*
X79466800Y-66201600D01*
X79470800Y-66205600D01*
X79475800Y-66209600D01*
X79479800Y-66214600D01*
X79483800Y-66218600D01*
X79487800Y-66223600D01*
X79491800Y-66229600D01*
X79494800Y-66234600D01*
X79497800Y-66240600D01*
X79500800Y-66245600D01*
X79502800Y-66251600D01*
X79504800Y-66257600D01*
X79506800Y-66263600D01*
X79507800Y-66269600D01*
X79509800Y-66275600D01*
X79509800Y-66281600D01*
X79510800Y-66288600D01*
X79510800Y-66294600D01*
X79510800Y-66434600D01*
X79510800Y-66440600D01*
X79509800Y-66447600D01*
X79509800Y-66453600D01*
X79507800Y-66459600D01*
X79506800Y-66465600D01*
X79504800Y-66471600D01*
X79502800Y-66477600D01*
X79500800Y-66483600D01*
X79497800Y-66488600D01*
X79494800Y-66494600D01*
X79491800Y-66499600D01*
X79487800Y-66505600D01*
X79483800Y-66510600D01*
X79479800Y-66514600D01*
X79475800Y-66519600D01*
X79470800Y-66523600D01*
X79466800Y-66527600D01*
X79461800Y-66531600D01*
X79455800Y-66535600D01*
X79450800Y-66538600D01*
X79444800Y-66541600D01*
X79439800Y-66544600D01*
X79433800Y-66546600D01*
X79427800Y-66548600D01*
X79421800Y-66550600D01*
X79415800Y-66551600D01*
X79409800Y-66553600D01*
X79403800Y-66553600D01*
X79396800Y-66554600D01*
X79390800Y-66554600D01*
X78890800Y-66554600D01*
X78884800Y-66554600D01*
X78877800Y-66553600D01*
X78871800Y-66553600D01*
X78865800Y-66551600D01*
X78859800Y-66550600D01*
X78853800Y-66548600D01*
X78847800Y-66546600D01*
X78841800Y-66544600D01*
X78836800Y-66541600D01*
X78830800Y-66538600D01*
X78825800Y-66535600D01*
X78819800Y-66531600D01*
X78814800Y-66527600D01*
X78810800Y-66523600D01*
X78805800Y-66519600D01*
X78801800Y-66514600D01*
X78797800Y-66510600D01*
X78793800Y-66505600D01*
X78789800Y-66499600D01*
X78786800Y-66494600D01*
X78783800Y-66488600D01*
X78780800Y-66483600D01*
X78778800Y-66477600D01*
X78776800Y-66471600D01*
X78774800Y-66465600D01*
X78773800Y-66459600D01*
X78771800Y-66453600D01*
X78771800Y-66447600D01*
X78770800Y-66440600D01*
X78770800Y-66434600D01*
X78770800Y-66294600D01*
X78770800Y-66288600D01*
X78771800Y-66281600D01*
X78771800Y-66275600D01*
X78773800Y-66269600D01*
X78774800Y-66263600D01*
X78776800Y-66257600D01*
X78778800Y-66251600D01*
X78780800Y-66245600D01*
X78783800Y-66240600D01*
X78786800Y-66234600D01*
X78789800Y-66229600D01*
X78793800Y-66223600D01*
X78797800Y-66218600D01*
X78801800Y-66214600D01*
X78805800Y-66209600D01*
X78810800Y-66205600D01*
X78814800Y-66201600D01*
X78819800Y-66197600D01*
X78825800Y-66193600D01*
X78830800Y-66190600D01*
X78836800Y-66187600D01*
X78841800Y-66184600D01*
X78847800Y-66182600D01*
X78853800Y-66180600D01*
X78859800Y-66178600D01*
X78865800Y-66177600D01*
X78871800Y-66175600D01*
X78877800Y-66175600D01*
X78884800Y-66174600D01*
X78890800Y-66174600D01*
X79390800Y-66174600D01*
X79396800Y-66174600D01*
X79403800Y-66175600D01*
G37*
X79403800Y-64675600D02*
X79409800Y-64675600D01*
X79415800Y-64677600D01*
X79421800Y-64678600D01*
X79427800Y-64680600D01*
X79433800Y-64682600D01*
X79439800Y-64684600D01*
X79444800Y-64687600D01*
X79450800Y-64690600D01*
X79455800Y-64693600D01*
X79461800Y-64697600D01*
X79466800Y-64701600D01*
X79470800Y-64705600D01*
X79475800Y-64709600D01*
X79479800Y-64714600D01*
X79483800Y-64718600D01*
X79487800Y-64723600D01*
X79491800Y-64729600D01*
X79494800Y-64734600D01*
X79497800Y-64740600D01*
X79500800Y-64745600D01*
X79502800Y-64751600D01*
X79504800Y-64757600D01*
X79506800Y-64763600D01*
X79507800Y-64769600D01*
X79509800Y-64775600D01*
X79509800Y-64781600D01*
X79510800Y-64788600D01*
X79510800Y-64794600D01*
X79510800Y-64934600D01*
X79510800Y-64940600D01*
X79509800Y-64947600D01*
X79509800Y-64953600D01*
X79507800Y-64959600D01*
X79506800Y-64965600D01*
X79504800Y-64971600D01*
X79502800Y-64977600D01*
X79500800Y-64983600D01*
X79497800Y-64988600D01*
X79494800Y-64994600D01*
X79491800Y-64999600D01*
X79487800Y-65005600D01*
X79483800Y-65010600D01*
X79479800Y-65014600D01*
X79475800Y-65019600D01*
X79470800Y-65023600D01*
X79466800Y-65027600D01*
X79461800Y-65031600D01*
X79455800Y-65035600D01*
X79450800Y-65038600D01*
X79444800Y-65041600D01*
X79439800Y-65044600D01*
X79433800Y-65046600D01*
X79427800Y-65048600D01*
X79421800Y-65050600D01*
X79415800Y-65051600D01*
X79409800Y-65053600D01*
X79403800Y-65053600D01*
X79396800Y-65054600D01*
X79390800Y-65054600D01*
X78890800Y-65054600D01*
X78884800Y-65054600D01*
X78877800Y-65053600D01*
X78871800Y-65053600D01*
X78865800Y-65051600D01*
X78859800Y-65050600D01*
X78853800Y-65048600D01*
X78847800Y-65046600D01*
X78841800Y-65044600D01*
X78836800Y-65041600D01*
X78830800Y-65038600D01*
X78825800Y-65035600D01*
X78819800Y-65031600D01*
X78814800Y-65027600D01*
X78810800Y-65023600D01*
X78805800Y-65019600D01*
X78801800Y-65014600D01*
X78797800Y-65010600D01*
X78793800Y-65005600D01*
X78789800Y-64999600D01*
X78786800Y-64994600D01*
X78783800Y-64988600D01*
X78780800Y-64983600D01*
X78778800Y-64977600D01*
X78776800Y-64971600D01*
X78774800Y-64965600D01*
X78773800Y-64959600D01*
X78771800Y-64953600D01*
X78771800Y-64947600D01*
X78770800Y-64940600D01*
X78770800Y-64934600D01*
X78770800Y-64794600D01*
X78770800Y-64788600D01*
X78771800Y-64781600D01*
X78771800Y-64775600D01*
X78773800Y-64769600D01*
X78774800Y-64763600D01*
X78776800Y-64757600D01*
X78778800Y-64751600D01*
X78780800Y-64745600D01*
X78783800Y-64740600D01*
X78786800Y-64734600D01*
X78789800Y-64729600D01*
X78793800Y-64723600D01*
X78797800Y-64718600D01*
X78801800Y-64714600D01*
X78805800Y-64709600D01*
X78810800Y-64705600D01*
X78814800Y-64701600D01*
X78819800Y-64697600D01*
X78825800Y-64693600D01*
X78830800Y-64690600D01*
X78836800Y-64687600D01*
X78841800Y-64684600D01*
X78847800Y-64682600D01*
X78853800Y-64680600D01*
X78859800Y-64678600D01*
X78865800Y-64677600D01*
X78871800Y-64675600D01*
X78877800Y-64675600D01*
X78884800Y-64674600D01*
X78890800Y-64674600D01*
X79390800Y-64674600D01*
X79396800Y-64674600D01*
X79403800Y-64675600D01*
G36*
X79403800Y-64675600D02*
G01*
X79409800Y-64675600D01*
X79415800Y-64677600D01*
X79421800Y-64678600D01*
X79427800Y-64680600D01*
X79433800Y-64682600D01*
X79439800Y-64684600D01*
X79444800Y-64687600D01*
X79450800Y-64690600D01*
X79455800Y-64693600D01*
X79461800Y-64697600D01*
X79466800Y-64701600D01*
X79470800Y-64705600D01*
X79475800Y-64709600D01*
X79479800Y-64714600D01*
X79483800Y-64718600D01*
X79487800Y-64723600D01*
X79491800Y-64729600D01*
X79494800Y-64734600D01*
X79497800Y-64740600D01*
X79500800Y-64745600D01*
X79502800Y-64751600D01*
X79504800Y-64757600D01*
X79506800Y-64763600D01*
X79507800Y-64769600D01*
X79509800Y-64775600D01*
X79509800Y-64781600D01*
X79510800Y-64788600D01*
X79510800Y-64794600D01*
X79510800Y-64934600D01*
X79510800Y-64940600D01*
X79509800Y-64947600D01*
X79509800Y-64953600D01*
X79507800Y-64959600D01*
X79506800Y-64965600D01*
X79504800Y-64971600D01*
X79502800Y-64977600D01*
X79500800Y-64983600D01*
X79497800Y-64988600D01*
X79494800Y-64994600D01*
X79491800Y-64999600D01*
X79487800Y-65005600D01*
X79483800Y-65010600D01*
X79479800Y-65014600D01*
X79475800Y-65019600D01*
X79470800Y-65023600D01*
X79466800Y-65027600D01*
X79461800Y-65031600D01*
X79455800Y-65035600D01*
X79450800Y-65038600D01*
X79444800Y-65041600D01*
X79439800Y-65044600D01*
X79433800Y-65046600D01*
X79427800Y-65048600D01*
X79421800Y-65050600D01*
X79415800Y-65051600D01*
X79409800Y-65053600D01*
X79403800Y-65053600D01*
X79396800Y-65054600D01*
X79390800Y-65054600D01*
X78890800Y-65054600D01*
X78884800Y-65054600D01*
X78877800Y-65053600D01*
X78871800Y-65053600D01*
X78865800Y-65051600D01*
X78859800Y-65050600D01*
X78853800Y-65048600D01*
X78847800Y-65046600D01*
X78841800Y-65044600D01*
X78836800Y-65041600D01*
X78830800Y-65038600D01*
X78825800Y-65035600D01*
X78819800Y-65031600D01*
X78814800Y-65027600D01*
X78810800Y-65023600D01*
X78805800Y-65019600D01*
X78801800Y-65014600D01*
X78797800Y-65010600D01*
X78793800Y-65005600D01*
X78789800Y-64999600D01*
X78786800Y-64994600D01*
X78783800Y-64988600D01*
X78780800Y-64983600D01*
X78778800Y-64977600D01*
X78776800Y-64971600D01*
X78774800Y-64965600D01*
X78773800Y-64959600D01*
X78771800Y-64953600D01*
X78771800Y-64947600D01*
X78770800Y-64940600D01*
X78770800Y-64934600D01*
X78770800Y-64794600D01*
X78770800Y-64788600D01*
X78771800Y-64781600D01*
X78771800Y-64775600D01*
X78773800Y-64769600D01*
X78774800Y-64763600D01*
X78776800Y-64757600D01*
X78778800Y-64751600D01*
X78780800Y-64745600D01*
X78783800Y-64740600D01*
X78786800Y-64734600D01*
X78789800Y-64729600D01*
X78793800Y-64723600D01*
X78797800Y-64718600D01*
X78801800Y-64714600D01*
X78805800Y-64709600D01*
X78810800Y-64705600D01*
X78814800Y-64701600D01*
X78819800Y-64697600D01*
X78825800Y-64693600D01*
X78830800Y-64690600D01*
X78836800Y-64687600D01*
X78841800Y-64684600D01*
X78847800Y-64682600D01*
X78853800Y-64680600D01*
X78859800Y-64678600D01*
X78865800Y-64677600D01*
X78871800Y-64675600D01*
X78877800Y-64675600D01*
X78884800Y-64674600D01*
X78890800Y-64674600D01*
X79390800Y-64674600D01*
X79396800Y-64674600D01*
X79403800Y-64675600D01*
G37*
X79403800Y-65675600D02*
X79409800Y-65675600D01*
X79415800Y-65677600D01*
X79421800Y-65678600D01*
X79427800Y-65680600D01*
X79433800Y-65682600D01*
X79439800Y-65684600D01*
X79444800Y-65687600D01*
X79450800Y-65690600D01*
X79455800Y-65693600D01*
X79461800Y-65697600D01*
X79466800Y-65701600D01*
X79470800Y-65705600D01*
X79475800Y-65709600D01*
X79479800Y-65714600D01*
X79483800Y-65718600D01*
X79487800Y-65723600D01*
X79491800Y-65729600D01*
X79494800Y-65734600D01*
X79497800Y-65740600D01*
X79500800Y-65745600D01*
X79502800Y-65751600D01*
X79504800Y-65757600D01*
X79506800Y-65763600D01*
X79507800Y-65769600D01*
X79509800Y-65775600D01*
X79509800Y-65781600D01*
X79510800Y-65788600D01*
X79510800Y-65794600D01*
X79510800Y-65934600D01*
X79510800Y-65940600D01*
X79509800Y-65947600D01*
X79509800Y-65953600D01*
X79507800Y-65959600D01*
X79506800Y-65965600D01*
X79504800Y-65971600D01*
X79502800Y-65977600D01*
X79500800Y-65983600D01*
X79497800Y-65988600D01*
X79494800Y-65994600D01*
X79491800Y-65999600D01*
X79487800Y-66005600D01*
X79483800Y-66010600D01*
X79479800Y-66014600D01*
X79475800Y-66019600D01*
X79470800Y-66023600D01*
X79466800Y-66027600D01*
X79461800Y-66031600D01*
X79455800Y-66035600D01*
X79450800Y-66038600D01*
X79444800Y-66041600D01*
X79439800Y-66044600D01*
X79433800Y-66046600D01*
X79427800Y-66048600D01*
X79421800Y-66050600D01*
X79415800Y-66051600D01*
X79409800Y-66053600D01*
X79403800Y-66053600D01*
X79396800Y-66054600D01*
X79390800Y-66054600D01*
X78890800Y-66054600D01*
X78884800Y-66054600D01*
X78877800Y-66053600D01*
X78871800Y-66053600D01*
X78865800Y-66051600D01*
X78859800Y-66050600D01*
X78853800Y-66048600D01*
X78847800Y-66046600D01*
X78841800Y-66044600D01*
X78836800Y-66041600D01*
X78830800Y-66038600D01*
X78825800Y-66035600D01*
X78819800Y-66031600D01*
X78814800Y-66027600D01*
X78810800Y-66023600D01*
X78805800Y-66019600D01*
X78801800Y-66014600D01*
X78797800Y-66010600D01*
X78793800Y-66005600D01*
X78789800Y-65999600D01*
X78786800Y-65994600D01*
X78783800Y-65988600D01*
X78780800Y-65983600D01*
X78778800Y-65977600D01*
X78776800Y-65971600D01*
X78774800Y-65965600D01*
X78773800Y-65959600D01*
X78771800Y-65953600D01*
X78771800Y-65947600D01*
X78770800Y-65940600D01*
X78770800Y-65934600D01*
X78770800Y-65794600D01*
X78770800Y-65788600D01*
X78771800Y-65781600D01*
X78771800Y-65775600D01*
X78773800Y-65769600D01*
X78774800Y-65763600D01*
X78776800Y-65757600D01*
X78778800Y-65751600D01*
X78780800Y-65745600D01*
X78783800Y-65740600D01*
X78786800Y-65734600D01*
X78789800Y-65729600D01*
X78793800Y-65723600D01*
X78797800Y-65718600D01*
X78801800Y-65714600D01*
X78805800Y-65709600D01*
X78810800Y-65705600D01*
X78814800Y-65701600D01*
X78819800Y-65697600D01*
X78825800Y-65693600D01*
X78830800Y-65690600D01*
X78836800Y-65687600D01*
X78841800Y-65684600D01*
X78847800Y-65682600D01*
X78853800Y-65680600D01*
X78859800Y-65678600D01*
X78865800Y-65677600D01*
X78871800Y-65675600D01*
X78877800Y-65675600D01*
X78884800Y-65674600D01*
X78890800Y-65674600D01*
X79390800Y-65674600D01*
X79396800Y-65674600D01*
X79403800Y-65675600D01*
G36*
X79403800Y-65675600D02*
G01*
X79409800Y-65675600D01*
X79415800Y-65677600D01*
X79421800Y-65678600D01*
X79427800Y-65680600D01*
X79433800Y-65682600D01*
X79439800Y-65684600D01*
X79444800Y-65687600D01*
X79450800Y-65690600D01*
X79455800Y-65693600D01*
X79461800Y-65697600D01*
X79466800Y-65701600D01*
X79470800Y-65705600D01*
X79475800Y-65709600D01*
X79479800Y-65714600D01*
X79483800Y-65718600D01*
X79487800Y-65723600D01*
X79491800Y-65729600D01*
X79494800Y-65734600D01*
X79497800Y-65740600D01*
X79500800Y-65745600D01*
X79502800Y-65751600D01*
X79504800Y-65757600D01*
X79506800Y-65763600D01*
X79507800Y-65769600D01*
X79509800Y-65775600D01*
X79509800Y-65781600D01*
X79510800Y-65788600D01*
X79510800Y-65794600D01*
X79510800Y-65934600D01*
X79510800Y-65940600D01*
X79509800Y-65947600D01*
X79509800Y-65953600D01*
X79507800Y-65959600D01*
X79506800Y-65965600D01*
X79504800Y-65971600D01*
X79502800Y-65977600D01*
X79500800Y-65983600D01*
X79497800Y-65988600D01*
X79494800Y-65994600D01*
X79491800Y-65999600D01*
X79487800Y-66005600D01*
X79483800Y-66010600D01*
X79479800Y-66014600D01*
X79475800Y-66019600D01*
X79470800Y-66023600D01*
X79466800Y-66027600D01*
X79461800Y-66031600D01*
X79455800Y-66035600D01*
X79450800Y-66038600D01*
X79444800Y-66041600D01*
X79439800Y-66044600D01*
X79433800Y-66046600D01*
X79427800Y-66048600D01*
X79421800Y-66050600D01*
X79415800Y-66051600D01*
X79409800Y-66053600D01*
X79403800Y-66053600D01*
X79396800Y-66054600D01*
X79390800Y-66054600D01*
X78890800Y-66054600D01*
X78884800Y-66054600D01*
X78877800Y-66053600D01*
X78871800Y-66053600D01*
X78865800Y-66051600D01*
X78859800Y-66050600D01*
X78853800Y-66048600D01*
X78847800Y-66046600D01*
X78841800Y-66044600D01*
X78836800Y-66041600D01*
X78830800Y-66038600D01*
X78825800Y-66035600D01*
X78819800Y-66031600D01*
X78814800Y-66027600D01*
X78810800Y-66023600D01*
X78805800Y-66019600D01*
X78801800Y-66014600D01*
X78797800Y-66010600D01*
X78793800Y-66005600D01*
X78789800Y-65999600D01*
X78786800Y-65994600D01*
X78783800Y-65988600D01*
X78780800Y-65983600D01*
X78778800Y-65977600D01*
X78776800Y-65971600D01*
X78774800Y-65965600D01*
X78773800Y-65959600D01*
X78771800Y-65953600D01*
X78771800Y-65947600D01*
X78770800Y-65940600D01*
X78770800Y-65934600D01*
X78770800Y-65794600D01*
X78770800Y-65788600D01*
X78771800Y-65781600D01*
X78771800Y-65775600D01*
X78773800Y-65769600D01*
X78774800Y-65763600D01*
X78776800Y-65757600D01*
X78778800Y-65751600D01*
X78780800Y-65745600D01*
X78783800Y-65740600D01*
X78786800Y-65734600D01*
X78789800Y-65729600D01*
X78793800Y-65723600D01*
X78797800Y-65718600D01*
X78801800Y-65714600D01*
X78805800Y-65709600D01*
X78810800Y-65705600D01*
X78814800Y-65701600D01*
X78819800Y-65697600D01*
X78825800Y-65693600D01*
X78830800Y-65690600D01*
X78836800Y-65687600D01*
X78841800Y-65684600D01*
X78847800Y-65682600D01*
X78853800Y-65680600D01*
X78859800Y-65678600D01*
X78865800Y-65677600D01*
X78871800Y-65675600D01*
X78877800Y-65675600D01*
X78884800Y-65674600D01*
X78890800Y-65674600D01*
X79390800Y-65674600D01*
X79396800Y-65674600D01*
X79403800Y-65675600D01*
G37*
%TD*%
D12*
%TO.C,C34*%
X97917000Y-46092400D03*
X97917000Y-45132400D03*
%TD*%
D13*
%TO.C,U9*%
X91617800Y-85661165D03*
X91617800Y-84711165D03*
X91617800Y-83761165D03*
X89342800Y-83761165D03*
X89342800Y-85661165D03*
%TD*%
D14*
%TO.C,JP1*%
X59607400Y-36113800D03*
D15*
X59607400Y-34663800D03*
%TD*%
D16*
%TO.C,R21*%
X78280800Y-62204600D03*
X78280800Y-63224600D03*
%TD*%
D17*
%TO.C,J5*%
X48800000Y-48400000D03*
D18*
X48800000Y-45860000D03*
%TD*%
D19*
%TO.C,R1*%
X57843126Y-75678200D03*
X56823126Y-75678200D03*
%TD*%
D16*
%TO.C,R20*%
X74980800Y-62204600D03*
X74980800Y-63224600D03*
%TD*%
D20*
%TO.C,R33*%
X91176150Y-77362914D03*
X91176150Y-76342914D03*
%TD*%
D21*
%TO.C,U8*%
X93321150Y-77922914D03*
X93321150Y-78572914D03*
X93321150Y-79222914D03*
X93321150Y-79872914D03*
X93321150Y-80522914D03*
X93321150Y-81172914D03*
X93321150Y-81822914D03*
X99046150Y-81822914D03*
X99046150Y-81172914D03*
X99046150Y-80522914D03*
X99046150Y-79872914D03*
X99046150Y-79222914D03*
X99046150Y-78572914D03*
X99046150Y-77922914D03*
%TD*%
D19*
%TO.C,R12*%
X58817400Y-44543800D03*
X57797400Y-44543800D03*
%TD*%
D16*
%TO.C,R31*%
X88126150Y-74182314D03*
X88126150Y-75202314D03*
%TD*%
%TO.C,R55*%
X77260800Y-62204600D03*
X77260800Y-63224600D03*
%TD*%
D19*
%TO.C,R38*%
X86914836Y-81194514D03*
X85894836Y-81194514D03*
%TD*%
D22*
%TO.C,C12*%
X80500800Y-65844600D03*
X82050800Y-65844600D03*
%TD*%
D19*
%TO.C,R37*%
X77184836Y-77674514D03*
X76164836Y-77674514D03*
%TD*%
D23*
%TO.C,C26*%
X98736150Y-76632914D03*
X97776150Y-76632914D03*
%TD*%
D16*
%TO.C,R42*%
X60989793Y-70488200D03*
X60989793Y-71508200D03*
%TD*%
D22*
%TO.C,C28*%
X87032800Y-87071165D03*
X88582800Y-87071165D03*
%TD*%
D24*
%TO.C,U6*%
X84379836Y-81994514D03*
X84379836Y-81344514D03*
X84379836Y-80694514D03*
X84379836Y-80044514D03*
X84379836Y-79394514D03*
X84379836Y-78744514D03*
X84379836Y-78094514D03*
X84379836Y-77444514D03*
X78654836Y-77444514D03*
X78654836Y-78094514D03*
X78654836Y-78744514D03*
X78654836Y-79394514D03*
X78654836Y-80044514D03*
X78654836Y-80694514D03*
X78654836Y-81344514D03*
X78654836Y-81994514D03*
%TD*%
D25*
%TO.C,C9*%
X77610800Y-68154600D03*
X78570800Y-68154600D03*
%TD*%
D26*
%TO.C,C11*%
X73340800Y-62364600D03*
X73340800Y-64264600D03*
%TD*%
D19*
%TO.C,R15*%
X65977400Y-46823800D03*
X64957400Y-46823800D03*
%TD*%
D12*
%TO.C,C25*%
X89236150Y-71972914D03*
X89236150Y-71012914D03*
%TD*%
D27*
%TO.C,H2*%
X101625400Y-33680400D03*
%TD*%
D28*
%TO.C,R51*%
X86791800Y-46095000D03*
X87811800Y-46095000D03*
%TD*%
D20*
%TO.C,R8*%
X65281000Y-81629000D03*
X65281000Y-80609000D03*
%TD*%
D12*
%TO.C,C4*%
X59847400Y-44943800D03*
X59847400Y-43983800D03*
%TD*%
D29*
%TO.C,C8*%
X72410800Y-66014600D03*
X72410800Y-66974600D03*
%TD*%
D17*
%TO.C,J7*%
X62707400Y-39283800D03*
D18*
X65247400Y-39283800D03*
X62707400Y-36743800D03*
X65247400Y-36743800D03*
X62707400Y-34203800D03*
X65247400Y-34203800D03*
X62707400Y-31663800D03*
X65247400Y-31663800D03*
%TD*%
D30*
%TO.C,FID6*%
X58963126Y-62992000D03*
%TD*%
D28*
%TO.C,R49*%
X95298800Y-45002800D03*
X96318800Y-45002800D03*
%TD*%
D19*
%TO.C,R36*%
X77184836Y-78734514D03*
X76164836Y-78734514D03*
%TD*%
D31*
%TO.C,C22*%
X89096150Y-79597914D03*
X89096150Y-78047914D03*
%TD*%
%TO.C,C16*%
X75493800Y-51492000D03*
X75493800Y-49942000D03*
%TD*%
D16*
%TO.C,R25*%
X94640400Y-37632800D03*
X94640400Y-38652800D03*
%TD*%
%TO.C,R41*%
X58963126Y-70488200D03*
X58963126Y-71508200D03*
%TD*%
D29*
%TO.C,C3*%
X54077400Y-46713800D03*
X54077400Y-47673800D03*
%TD*%
D28*
%TO.C,R6*%
X51595000Y-72408800D03*
X52615000Y-72408800D03*
%TD*%
D32*
%TO.C,U3*%
X93534600Y-39837800D03*
X93034600Y-39837800D03*
X92534600Y-39837800D03*
X92034600Y-39837800D03*
X91534600Y-39837800D03*
X91534600Y-42787800D03*
X92034600Y-42787800D03*
X92534600Y-42787800D03*
X93034600Y-42787800D03*
X93534600Y-42787800D03*
D33*
X94084600Y-41062800D03*
X90984600Y-41062800D03*
D34*
X92534600Y-41312800D03*
D33*
X94084600Y-41562800D03*
X90984600Y-41562800D03*
%TD*%
D35*
%TO.C,C2*%
X55482400Y-47663800D03*
X58432400Y-47663800D03*
%TD*%
D12*
%TO.C,C24*%
X77132836Y-82005914D03*
X77132836Y-81045914D03*
%TD*%
D20*
%TO.C,R45*%
X47830800Y-79993600D03*
X47830800Y-78973600D03*
%TD*%
D36*
%TO.C,SW1*%
X65933126Y-69948200D03*
X66933126Y-69948200D03*
D37*
X64633126Y-67423200D03*
X68233126Y-67423200D03*
%TD*%
D38*
%TO.C,U4*%
X77523800Y-50292000D03*
X77523800Y-51562000D03*
X77523800Y-52832000D03*
X77523800Y-54102000D03*
X82473800Y-54102000D03*
X82473800Y-52832000D03*
X82473800Y-51562000D03*
X82473800Y-50292000D03*
%TD*%
D28*
%TO.C,R40*%
X98829400Y-58337800D03*
X99849400Y-58337800D03*
%TD*%
D19*
%TO.C,R3*%
X58553126Y-77128200D03*
X57533126Y-77128200D03*
%TD*%
D20*
%TO.C,R19*%
X76630800Y-69124600D03*
X76630800Y-68104600D03*
%TD*%
D29*
%TO.C,C21*%
X85186150Y-74182314D03*
X85186150Y-75142314D03*
%TD*%
D27*
%TO.C,H4*%
X101625400Y-85217000D03*
%TD*%
D20*
%TO.C,R29*%
X79436150Y-74972314D03*
X79436150Y-73952314D03*
%TD*%
D39*
%TO.C,FB1*%
X53342800Y-68725800D03*
X54312800Y-68725800D03*
%TD*%
D40*
%TO.C,C32*%
X95351800Y-46806200D03*
X93801800Y-46806200D03*
%TD*%
D23*
%TO.C,C23*%
X77174836Y-76664514D03*
X76214836Y-76664514D03*
%TD*%
D20*
%TO.C,R9*%
X64001000Y-81629000D03*
X64001000Y-80609000D03*
%TD*%
D12*
%TO.C,C17*%
X93599000Y-38630800D03*
X93599000Y-37670800D03*
%TD*%
D28*
%TO.C,R16*%
X62717400Y-47983800D03*
X63737400Y-47983800D03*
%TD*%
D41*
%TO.C,FB2*%
X72685000Y-79350000D03*
X71715000Y-79350000D03*
%TD*%
D12*
%TO.C,C10*%
X78257400Y-61315600D03*
X78257400Y-60355600D03*
%TD*%
D30*
%TO.C,FID4*%
X57333126Y-85496400D03*
%TD*%
D16*
%TO.C,R39*%
X76250800Y-62204600D03*
X76250800Y-63224600D03*
%TD*%
D12*
%TO.C,C13*%
X80840800Y-68144600D03*
X80840800Y-67184600D03*
%TD*%
D23*
%TO.C,C5*%
X58787400Y-45578800D03*
X57827400Y-45578800D03*
%TD*%
D25*
%TO.C,C35*%
X88702000Y-46069600D03*
X89662000Y-46069600D03*
%TD*%
D42*
%TO.C,JP2*%
X68397400Y-34823800D03*
D43*
X68397400Y-36273800D03*
%TD*%
D44*
%TO.C,U1*%
X59107936Y-73543198D03*
X59107936Y-74043199D03*
X59107936Y-74543199D03*
X59107936Y-75043200D03*
D45*
X59832748Y-75768200D03*
X60332874Y-75768200D03*
X60833000Y-75768200D03*
X61333126Y-75768200D03*
D44*
X62057938Y-75043200D03*
X62057938Y-74543199D03*
X62057938Y-74043199D03*
X62057938Y-73543198D03*
D45*
X61333126Y-72818198D03*
X60833000Y-72818198D03*
X60332874Y-72818198D03*
X59832748Y-72818198D03*
D46*
X60189237Y-73899499D03*
D47*
X60189237Y-74686899D03*
D46*
X60976637Y-73899499D03*
X60976637Y-74686899D03*
%TD*%
D48*
%TO.C,D2*%
X70527800Y-48870000D03*
X67227800Y-48870000D03*
%TD*%
D49*
%TO.C,D5*%
X47830800Y-81863600D03*
X47830800Y-80893600D03*
%TD*%
D16*
%TO.C,R34*%
X100618136Y-79359914D03*
X100618136Y-80379914D03*
%TD*%
D28*
%TO.C,R24*%
X70834600Y-64240600D03*
X71854600Y-64240600D03*
%TD*%
D36*
%TO.C,J6*%
X71172015Y-41637337D03*
X72172015Y-41637337D03*
X73172015Y-41637337D03*
D37*
X69872015Y-39112337D03*
X74472015Y-39112337D03*
%TD*%
D19*
%TO.C,R28*%
X94314200Y-43986800D03*
X93294200Y-43986800D03*
%TD*%
D28*
%TO.C,R18*%
X70611800Y-44923800D03*
X71631800Y-44923800D03*
%TD*%
D50*
%TO.C,D7*%
X93751400Y-48381000D03*
X95326400Y-48381000D03*
%TD*%
D28*
%TO.C,R7*%
X53191200Y-65246000D03*
X54211200Y-65246000D03*
%TD*%
D31*
%TO.C,C27*%
X93312800Y-84901165D03*
X93312800Y-83351165D03*
%TD*%
D51*
%TO.C,D3*%
X67272800Y-51257600D03*
X70572800Y-51257600D03*
%TD*%
D19*
%TO.C,R44*%
X65151000Y-79629000D03*
X64131000Y-79629000D03*
%TD*%
D28*
%TO.C,R2*%
X57533126Y-78148200D03*
X58553126Y-78148200D03*
%TD*%
D19*
%TO.C,R54*%
X87299800Y-58287000D03*
X86279800Y-58287000D03*
%TD*%
%TO.C,R5*%
X60503126Y-78128200D03*
X59483126Y-78128200D03*
%TD*%
D52*
%TO.C,Q1*%
X76410800Y-56789600D03*
X74510800Y-56789600D03*
X75460800Y-58664600D03*
%TD*%
D12*
%TO.C,C7*%
X65989200Y-45796200D03*
X65989200Y-44836200D03*
%TD*%
D28*
%TO.C,R27*%
X90953400Y-43986800D03*
X91973400Y-43986800D03*
%TD*%
D19*
%TO.C,R52*%
X90779600Y-45053600D03*
X89759600Y-45053600D03*
%TD*%
D27*
%TO.C,H1*%
X50139600Y-33680400D03*
%TD*%
D30*
%TO.C,FID5*%
X100380800Y-41376600D03*
%TD*%
D53*
%TO.C,J3*%
X63971000Y-83469000D03*
X65221000Y-83469000D03*
D54*
X62121000Y-86669000D03*
X67071000Y-86669000D03*
%TD*%
D16*
%TO.C,R26*%
X91160600Y-37632800D03*
X91160600Y-38652800D03*
%TD*%
D20*
%TO.C,R17*%
X63333126Y-72918200D03*
X63333126Y-71898200D03*
%TD*%
%TO.C,R14*%
X64987400Y-45833800D03*
X64987400Y-44813800D03*
%TD*%
D29*
%TO.C,C29*%
X61993126Y-70518200D03*
X61993126Y-71478200D03*
%TD*%
D19*
%TO.C,R30*%
X87156150Y-74222314D03*
X86136150Y-74222314D03*
%TD*%
D28*
%TO.C,R10*%
X53077400Y-45753800D03*
X54097400Y-45753800D03*
%TD*%
D27*
%TO.C,H3*%
X50139600Y-85217000D03*
%TD*%
D55*
%TO.C,C18*%
X97236800Y-51296000D03*
X97236800Y-56896000D03*
%TD*%
D56*
%TO.C,FB3*%
X65652000Y-41909000D03*
X65652000Y-43409000D03*
%TD*%
D57*
%TO.C,J1*%
X51680200Y-63580000D03*
X51680200Y-64430000D03*
X51680200Y-65280000D03*
X51680200Y-66130000D03*
X51680200Y-66980000D03*
X51680200Y-67830000D03*
X51680200Y-68680000D03*
X51680200Y-69530000D03*
X50330200Y-69530000D03*
X50330200Y-68680000D03*
X50330200Y-67830000D03*
X50330200Y-66980000D03*
X50330200Y-66130000D03*
X50330200Y-65280000D03*
X50330200Y-64430000D03*
X50330200Y-63580000D03*
D58*
X50700200Y-62230000D03*
D59*
X47320200Y-62230000D03*
D58*
X50700200Y-70880000D03*
D59*
X47320200Y-70880000D03*
%TD*%
D20*
%TO.C,R50*%
X97917000Y-48032000D03*
X97917000Y-47012000D03*
%TD*%
D31*
%TO.C,C14*%
X82070800Y-69014600D03*
X82070800Y-67464600D03*
%TD*%
D60*
%TO.C,U7*%
X89728350Y-74200414D03*
D61*
X90176149Y-75144214D03*
X90676151Y-75144214D03*
X91176150Y-75144214D03*
X91676149Y-75144214D03*
X92176151Y-75144214D03*
D60*
X92623950Y-74200414D03*
X92623950Y-73700414D03*
D61*
X92176151Y-72756614D03*
X91676149Y-72756614D03*
X91176150Y-72756614D03*
X90676151Y-72756614D03*
X90176149Y-72756614D03*
D60*
X89728350Y-73700414D03*
D62*
X91176150Y-73950414D03*
%TD*%
D55*
%TO.C,C19*%
X88849200Y-51296000D03*
X88849200Y-56896000D03*
%TD*%
D63*
%TO.C,C6*%
X68471400Y-43508800D03*
X68471400Y-46458800D03*
%TD*%
D64*
%TO.C,U2*%
X61057401Y-44643798D03*
X61057401Y-45143797D03*
X61057401Y-45643799D03*
X61057401Y-46143797D03*
X63757401Y-46143797D03*
X63757401Y-45643799D03*
X63757401Y-45143797D03*
X63757401Y-44643798D03*
D65*
X62107401Y-44693799D03*
X62107401Y-46093799D03*
X62407404Y-45393799D03*
D66*
X62407404Y-45393799D03*
D65*
X62707401Y-44693799D03*
X62707401Y-46093799D03*
%TD*%
D16*
%TO.C,R43*%
X59976459Y-70488200D03*
X59976459Y-71508200D03*
%TD*%
D40*
%TO.C,C15*%
X84563800Y-48887000D03*
X83013800Y-48887000D03*
%TD*%
%TO.C,C20*%
X78226150Y-73922314D03*
X76676150Y-73922314D03*
%TD*%
%TO.C,C31*%
X65808126Y-74138200D03*
X64258126Y-74138200D03*
%TD*%
D16*
%TO.C,R22*%
X80300800Y-62204600D03*
X80300800Y-63224600D03*
%TD*%
D36*
%TO.C,J4*%
X56467400Y-41663800D03*
X57467400Y-41663800D03*
X58467400Y-41663800D03*
D37*
X55167400Y-39138800D03*
X59767400Y-39138800D03*
%TD*%
D20*
%TO.C,R13*%
X59857401Y-46913798D03*
X59857401Y-45893798D03*
%TD*%
D22*
%TO.C,C30*%
X55683126Y-74248200D03*
X57233126Y-74248200D03*
%TD*%
D48*
%TO.C,D4*%
X83946150Y-73942314D03*
X80646150Y-73942314D03*
%TD*%
D20*
%TO.C,R46*%
X47802800Y-74828400D03*
X47802800Y-73808400D03*
%TD*%
D28*
%TO.C,R4*%
X59483126Y-77118200D03*
X60503126Y-77118200D03*
%TD*%
D67*
%TO.C,L1*%
X74340800Y-68104600D03*
X74340800Y-65954600D03*
%TD*%
D28*
%TO.C,R53*%
X80230800Y-64584600D03*
X81250800Y-64584600D03*
%TD*%
D20*
%TO.C,R23*%
X79310800Y-63224600D03*
X79310800Y-62204600D03*
%TD*%
D19*
%TO.C,R11*%
X58817400Y-43498800D03*
X57797400Y-43498800D03*
%TD*%
D68*
%TO.C,C36*%
X72941800Y-45143800D03*
X72941800Y-46693800D03*
%TD*%
D49*
%TO.C,D6*%
X47802800Y-76708400D03*
X47802800Y-75738400D03*
%TD*%
D16*
%TO.C,R35*%
X100618136Y-77382714D03*
X100618136Y-78402714D03*
%TD*%
%TO.C,R48*%
X92507000Y-45815600D03*
X92507000Y-46835600D03*
%TD*%
D18*
%TO.C,J8*%
X101788600Y-64592200D03*
X94788600Y-64592200D03*
D69*
X100888600Y-68292200D03*
X102888600Y-60892200D03*
D70*
X93488600Y-60892200D03*
%TD*%
D71*
%TO.C,C33*%
X57111900Y-68682210D03*
X57111900Y-66395790D03*
%TD*%
D72*
%TO.C,D1*%
X53296800Y-64155600D03*
X53296800Y-63315600D03*
%TD*%
D28*
%TO.C,R47*%
X90826150Y-80552914D03*
X91846150Y-80552914D03*
%TD*%
D23*
%TO.C,C1*%
X63497400Y-42853800D03*
X62537400Y-42853800D03*
%TD*%
D73*
%TO.C,J2*%
X70711000Y-81709000D03*
D74*
X72711000Y-81709000D03*
%TD*%
D75*
%TO.C,J10*%
X49994700Y-53640000D03*
X56994700Y-53640000D03*
D76*
X48894708Y-57235405D03*
X58294701Y-57235405D03*
D77*
X62293500Y-52890000D03*
%TD*%
D28*
%TO.C,R32*%
X86876150Y-77802914D03*
X87896150Y-77802914D03*
%TD*%
M02*
